<?xml version="1.0" encoding="utf-8"?>
<!-- Generator: Adobe Illustrator 16.0.0, SVG Export Plug-In . SVG Version: 6.00 Build 0)  -->
<!DOCTYPE svg PUBLIC "-//W3C//DTD SVG 1.1//EN" "http://www.w3.org/Graphics/SVG/1.1/DTD/svg11.dtd">
<svg version="1.1" id="Layer_1" xmlns="http://www.w3.org/2000/svg" xmlns:xlink="http://www.w3.org/1999/xlink" x="0px" y="0px"
	 width="445px" height="275px" viewBox="0 0 445 275" enable-background="new 0 0 445 275" xml:space="preserve">
<g>
	<g>
		<path fill="#414042" d="M105.728,266.378c-0.864,0-1.963-0.359-2.557-0.846v5.258h-1.854v-13.486h1.854v0.702
			c0.702-0.54,1.692-0.864,2.557-0.864c2.557,0,4.466,1.98,4.466,4.627C110.193,264.417,108.284,266.378,105.728,266.378z
			 M105.548,258.672c-1.009,0-1.891,0.45-2.377,1.423c-0.234,0.486-0.378,1.062-0.378,1.674c0,0.612,0.144,1.188,0.378,1.675
			c0.486,0.954,1.368,1.423,2.377,1.423c1.53,0,2.772-1.297,2.772-3.098C108.32,259.951,107.078,258.672,105.548,258.672z"/>
		<path fill="#414042" d="M117.122,258.871c-0.126-0.072-0.522-0.198-0.847-0.198c-1.53,0-2.251,1.459-2.251,3.259v4.268h-1.854
			v-8.895h1.854v1.26c0.217-0.828,1.171-1.422,2.233-1.422c0.485,0,1.008,0.126,1.26,0.27L117.122,258.871z"/>
		<path fill="#414042" d="M127.49,261.769c0,2.647-2.07,4.609-4.627,4.609s-4.627-1.962-4.627-4.609c0-2.646,2.07-4.627,4.627-4.627
			S127.49,259.123,127.49,261.769z M120.091,261.769c0,1.801,1.242,3.098,2.772,3.098s2.772-1.297,2.772-3.098
			c0-1.818-1.242-3.097-2.772-3.097S120.091,259.951,120.091,261.769z"/>
		<path fill="#414042" d="M133.556,257.142c0.882,0,1.962,0.378,2.557,0.864v-5.312h1.872v13.504h-1.872v-0.666
			c-0.702,0.521-1.675,0.846-2.557,0.846c-2.558,0-4.448-1.962-4.448-4.609C129.107,259.123,130.998,257.142,133.556,257.142z
			 M133.735,264.867c1.008,0,1.908-0.469,2.377-1.423c0.252-0.486,0.396-1.062,0.396-1.675c0-0.611-0.144-1.188-0.396-1.692
			c-0.469-0.954-1.369-1.404-2.377-1.404c-1.513,0-2.755,1.278-2.755,3.097C130.98,263.57,132.223,264.867,133.735,264.867z"/>
		<path fill="#414042" d="M140.375,257.304h1.854v4.951c0,1.801,0.559,2.593,2.089,2.593c1.729,0,2.431-1.206,2.431-2.772v-4.771
			h1.854v8.895h-1.854v-1.44c-0.252,0.792-1.368,1.513-2.431,1.585c-2.413,0.18-3.943-0.991-3.943-3.907V257.304z"/>
		<path fill="#414042" d="M155.839,264.668v1.44c-0.234,0.144-0.576,0.27-1.062,0.27c-1.062,0-1.999-0.342-2.575-1.278
			c-0.54-0.9-0.54-1.386-0.54-2.79v-3.493h-1.08v-1.513h1.08v-2.809h1.854v2.809h2.323v1.513h-2.323v3.493
			c0,1.476,0.145,2.016,1.026,2.412C155.118,264.957,155.568,264.794,155.839,264.668z"/>
		<path fill="#414042" d="M166.892,261.769c0,2.647-2.07,4.609-4.627,4.609s-4.628-1.962-4.628-4.609
			c0-2.646,2.071-4.627,4.628-4.627S166.892,259.123,166.892,261.769z M159.492,261.769c0,1.801,1.242,3.098,2.772,3.098
			s2.772-1.297,2.772-3.098c0-1.818-1.242-3.097-2.772-3.097S159.492,259.951,159.492,261.769z"/>
		<path fill="#414042" d="M175.081,264.632c-0.468,1.062-1.71,1.746-3.259,1.746c0,0,0,0-0.018,0c-1.243,0-2.377-0.521-3.224-1.35
			l1.207-1.207c0.504,0.648,1.224,0.973,2.017,0.973c0.882,0,1.62-0.324,1.818-0.792c0.126-0.324,0.018-0.667,0.018-0.702
			c-0.216-0.541-1.008-0.648-1.908-0.847c-1.207-0.271-2.413-0.576-2.881-1.837c-0.234-0.647-0.162-1.404,0.162-2.034
			c0.738-1.387,2.574-1.44,2.791-1.44c1.242,0,2.412,0.468,3.24,1.314l-1.206,1.206c-0.504-0.648-1.242-0.937-2.034-0.937
			c-0.019,0-1.081,0.019-1.387,0.612c-0.108,0.181-0.162,0.486-0.072,0.738c0.18,0.505,0.99,0.666,1.854,0.864
			c1.171,0.271,2.449,0.54,2.917,1.801C175.153,262.85,175.459,263.732,175.081,264.632z"/>
		<path fill="#414042" d="M184.781,266.199h-1.872v-13.846h1.872V266.199z"/>
		<path fill="#414042" d="M194.863,259.987v6.212h-1.854v-0.973c-0.648,0.883-1.801,1.135-2.521,1.135
			c-2.034,0-3.366-1.188-3.366-2.772c0-2.215,1.656-3.007,3.366-3.007c1.387,0,1.747,0,2.521,0v-0.595
			c0-0.558-0.217-1.332-1.729-1.332c-0.847,0-1.621,0.45-2.125,1.152l-1.278-1.152c0.846-0.937,2.053-1.53,3.403-1.53
			C193.837,257.125,194.863,258.672,194.863,259.987z M193.009,262.093c-0.559,0-0.919,0-2.27,0c-1.098,0-1.872,0.559-1.746,1.566
			c0.108,0.847,0.792,1.188,1.746,1.188c1.711,0,2.27-0.81,2.27-1.422V262.093z M190.794,255.683l1.566-2.988l1.746,0.9
			l-1.765,2.088H190.794z"/>
		<path fill="#414042" d="M204.69,265.029c-0.846,0.936-2.053,1.35-3.402,1.35c-2.558,0-4.628-1.962-4.628-4.609
			c0-2.646,2.07-4.627,4.628-4.627c1.35,0,2.557,0.414,3.402,1.351l-1.278,1.152c-0.521-0.702-1.278-0.973-2.124-0.973
			c-1.531,0-2.773,1.278-2.773,3.097c0,1.801,1.242,3.098,2.773,3.098c0.846,0,1.603-0.271,2.124-0.99L204.69,265.029z"/>
		<path fill="#414042" d="M211.206,264.668v1.44c-0.234,0.144-0.576,0.27-1.062,0.27c-1.062,0-1.999-0.342-2.575-1.278
			c-0.54-0.9-0.54-1.386-0.54-2.79v-3.493h-1.08v-1.513h1.08v-2.809h1.854v2.809h2.323v1.513h-2.323v3.493
			c0,1.476,0.145,2.016,1.026,2.412C210.485,264.957,210.936,264.794,211.206,264.668z"/>
		<path fill="#414042" d="M221.755,262.436h-7.004c0,1.638,1.566,2.431,2.719,2.431c0.847,0,1.782-0.45,2.287-1.171l1.278,1.152
			c-0.595,0.811-1.566,1.53-3.565,1.53c-2.881,0-4.646-1.962-4.646-4.609c0-2.646,1.711-4.627,4.466-4.627s4.015,1.53,4.393,3.763
			c0.055,0.288,0.072,0.576,0.072,0.864V262.436z M219.811,260.905c0-1.44-1.152-2.232-2.521-2.232
			c-1.369,0-2.503,0.918-2.503,2.232H219.811z"/>
		<path fill="#414042" d="M232.446,261.769c0,2.647-2.07,4.609-4.627,4.609s-4.628-1.962-4.628-4.609
			c0-2.646,2.071-4.627,4.628-4.627S232.446,259.123,232.446,261.769z M225.047,261.769c0,1.801,1.242,3.098,2.772,3.098
			s2.772-1.297,2.772-3.098c0-1.818-1.242-3.097-2.772-3.097S225.047,259.951,225.047,261.769z"/>
		<path fill="#414042" d="M240.636,264.632c-0.468,1.062-1.71,1.746-3.259,1.746c0,0,0,0-0.018,0c-1.243,0-2.377-0.521-3.224-1.35
			l1.207-1.207c0.504,0.648,1.224,0.973,2.017,0.973c0.882,0,1.62-0.324,1.818-0.792c0.126-0.324,0.018-0.667,0.018-0.702
			c-0.216-0.541-1.008-0.648-1.908-0.847c-1.207-0.271-2.413-0.576-2.881-1.837c-0.234-0.647-0.162-1.404,0.162-2.034
			c0.738-1.387,2.574-1.44,2.791-1.44c1.242,0,2.412,0.468,3.24,1.314l-1.206,1.206c-0.504-0.648-1.242-0.937-2.034-0.937
			c-0.019,0-1.081,0.019-1.387,0.612c-0.108,0.181-0.162,0.486-0.072,0.738c0.18,0.505,0.99,0.666,1.854,0.864
			c1.171,0.271,2.449,0.54,2.917,1.801C240.708,262.85,241.014,263.732,240.636,264.632z"/>
		<path fill="#414042" d="M252.515,266.378c-0.864,0-1.963-0.359-2.557-0.846v5.258h-1.854v-13.486h1.854v0.702
			c0.702-0.54,1.692-0.864,2.557-0.864c2.557,0,4.466,1.98,4.466,4.627C256.98,264.417,255.071,266.378,252.515,266.378z
			 M252.335,258.672c-1.009,0-1.891,0.45-2.377,1.423c-0.234,0.486-0.378,1.062-0.378,1.674c0,0.612,0.144,1.188,0.378,1.675
			c0.486,0.954,1.368,1.423,2.377,1.423c1.53,0,2.772-1.297,2.772-3.098C255.107,259.951,253.865,258.672,252.335,258.672z"/>
		<path fill="#414042" d="M266.34,259.987v6.212h-1.854v-0.973c-0.648,0.883-1.801,1.135-2.521,1.135
			c-2.034,0-3.366-1.188-3.366-2.772c0-2.215,1.656-3.007,3.366-3.007c1.387,0,1.747,0,2.521,0v-0.595
			c0-0.558-0.217-1.332-1.729-1.332c-0.847,0-1.621,0.45-2.125,1.152l-1.278-1.152c0.846-0.937,2.053-1.53,3.403-1.53
			C265.313,257.125,266.34,258.672,266.34,259.987z M264.485,262.093c-0.559,0-0.919,0-2.27,0c-1.098,0-1.872,0.559-1.746,1.566
			c0.108,0.847,0.792,1.188,1.746,1.188c1.711,0,2.27-0.81,2.27-1.422V262.093z"/>
		<path fill="#414042" d="M273.521,258.871c-0.126-0.072-0.522-0.198-0.847-0.198c-1.53,0-2.251,1.459-2.251,3.259v4.268h-1.854
			v-8.895h1.854v1.26c0.217-0.828,1.171-1.422,2.233-1.422c0.485,0,1.008,0.126,1.26,0.27L273.521,258.871z"/>
		<path fill="#414042" d="M282.378,259.987v6.212h-1.854v-0.973c-0.648,0.883-1.801,1.135-2.521,1.135
			c-2.034,0-3.367-1.188-3.367-2.772c0-2.215,1.657-3.007,3.367-3.007c1.387,0,1.747,0,2.521,0v-0.595
			c0-0.558-0.217-1.332-1.729-1.332c-0.847,0-1.621,0.45-2.125,1.152l-1.278-1.152c0.846-0.937,2.053-1.53,3.403-1.53
			C281.352,257.125,282.378,258.672,282.378,259.987z M280.523,262.093c-0.559,0-0.919,0-2.27,0c-1.098,0-1.872,0.559-1.746,1.566
			c0.108,0.847,0.792,1.188,1.746,1.188c1.711,0,2.27-0.81,2.27-1.422V262.093z"/>
		<path fill="#414042" d="M298.901,261.769c0,2.647-2.07,4.609-4.627,4.609s-4.628-1.962-4.628-4.609
			c0-2.646,2.071-4.627,4.628-4.627S298.901,259.123,298.901,261.769z M291.502,261.769c0,1.801,1.242,3.098,2.772,3.098
			s2.772-1.297,2.772-3.098c0-1.818-1.242-3.097-2.772-3.097S291.502,259.951,291.502,261.769z"/>
		<path fill="#414042" d="M315.191,261.769c0,2.647-1.891,4.609-4.447,4.609c-0.864,0-1.854-0.324-2.557-0.846v0.666h-1.854v-13.504
			h1.854v5.312c0.594-0.486,1.692-0.864,2.557-0.864C313.301,257.142,315.191,259.123,315.191,261.769z M313.337,261.769
			c0-1.818-1.242-3.097-2.773-3.097c-1.008,0-1.891,0.45-2.376,1.404c-0.252,0.505-0.396,1.081-0.396,1.692
			c0,0.612,0.145,1.188,0.396,1.675c0.485,0.954,1.368,1.423,2.376,1.423C312.095,264.867,313.337,263.57,313.337,261.769z"/>
		<path fill="#414042" d="M325.378,262.436h-7.004c0,1.638,1.566,2.431,2.719,2.431c0.847,0,1.782-0.45,2.287-1.171l1.278,1.152
			c-0.595,0.811-1.566,1.53-3.565,1.53c-2.881,0-4.646-1.962-4.646-4.609c0-2.646,1.711-4.627,4.466-4.627s4.015,1.53,4.393,3.763
			c0.055,0.288,0.072,0.576,0.072,0.864V262.436z M323.434,260.905c0-1.44-1.152-2.232-2.521-2.232
			c-1.369,0-2.503,0.918-2.503,2.232H323.434z"/>
		<path fill="#414042" d="M335.17,266.199h-1.872l0.018-0.072v-4.879c0-1.801-0.468-2.593-1.998-2.593
			c-1.729,0-2.341,1.206-2.341,2.772v4.771h-1.854v-8.895h1.854v1.44c0.252-0.792,1.278-1.513,2.341-1.585
			c1.746-0.126,2.989,0.45,3.547,1.891c0.378-1.224,1.585-1.818,2.629-1.891c2.413-0.18,3.854,0.99,3.854,3.907v5.132h-1.854v-4.951
			c0-1.801-0.469-2.593-1.999-2.593c-1.549,0-2.196,0.972-2.323,2.412V266.199z"/>
		<path fill="#414042" d="M344.654,266.378c-0.702,0-1.261-0.558-1.261-1.278c0-0.684,0.559-1.242,1.261-1.242
			c0.72,0,1.278,0.559,1.278,1.242C345.933,265.821,345.374,266.378,344.654,266.378z"/>
		<path fill="#414042" d="M351.656,254.063v0.811h-1.566v4.087h-0.973v-4.087h-1.566v-0.811H351.656z M356.949,258.96l-0.18-2.881
			c-0.018-0.378-0.018-0.846-0.036-1.368h-0.054c-0.126,0.432-0.271,1.008-0.414,1.458l-0.883,2.719h-1.008l-0.883-2.79
			c-0.09-0.379-0.233-0.955-0.342-1.387h-0.054c0,0.45-0.019,0.918-0.036,1.368l-0.18,2.881h-0.937l0.36-4.897h1.458l0.847,2.395
			c0.107,0.378,0.197,0.738,0.324,1.243h0.018c0.126-0.45,0.234-0.865,0.342-1.225l0.847-2.413h1.404l0.378,4.897H356.949z"/>
	</g>
	<g>
		<path fill="#414142" d="M42.318,225.379c-4.28,2.09-10.553,3.981-16.228,3.981c-11.847,0-16.326-4.778-16.326-16.028V187.25
			c0-0.597,0-0.995-0.796-0.995H2v-8.86c8.761-0.996,12.244-5.376,13.34-16.228h9.457v14.137c0,0.697,0,0.996,0.797,0.996h14.037
			v9.955c0,0-14.212,0.208-14.834,0s0,23.793,0,23.793c0,5.873,1.395,8.163,6.77,8.163c2.787,0,5.675-0.696,8.064-1.592
			L42.318,225.379z"/>
		<path fill="#414142" d="M84.126,228.166c-1.835-0.253-0.796-5.376-0.796-5.376l-0.498-0.099c-4.082,3.086-9.259,6.67-17.721,6.67
			c-10.452,0-14.435-5.974-14.435-17.521v-24.291c0-1.594-0.1-1.793-1.593-2.091l-4.778-0.995l0.995-8.164c0,0,19.49-0.523,20.408,0
			c0.918,0.524,0,32.951,0,32.951c0,6.073,0.996,8.363,5.276,8.363c4.38,0,7.965-2.489,10.254-4.579V187.45
			c0-1.594-0.1-1.693-1.593-1.991l-4.281-0.995l1.096-8.164c0,0,18.859-0.963,19.811,0s0,41.314,0,41.314
			c0,1.294,0.1,1.792,1.394,1.891l4.978,0.697v7.964C102.643,228.166,85.961,228.418,84.126,228.166z"/>
		<path fill="#414142" d="M167.338,202.581c0-16.525,8.661-27.277,26.88-27.277c18.418,0,25.585,10.951,25.585,26.183
			c0,16.923-8.562,27.875-26.88,27.875C174.706,229.361,167.338,218.21,167.338,202.581z M204.074,201.984
			c0-11.747-3.584-15.929-10.056-15.929c-6.57,0-10.95,4.082-10.95,16.027c0,12.047,3.882,16.825,10.553,16.825
			C200.092,218.908,204.074,214.427,204.074,201.984z"/>
		<g>
			<g>
				<path fill-rule="evenodd" clip-rule="evenodd" fill="#414142" d="M211.209,15.599c3.933-1.354,5.989-5.625,4.583-9.511
					c-1.322-3.644-5.3-5.477-9.001-4.149c-3.842,1.38-5.898,5.567-4.581,9.316C203.47,14.834,207.617,16.837,211.209,15.599"/>
				<path fill-rule="evenodd" clip-rule="evenodd" fill="#414142" d="M239.946,14.991c3.647-1.258,5.702-5.524,4.434-9.216
					c-1.309-3.812-5.294-5.699-9.146-4.33c-3.7,1.321-5.769,5.516-4.521,9.189C231.957,14.316,236.157,16.297,239.946,14.991"/>
				<path fill="#414142" d="M308.128,30.379h0.025c0,0-1.249-2.037-4.264-4.441c-0.081-0.064-0.163-0.129-0.245-0.192
					c-0.188-0.147-0.389-0.296-0.591-0.446c-0.385-0.294-0.756-0.595-1.16-0.871c-0.223-0.154-0.469-0.277-0.715-0.398
					c-0.829-0.521-1.74-1.036-2.744-1.536c-1.165-0.634-2.375-1.133-3.62-1.544c-6.211-2.279-14.922-3.638-26.839-1.977l0.003,0.004
					c-9.671,0.719-19.164,2.543-28.551,5.044c-5.927,1.177-11.675,2.981-17.38,4.936l-0.577,0.16
					c-5.662-2.069-11.376-3.987-17.276-5.286c-9.333-2.694-18.786-4.71-28.442-5.624l0.005-0.003
					c-11.879-1.906-20.617-0.723-26.876,1.426c-1.251,0.385-2.472,0.862-3.648,1.473c-1.015,0.479-1.933,0.976-2.773,1.479
					c-0.25,0.113-0.498,0.232-0.725,0.386c-0.408,0.268-0.787,0.56-1.176,0.847c-0.207,0.144-0.41,0.285-0.603,0.432
					c-0.082,0.064-0.165,0.124-0.247,0.189c-3.064,2.343-4.352,4.352-4.352,4.352h0.022c-5.836,7.366-7.405,17.381-3.638,26.578
					c5.326,13.002,15.184,20.719,28.483,24.33c1.812,0.492,2.269,1.191,2.374,3.021c0.847,14.429,6.763,26.059,19.377,33.707
					c12.592,7.632,29.405,3.652,36.514-8.505c1.062-1.373,1.956-2.837,2.469-4.509c0.056-0.006,0.096,0.002,0.146,0
					c0.486,1.613,1.316,3.045,2.319,4.391c6.857,12.3,23.587,16.619,36.329,9.246c12.769-7.388,18.921-18.895,20.061-33.305
					c0.144-1.827,0.614-2.519,2.436-2.972c13.373-3.341,23.385-10.854,28.973-23.746C315.179,47.904,313.814,37.86,308.128,30.379z
					 M212.656,88.192c-0.584,2.234-1.288,4.436-1.938,6.654c-2.457,5.882-6.178,10.455-12.606,12.266
					c-4.148,1.168-8.12,0.808-11.776-1.527c-8.206-5.248-11.271-13.166-11.586-22.505c-0.048-1.411,0.706-1.464,1.785-1.513
					c2.613-0.116,5.198-0.377,7.721-0.928l0.003,0.01c0.258-0.057,0.5-0.122,0.749-0.181c0.179-0.044,0.357-0.082,0.535-0.129
					c0.548-0.146,1.078-0.299,1.585-0.464c0.027-0.008,0.053-0.018,0.08-0.027c0.509-0.168,0.996-0.348,1.468-0.533
					c0.122-0.051,0.246-0.102,0.367-0.151c0.387-0.163,0.762-0.327,1.121-0.502c0.113-0.054,0.229-0.098,0.343-0.152
					c0.004-0.007,0.009-0.012,0.013-0.018c4.858-2.439,7.23-5.907,8.391-8.755c0.012-0.028,0.022-0.058,0.034-0.086
					c0.164-0.413,0.305-0.811,0.423-1.189c0.126-0.383,0.23-0.773,0.318-1.17c0.096-0.419,0.164-0.794,0.211-1.127
					c0.016-0.114,0.036-0.23,0.048-0.347c0.082-0.679,0.076-1.087,0.076-1.087l-0.033,0.025c0.03-0.977-0.003-1.976-0.164-3.02
					c-1.513-9.827-9.696-15.33-18.251-14.219c-2.585,0.336-4.759,1.381-6.673,2.913c-4.746,3.503-7.419,7.708-8.903,10.988
					c-0.023,0.054-0.051,0.105-0.073,0.159c-1.352,3.036-1.682,5.238-1.682,5.238c-0.257,0.978-0.619,1.368-1.641,1.109
					c-8.706-2.229-15.828-6.484-19.485-15.188c-2.354-5.604-1.088-10.641,2.404-15.33c5.199-5.975,12.217-7.096,19.553-7.201
					c3.577-0.051,7.16,0.205,10.742,0.319c2.474,0.319,4.951,0.638,7.428,0.954c9.234,1.838,18.455,3.736,27.445,6.579
					c1.22,0.387,2.438,0.773,3.652,1.161c1.871,7.582,1.542,19.489,1.152,26.22l-0.002,0.002
					C214.902,73.07,214.614,80.739,212.656,88.192z M177.52,67.502c0.013-0.053,0.035-0.105,0.048-0.16
					c0.024-0.077,0.049-0.158,0.071-0.232c0.536-1.801,1.774-3.637,2.177-4.202c1.308-1.827,2.553-3.699,4.925-4.427
					c1.699-0.519,3.234-0.461,4.278,1.107c1.113,1.669,0.879,3.341-0.447,4.844c-1.335,1.514-3.135,2.121-4.923,2.749
					c0,0-2.346,0.655-5.273,1.401C177.221,68.809,177.315,68.199,177.52,67.502z M265.098,67.83c0.02,0.079,0.044,0.158,0.065,0.238
					c0.014,0.052,0.036,0.106,0.044,0.159c0.192,0.7,0.275,1.312-0.875,1.064c-2.912-0.811-5.246-1.51-5.246-1.51
					c-1.771-0.663-3.561-1.309-4.865-2.849c-1.295-1.529-1.495-3.206-0.348-4.851c1.075-1.547,2.611-1.578,4.301-1.023
					c2.357,0.776,3.562,2.674,4.833,4.526C263.397,64.163,264.597,66.022,265.098,67.83z M299.906,54.169
					c-3.832,8.626-11.04,12.736-19.789,14.786c-1.028,0.24-1.383-0.159-1.62-1.142c0,0-0.283-2.21-1.574-5.273
					c-0.02-0.054-0.046-0.104-0.07-0.159c-1.416-3.311-4.002-7.571-8.679-11.169c-1.879-1.569-4.031-2.658-6.608-3.044
					c-8.532-1.289-16.829,4.051-18.54,13.84c-0.181,1.041-0.233,2.039-0.226,3.018l-0.034-0.027c0,0-0.011,0.408,0.057,1.086
					c0.01,0.12,0.026,0.234,0.039,0.353c0.044,0.331,0.102,0.706,0.188,1.127c0.083,0.4,0.179,0.793,0.293,1.179
					c0.111,0.381,0.243,0.782,0.4,1.195c0.014,0.028,0.021,0.061,0.032,0.09c1.103,2.868,3.406,6.385,8.212,8.924
					c0.003,0.006,0.008,0.01,0.013,0.014c0.11,0.061,0.227,0.107,0.34,0.161c0.356,0.183,0.729,0.356,1.109,0.525
					c0.121,0.053,0.242,0.104,0.366,0.156c0.466,0.197,0.95,0.387,1.455,0.565c0.024,0.01,0.053,0.021,0.08,0.028
					c0.503,0.176,1.029,0.34,1.573,0.495c0.176,0.048,0.354,0.094,0.535,0.14c0.248,0.067,0.485,0.136,0.744,0.199l0.003-0.014
					c2.509,0.604,5.092,0.917,7.7,1.085c1.076,0.072,1.828,0.142,1.756,1.551c-0.506,9.329-3.733,17.188-12.044,22.264
					c-3.703,2.26-7.683,2.541-11.804,1.285c-6.396-1.938-10.019-6.585-12.355-12.518c-0.605-2.229-1.264-4.445-1.801-6.691
					c-1.806-7.49-1.939-15.164-2.371-22.802v-0.001c-0.256-6.74-0.338-18.649,1.685-26.195c1.223-0.359,2.446-0.722,3.674-1.084
					c9.048-2.658,18.305-4.367,27.576-6.019c2.481-0.267,4.963-0.535,7.445-0.804c3.582-0.043,7.17-0.223,10.747-0.099
					c7.332,0.254,14.324,1.521,19.401,7.597C301.211,43.549,302.372,48.612,299.906,54.169z"/>
			</g>
			<path fill="#FFFFFF" d="M212.656,88.192c-0.584,2.234-1.288,4.436-1.938,6.654c-2.457,5.882-6.178,10.455-12.606,12.266
				c-4.148,1.168-8.12,0.808-11.776-1.527c-8.206-5.248-11.271-13.166-11.586-22.505c-0.048-1.411,0.706-1.464,1.785-1.513
				c2.613-0.116,5.198-0.377,7.721-0.928l0.003,0.01c0.258-0.057,0.5-0.122,0.749-0.181c0.179-0.044,0.357-0.082,0.535-0.129
				c0.548-0.146,1.078-0.299,1.585-0.464c0.027-0.008,0.053-0.018,0.08-0.027c0.509-0.168,0.996-0.348,1.468-0.533
				c0.122-0.051,0.246-0.102,0.367-0.151c0.387-0.163,0.762-0.327,1.121-0.502c0.113-0.054,0.229-0.098,0.343-0.152
				c0.004-0.007,0.009-0.012,0.013-0.018c4.858-2.439,7.23-5.907,8.391-8.755c0.012-0.028,0.022-0.058,0.034-0.086
				c0.164-0.413,0.305-0.811,0.423-1.189c0.126-0.383,0.23-0.773,0.318-1.17c0.096-0.419,0.164-0.794,0.211-1.127
				c0.016-0.114,0.036-0.23,0.048-0.347c0.082-0.679,0.076-1.087,0.076-1.087l-0.033,0.025c0.03-0.977-0.003-1.976-0.164-3.02
				c-1.513-9.827-9.696-15.33-18.251-14.219c-2.585,0.336-4.759,1.381-6.673,2.913c-4.746,3.503-7.419,7.708-8.903,10.988
				c-0.023,0.054-0.051,0.105-0.073,0.159c-1.352,3.036-1.682,5.238-1.682,5.238c-0.257,0.978-0.619,1.368-1.641,1.109
				c-8.706-2.229-15.828-6.484-19.485-15.188c-2.354-5.604-1.088-10.641,2.404-15.33c5.199-5.975,12.217-7.096,19.553-7.201
				c3.577-0.051,7.16,0.205,10.742,0.319c2.474,0.319,4.951,0.638,7.428,0.954c9.234,1.838,18.455,3.736,27.445,6.579
				c1.22,0.387,2.438,0.773,3.652,1.161c1.871,7.582,1.542,19.489,1.152,26.22l-0.002,0.002
				C214.902,73.07,214.614,80.739,212.656,88.192z"/>
			<path fill="#FFFFFF" d="M177.52,67.502c0.013-0.053,0.035-0.105,0.048-0.16c0.024-0.077,0.049-0.158,0.071-0.232
				c0.536-1.801,1.774-3.637,2.177-4.202c1.308-1.827,2.553-3.699,4.925-4.427c1.699-0.519,3.234-0.461,4.278,1.107
				c1.113,1.669,0.879,3.341-0.447,4.844c-1.335,1.514-3.135,2.121-4.923,2.749c0,0-2.346,0.655-5.273,1.401
				C177.221,68.809,177.315,68.199,177.52,67.502z"/>
			<path fill="#FFFFFF" d="M265.098,67.83c0.02,0.079,0.044,0.158,0.065,0.238c0.014,0.052,0.036,0.106,0.044,0.159
				c0.192,0.7,0.275,1.312-0.875,1.064c-2.912-0.811-5.246-1.51-5.246-1.51c-1.771-0.663-3.561-1.309-4.865-2.849
				c-1.295-1.529-1.495-3.206-0.348-4.851c1.075-1.547,2.611-1.578,4.301-1.023c2.357,0.776,3.562,2.674,4.833,4.526
				C263.397,64.163,264.597,66.022,265.098,67.83z"/>
			<path fill="#FFFFFF" d="M299.906,54.169c-3.832,8.626-11.04,12.736-19.789,14.786c-1.028,0.24-1.383-0.159-1.62-1.142
				c0,0-0.283-2.21-1.574-5.273c-0.02-0.054-0.046-0.104-0.07-0.159c-1.416-3.311-4.002-7.571-8.679-11.169
				c-1.879-1.569-4.031-2.658-6.608-3.044c-8.532-1.289-16.829,4.051-18.54,13.84c-0.181,1.041-0.233,2.039-0.226,3.018
				l-0.034-0.027c0,0-0.011,0.408,0.057,1.086c0.01,0.12,0.026,0.234,0.039,0.353c0.044,0.331,0.102,0.706,0.188,1.127
				c0.083,0.4,0.179,0.793,0.293,1.179c0.111,0.381,0.243,0.782,0.4,1.195c0.014,0.028,0.021,0.061,0.032,0.09
				c1.103,2.868,3.406,6.385,8.212,8.924c0.003,0.006,0.008,0.01,0.013,0.014c0.11,0.061,0.227,0.107,0.34,0.161
				c0.356,0.183,0.729,0.356,1.109,0.525c0.121,0.053,0.242,0.104,0.366,0.156c0.466,0.197,0.95,0.387,1.455,0.565
				c0.024,0.01,0.053,0.021,0.08,0.028c0.503,0.176,1.029,0.34,1.573,0.495c0.176,0.048,0.354,0.094,0.535,0.14
				c0.248,0.067,0.485,0.136,0.744,0.199l0.003-0.014c2.509,0.604,5.092,0.917,7.7,1.085c1.076,0.072,1.828,0.142,1.756,1.551
				c-0.506,9.329-3.733,17.188-12.044,22.264c-3.703,2.26-7.683,2.541-11.804,1.285c-6.396-1.938-10.019-6.585-12.355-12.518
				c-0.605-2.229-1.264-4.445-1.801-6.691c-1.806-7.49-1.939-15.164-2.371-22.802v-0.001c-0.256-6.74-0.338-18.649,1.685-26.195
				c1.223-0.359,2.446-0.722,3.674-1.084c9.048-2.658,18.305-4.367,27.576-6.019c2.481-0.267,4.963-0.535,7.445-0.804
				c3.582-0.043,7.17-0.223,10.747-0.099c7.332,0.254,14.324,1.521,19.401,7.597C301.211,43.549,302.372,48.612,299.906,54.169z"/>
		</g>
		<path fill="#414142" d="M441.165,220.575l-3.478-0.486c-1.577-0.208-1.606-0.414-1.633-2.064l-0.017-26.541
			c-0.039-2.478-0.153-4.749-0.431-6.712c-1.236-7.332-4.872-11.149-12.412-11.149c-7.331,0-12.712,5.059-17.147,9.497l-0.323-0.101
			c-1.286-6.197-5.557-9.396-11.236-9.396c-7.849,0-12.816,5.059-17.547,9.601l-0.324-0.104l-0.035-5.395
			c-0.055-2.814-4.501-3.057-5.646-3.072h-14.818l-0.033,7.849l5.323,1.86c0.974,0.309,1.28,1.03,1.234,2.166l0.099,31.497
			c0.01,1.55-0.256,1.856-1.57,2.064l-4.454,0.619l0.056,7.745h28.294l-0.034-6.33c-0.004-1.203-1.437-1.504-1.869-1.566
			l-0.121-0.019h-0.012h0.002l-3.272-0.449c-1.579-0.208-1.607-0.414-1.634-2.064l-0.129-23.648
			c2.44-2.478,6.875-6.918,10.798-6.918c2.994,0,3.165,2.684,3.098,6.61l-0.056,20.857l-0.427,13.114l0.267,0.413h22.303
			l-0.034-6.34c-0.02-1.398-1.997-1.569-1.997-1.569h0.041l-3.318-0.455c-1.473-0.208-1.502-0.414-1.528-2.064l-0.023-23.648
			c3.796-3.821,7.154-7.125,10.354-7.125c2.787,0,3.314,2.273,3.336,6.817l-0.12,21.889l-0.452,12.188l0.25,0.308h22.407
			l-0.038-6.36C442.841,221.044,441.719,220.686,441.165,220.575z"/>
		<path fill="#414142" d="M348.561,218.815c-1.543-4.095-9.113-1.713-9.113-1.713l0.024-0.015c-2.635,0.7-4.978,1.038-6.97,1.038
			c-7.744,0-10.598-4.852-11.649-10.118c15.876-1.653,30.86-5.991,28.782-20.757c-1.192-8.466-7.497-13.632-18.854-13.632
			c-16.833,0-28.929,12.393-25.875,34.077c1.759,12.497,8.882,21.997,25.091,21.997c7.333,0,14.375-2.067,20.65-5.165
			L348.561,218.815L348.561,218.815z M330.282,184.771c3.204,0,5.161,1.446,5.511,3.926c0.915,6.504-11.378,8.673-15.729,9.294
			C320.465,189.833,324.5,184.771,330.282,184.771z"/>
		<path fill="#414142" d="M281.146,173.622c-6.298,0-11.91,3.406-17.382,9.291l-0.22-0.102l0.082-27.918
			c0.009-4.403-5.961-4.403-5.961-4.403H242.06l-0.031,7.847l5.515,1.758c0.986,0.41,1.28,1.03,1.339,2.168l-0.034,51.115
			c-0.011,5.059-0.698,10.428-1.389,15.075h14.974l0.513-5.161l0.295-0.105c5.065,4.439,10.622,6.508,16.098,6.508
			c19.1,0,21.357-22.101,19.381-36.145C296.684,179.094,289.927,173.622,281.146,173.622z M274.447,217.712
			c-3.922,0-7.621-2.063-10.496-4.131l0.101-19.103c3.252-3.304,7.995-7.745,12.024-7.745c4.027,0,5.936,4.028,6.794,10.121
			C284.148,205.942,282.708,217.712,274.447,217.712z"/>
		<path fill="#414142" d="M107.934,193.549c-1.977,14.044,0.281,36.145,19.382,36.145c5.475,0,11.032-2.068,16.098-6.508
			l0.294,0.105l0.514,5.161h14.973c-0.69-4.647-1.378-10.017-1.389-15.075l-0.034-51.115c0.06-1.138,0.353-1.758,1.339-2.168
			l5.515-1.758l-0.03-7.847h-15.606c0,0-5.971,0-5.962,4.403l0.082,27.918l-0.22,0.102c-5.471-5.885-11.084-9.291-17.382-9.291
			C116.726,173.622,109.969,179.094,107.934,193.549z M123.782,196.855c0.858-6.093,2.767-10.121,6.795-10.121
			s8.771,4.441,12.023,7.745l0.101,19.103c-2.875,2.067-6.574,4.131-10.495,4.131C123.944,217.712,122.504,205.942,123.782,196.855z
			"/>
	</g>
</g>
</svg>
