<?xml version="1.0" standalone="no"?>
<!DOCTYPE svg PUBLIC "-//W3C//DTD SVG 1.1//EN" "http://www.w3.org/Graphics/SVG/1.1/DTD/svg11.dtd" >
<svg>
<metadata>
Created by FontForge 20120731 at Mon Apr 18 07:38:36 2016
 By www
Copyright (c) 2014 by Jeremy Dooley. All rights reserved.
</metadata>
<defs>
<font id="CabritoSansW01-ExtMedium" horiz-adv-x="890" >
  <font-face 
    font-family="CabritoSansW01-ExtMedium"
    font-weight="600"
    font-stretch="expanded"
    units-per-em="1000"
    panose-1="2 0 5 3 4 0 0 2 0 4"
    ascent="800"
    descent="-200"
    x-height="532"
    cap-height="722"
    bbox="-57 -253 1430 953"
    underline-thickness="50"
    underline-position="-125"
    unicode-range="U+0020-2122"
  />
<missing-glyph horiz-adv-x="307" 
 />
    <glyph glyph-name=".notdef" horiz-adv-x="307" 
 />
    <glyph glyph-name=".null" horiz-adv-x="0" 
 />
    <glyph glyph-name="nonmarkingreturn" horiz-adv-x="333" 
 />
    <glyph glyph-name="space" unicode=" " horiz-adv-x="287" 
 />
    <glyph glyph-name="exclam" unicode="!" horiz-adv-x="278" 
d="M193 686q0 -41 -4.5 -80.5t-10.5 -93.5t-10.5 -131t-4.5 -192q0 -6 -4.5 -9.5t-20.5 -3.5q-15 0 -19.5 3.5t-4.5 9.5q0 115 -4.5 192t-10.5 131t-10.5 93.5t-4.5 80.5q0 33 12.5 48t41.5 15t42 -15t13 -48zM77 44q0 27 18 44t42 17q23 0 39.5 -15t16.5 -41
q0 -27 -18.5 -43t-42.5 -16q-23 0 -39 14.5t-16 39.5z" />
    <glyph glyph-name="quotedbl" unicode="&#x22;" horiz-adv-x="445" 
d="M275 715q0 10 8.5 14t37.5 4t38 -4t9 -14l-10 -184q-1 -10 -8.5 -13.5t-28.5 -3.5q-20 0 -27.5 3.5t-7.5 13.5zM77 715q-1 10 8 14t38 4t38 -4t8 -14l-10 -184q-1 -10 -8 -13.5t-28 -3.5t-28 3.5t-8 13.5z" />
    <glyph glyph-name="numbersign" unicode="#" horiz-adv-x="918" 
d="M507 207h-239l-90 -195q-7 -15 -15 -19t-29 -4q-40 0 -40 25q0 7 1 13t6 15l76 165h-112q-19 0 -25.5 10t-6.5 24q0 18 11.5 22.5t32.5 4.5h128l94 205h-135q-19 0 -25.5 10t-6.5 24q0 18 11.5 22.5t32.5 4.5h151l74 161q4 10 8.5 16.5t11 10.5t16 6t25.5 2q38 0 30 -34
q-2 -7 -6 -16t-7 -16l-60 -130h238l74 161q4 10 8.5 16.5t11 10.5t16 6t25.5 2q38 0 30 -34q-2 -7 -6 -16t-7 -16l-60 -130h113q17 0 20 -12t3 -23q0 -12 -5.5 -19t-22.5 -7h-136l-95 -205h137q17 0 20 -12t3 -23q0 -12 -5.5 -19t-22.5 -7h-160l-90 -195q-7 -15 -15 -19
t-29 -4q-40 0 -40 25q0 7 1 13t6 15zM296 268h239l94 205h-238z" />
    <glyph glyph-name="dollar" unicode="$" horiz-adv-x="581" 
d="M517 637q0 -7 -4 -10.5t-15 1.5q-29 11 -71 20.5t-113 9.5q-37 0 -68 -5t-53 -16.5t-34 -31t-12 -49.5q0 -34 17 -55t45 -35t64 -24t73.5 -21t73.5 -26.5t64 -40.5t45 -63t17 -94q0 -50 -15 -86t-41.5 -60t-63.5 -38t-81 -19v-95q0 -20 -22 -21h-43q-11 0 -15.5 6
t-4.5 14v92q-45 1 -80.5 6.5t-62 11.5t-42.5 12t-22 9q-9 4 -11 8.5t-2 12.5v45q0 18 17 10q14 -5 34.5 -12t47 -13.5t59.5 -11t72 -4.5q42 0 76.5 6t59 21t38.5 39.5t14 62.5q0 44 -17 72t-45 47t-63.5 30.5t-73 22t-73 23.5t-63.5 33t-45 51t-17 78q0 49 16 82.5t44 54.5
t65.5 31t81.5 13v76q0 10 4.5 15t16.5 6h44q11 0 15 -6t4 -14v-77q65 -4 104.5 -15t49.5 -15q9 -5 10 -8.5t1 -11.5v-44z" />
    <glyph glyph-name="percent" unicode="%" horiz-adv-x="986" 
d="M604 700q6 15 11 18.5t15 3.5h46q16 0 17.5 -7t-6.5 -23l-321 -671q-7 -15 -11.5 -18t-18.5 -3h-42q-12 0 -15.5 5.5t3.5 20.5zM35 529q0 42 10.5 79.5t33.5 66t60 45.5t90 17q52 0 89 -17t60.5 -45.5t34 -66t10.5 -79.5t-10.5 -80t-34 -66.5t-60.5 -45.5t-89 -17
q-53 0 -90 17t-60 45.5t-33.5 66.5t-10.5 80zM229 683q-29 0 -50 -12t-35 -33t-21 -49t-7 -61t6.5 -61t20 -48.5t35 -32.5t51.5 -12q32 0 53.5 12t35 32.5t19 48.5t5.5 61t-6.5 61t-20 49t-35 33t-51.5 12zM563 200q0 42 10.5 79.5t34 66t60 45.5t89.5 17q52 0 89.5 -17
t60.5 -45.5t34 -66t11 -79.5t-11 -80t-34 -66.5t-60.5 -45.5t-89.5 -17q-53 0 -89.5 17t-60 45.5t-34 66.5t-10.5 80zM757 354q-29 0 -50 -12t-35 -33t-21 -49t-7 -61t6.5 -61t20 -48.5t35 -32.5t51.5 -12q32 0 54 12t35.5 32.5t19 48.5t5.5 61t-6.5 61t-20 49t-35.5 33
t-52 12z" />
    <glyph glyph-name="ampersand" unicode="&#x26;" horiz-adv-x="714" 
d="M673 418q15 0 21.5 -3t6.5 -17v-37q0 -20 -23 -20h-107v-320q0 -11 -4.5 -16t-18.5 -5h-229q-62 0 -113 11.5t-88 36t-57.5 62t-20.5 89.5q0 43 13.5 76t37.5 56t56 35.5t69 15.5q-23 4 -48 13.5t-45.5 28t-34 48t-13.5 73.5q0 87 64 137t192 50q40 0 70.5 -2.5t53.5 -6
t41 -8.5t33 -10q9 -3 12.5 -7.5t3.5 -15.5v-41q0 -11 -5.5 -11.5t-13.5 1.5q-35 11 -82.5 19t-104.5 8q-94 0 -135.5 -32.5t-41.5 -87.5q0 -65 45 -92.5t122 -27.5h344zM482 70v271h-154q-38 0 -73 -7.5t-62 -24t-43.5 -43.5t-16.5 -66q0 -67 51 -98.5t144 -31.5h154z" />
    <glyph glyph-name="quotesingle" unicode="'" horiz-adv-x="247" 
d="M77 715q-1 10 8 14t38 4t38 -4t8 -14l-10 -184q-1 -10 -8 -13.5t-28 -3.5t-28 3.5t-8 13.5z" />
    <glyph glyph-name="parenleft" unicode="(" horiz-adv-x="361" 
d="M290 -104q-115 72 -172.5 178.5t-57.5 233.5t57.5 233.5t172.5 178.5q8 6 13.5 4.5t11.5 -9.5q5 -9 6 -14.5t-6 -10.5q-84 -76 -127.5 -171.5t-43.5 -210.5t43.5 -210.5t127.5 -171.5q7 -5 6 -10.5t-6 -14.5q-6 -8 -11.5 -9.5t-13.5 4.5z" />
    <glyph glyph-name="parenright" unicode=")" horiz-adv-x="361" 
d="M72 -105q-9 -5 -14.5 -3.5t-10.5 9.5q-6 9 -6.5 14t6.5 10q83 77 127 172.5t44 210.5t-44 210.5t-127 172.5q-7 5 -6.5 10t6.5 14q5 8 10.5 9.5t14.5 -3.5q114 -73 172 -179.5t58 -233.5t-58 -233.5t-172 -179.5z" />
    <glyph glyph-name="asterisk" unicode="*" horiz-adv-x="455" 
d="M248 544q19 -10 36.5 -15.5t34 -10.5t32.5 -11t34 -16q14 -9 20 -23t-2 -27t-23.5 -13.5t-30.5 7.5q-18 10 -31 22t-25 24t-25 23.5t-31 22.5q1 -20 5 -36t8 -31t7 -30.5t3 -33.5q0 -16 -9 -28t-26 -12q-16 0 -25 11t-9 28q0 18 3.5 34t7.5 31t8 31t5 35
q-17 -11 -30.5 -22t-26 -22t-26 -21.5t-30.5 -19.5q-14 -8 -30 -7t-24 15q-8 13 -2 26t21 21q18 9 34.5 14.5t33.5 10t34.5 10t35.5 14.5q-18 10 -35 16t-34 11t-34 10.5t-34 16.5q-15 9 -20.5 22t2.5 26q9 13 26 13q14 0 28 -8q17 -10 30 -21t25 -22t25.5 -22.5t30.5 -22.5
q-1 19 -5 35.5t-8 32t-7.5 31.5t-3.5 35q0 17 9 28t25 11q17 0 25 -12t8 -28q0 -19 -3 -34.5t-6.5 -31t-7 -32t-4.5 -36.5q19 10 33 21.5t27 23t26.5 22.5t31.5 21q16 8 30.5 7t22.5 -14q8 -14 1.5 -27t-21.5 -21q-18 -9 -34.5 -15t-33 -10.5t-34 -10.5t-37.5 -15z" />
    <glyph glyph-name="plus" unicode="+" horiz-adv-x="529" 
d="M294 368h169q22 0 26.5 -11.5t4.5 -20.5q0 -15 -7 -22.5t-28 -7.5h-165v-153q0 -20 -11.5 -25t-22.5 -5q-20 0 -26.5 11.5t-6.5 31.5v140h-160q-22 0 -27.5 11.5t-5.5 22.5q0 20 11.5 24t32.5 4h149v144q0 18 12.5 23.5t23.5 5.5q16 0 23.5 -6.5t7.5 -26.5v-140z" />
    <glyph glyph-name="comma" unicode="," horiz-adv-x="275" 
d="M78 47q0 28 17 45.5t44 17.5q25 0 42 -17t17 -49q0 -23 -9 -45.5t-23.5 -43.5t-33.5 -40.5t-39 -36.5q-8 -5 -12 -6t-9 5l-9 9q-4 5 -3.5 8.5t8.5 10.5q20 17 37.5 40t23.5 45q-23 2 -37 16.5t-14 40.5z" />
    <glyph glyph-name="hyphen" unicode="-" horiz-adv-x="485" 
d="M386 357q11 0 13.5 -4t2.5 -12v-42q0 -10 -3 -13t-14 -3h-285q-11 0 -14.5 3t-3.5 13v42q0 9 3.5 12.5t14.5 3.5h286z" />
    <glyph glyph-name="period" unicode="." horiz-adv-x="266" 
d="M74 49q0 27 18 44t42 17q23 0 39.5 -15t16.5 -41t-18 -42.5t-43 -16.5q-23 0 -39 14.5t-16 39.5z" />
    <glyph glyph-name="slash" unicode="/" horiz-adv-x="493" 
d="M373 738q5 11 8.5 14.5t11.5 1.5l60 -11q9 -2 9.5 -7t-4.5 -16l-342 -740q-5 -10 -8 -12.5t-11 -0.5l-60 13q-8 2 -9 5t5 16z" />
    <glyph glyph-name="zero" unicode="0" horiz-adv-x="715" 
d="M358 -10q-78 0 -137.5 29t-99.5 79t-60 118.5t-20 148.5q0 79 20 147t60 117t99.5 77t138.5 28t138 -28t98 -77t58.5 -116.5t19.5 -146.5q0 -80 -20 -149t-60 -119.5t-98.5 -79t-136.5 -28.5zM582 366q0 66 -13 120t-40.5 92.5t-69.5 60t-100 21.5t-101 -21.5t-71 -60
t-41.5 -93t-13.5 -120.5q0 -70 15 -126t44 -95t71 -59.5t96 -20.5q53 0 95 20.5t70.5 59.5t43.5 95t15 127z" />
    <glyph glyph-name="one" unicode="1" horiz-adv-x="284" 
d="M24 605q-19 -4 -19 11v44q0 8 3.5 11.5t12.5 7.5l127 42q11 4 20 5t17 1q23 0 23 -22v-686q0 -12 -4.5 -15.5t-16.5 -3.5h-46q-12 0 -16.5 3.5t-4.5 15.5v615z" />
    <glyph glyph-name="two" unicode="2" horiz-adv-x="579" 
d="M441 541q0 24 -8 45.5t-27 37.5t-50.5 25t-77.5 9q-73 0 -129 -12t-88 -21q-11 -3 -14.5 0.5t-3.5 11.5v39q0 10 3 15t12 7q23 8 81.5 21t143.5 13q56 0 102 -10t78.5 -32t50.5 -56.5t18 -83.5q0 -36 -10 -67.5t-32.5 -65t-59.5 -72t-91 -88.5l-206 -187h393
q11 0 14.5 -4t3.5 -13v-37q0 -11 -5.5 -13.5t-16.5 -2.5h-479q-13 0 -18 3.5t-5 14.5v24q0 14 8.5 26t22.5 26l222 208q48 46 80 78.5t51.5 59t28 50t8.5 51.5z" />
    <glyph glyph-name="three" unicode="3" horiz-adv-x="610" 
d="M254 61q114 0 167.5 35t53.5 107q0 40 -15.5 67t-42 43t-62 22.5t-75.5 6.5h-57q-8 0 -10.5 3t-2.5 11v48q0 8 2.5 10t10.5 2h56q40 0 72.5 7t56 22t36.5 39t13 59q0 34 -12 56t-34.5 35t-54 18.5t-70.5 5.5q-63 0 -114 -10t-95 -21q-2 -1 -7.5 -1t-5.5 10v46q0 13 7 15
q6 4 27 10t51 11.5t67.5 9.5t77.5 4q127 0 186.5 -45.5t59.5 -136.5q0 -48 -14.5 -79t-36.5 -50t-46.5 -27.5t-44.5 -11.5q27 -2 57 -11.5t55 -30t41.5 -54.5t16.5 -85q0 -109 -78.5 -161.5t-227.5 -52.5q-35 0 -69.5 2.5t-64 6.5t-51.5 8.5t-31 8.5q-7 3 -8 6t-1 11v44
q0 13 11 13q5 0 14 -2.5t18 -4.5q29 -8 75 -13.5t99 -5.5z" />
    <glyph glyph-name="four" unicode="4" horiz-adv-x="593" 
d="M403 130h-374q-12 0 -15.5 2.5t-3.5 13.5v34q0 11 4 14l387 513q7 9 13.5 12t16.5 3h53q30 0 7 -31l-375 -493h287v160q0 7 2.5 11t14.5 4h55q11 0 13.5 -3.5t2.5 -10.5v-161h66q11 0 15 -2.5t4 -10.5v-40q0 -15 -18 -15h-67v-115q0 -15 -14 -15h-60q-9 0 -11.5 4.5
t-2.5 10.5v115z" />
    <glyph glyph-name="five" unicode="5" horiz-adv-x="581" 
d="M193 650l-38 -209q19 2 55.5 3.5t80.5 1.5q51 0 97.5 -9t82.5 -33t57 -66t21 -107t-20.5 -111t-59.5 -75.5t-94 -43.5t-124 -14q-31 0 -62.5 2t-58.5 5t-48 7t-31 7q-14 4 -15.5 8.5t-1.5 12.5v40q0 11 2.5 13t7.5 2t11.5 -2t20.5 -5q19 -5 65 -11.5t107 -6.5q50 0 89 9
t66 29.5t41.5 53t14.5 79.5q0 86 -50 119.5t-141 33.5q-14 0 -33 -1t-39.5 -2l-41 -2t-38.5 -1q-5 0 -11 -0.5t-14 -0.5q-14 0 -20 5.5t-3 22.5l49 301q3 17 24 17h350q12 0 16.5 -3t4.5 -13v-39q0 -17 -16 -17h-303z" />
    <glyph glyph-name="six" unicode="6" horiz-adv-x="629" 
d="M323 -11q-83 0 -137 24.5t-85.5 69t-44 106.5t-12.5 136q0 106 23 183t66.5 127t106.5 74t144 24q60 0 99.5 -9.5t43.5 -11.5q8 -2 11.5 -6t3.5 -14v-42q0 -17 -21 -10q-23 6 -52.5 12.5t-71.5 6.5q-70 0 -119.5 -20t-82 -60t-48 -100.5t-17.5 -141.5q13 40 37 66t54 41
t63.5 21t64.5 6q54 0 100 -14.5t79.5 -43.5t53 -74.5t19.5 -106.5q0 -63 -20.5 -109t-57 -76t-88 -44t-112.5 -14zM327 63q38 0 71.5 9.5t58.5 30t39.5 51.5t14.5 74q0 79 -46.5 124t-131.5 45q-86 0 -135.5 -46.5t-49.5 -124.5q0 -36 11.5 -65.5t34 -51.5t56 -34t77.5 -12z
" />
    <glyph glyph-name="seven" unicode="7" horiz-adv-x="530" 
d="M512 722q11 0 14 -3t3 -12v-18q0 -14 -5 -30.5t-17 -39.5l-317 -603q-8 -16 -24 -16h-64q-19 0 -11 16l334 629h-390q-18 0 -18 16v42q0 11 4 15t16 4h475z" />
    <glyph glyph-name="eight" unicode="8" horiz-adv-x="659" 
d="M329 732q111 0 175 -45.5t64 -135.5q0 -60 -27.5 -96t-71.5 -54q26 -8 53 -22.5t49.5 -38t36.5 -57.5t14 -80q0 -60 -23 -101t-63 -66.5t-93 -37t-114 -11.5q-60 0 -113.5 11.5t-93 37t-62.5 66.5t-23 101q0 46 14 80t36.5 58t49.5 38.5t53 22.5q-44 17 -71.5 53
t-27.5 96q0 90 64 135.5t174 45.5zM128 207q0 -40 15.5 -68t43 -45t64 -25t78.5 -8t79 8t64.5 25t43.5 45t16 68q0 30 -11 57.5t-34 48.5t-60 34t-88 15h-10q-54 0 -92 -12.5t-62.5 -34t-35.5 -49.5t-11 -59zM329 661q-66 0 -108.5 -27t-42.5 -88q0 -60 42.5 -88t108.5 -28
q30 0 57.5 6.5t48.5 21t33.5 36.5t12.5 53q0 59 -42.5 86.5t-109.5 27.5z" />
    <glyph glyph-name="nine" unicode="9" horiz-adv-x="637" 
d="M309 733q81 0 135.5 -24t87.5 -68t47 -106t14 -138q0 -213 -86.5 -310.5t-263.5 -97.5q-52 0 -95 6.5t-75 14.5q-10 2 -10 13v48q0 8 4.5 10t14.5 0q26 -5 64 -11.5t85 -6.5q72 0 123.5 18t84.5 56.5t49.5 97.5t18.5 141q-15 -36 -39.5 -60.5t-53.5 -38.5t-61 -20t-63 -6
q-54 0 -100 15.5t-80 46t-53 75t-19 102.5q0 55 17.5 100t52 77t85 49t116.5 17zM309 664q-88 0 -134.5 -47t-46.5 -123q0 -41 13.5 -73t37.5 -54.5t57.5 -34.5t72.5 -12q41 0 74.5 12t57.5 34t37.5 53t13.5 70q0 82 -47 128.5t-136 46.5z" />
    <glyph glyph-name="colon" unicode=":" horiz-adv-x="289" 
d="M81 44q0 27 18 44t41 17t40 -15t17 -41q0 -27 -18.5 -43t-42.5 -16q-23 0 -39 14.5t-16 39.5zM81 456q0 26 18 43.5t41 17.5t40 -15.5t17 -41.5t-18.5 -42t-42.5 -16q-23 0 -39 14.5t-16 39.5z" />
    <glyph glyph-name="semicolon" unicode=";" horiz-adv-x="305" 
d="M99 45q0 27 18 44t42 17q23 0 40 -15t17 -42t-9.5 -53.5t-25.5 -51.5t-37.5 -48t-45.5 -42q-5 -5 -8 -5t-5 2l-19 15q-5 5 6 14q26 22 48.5 51.5t30.5 58.5q-23 2 -37.5 16.5t-14.5 38.5zM97 456q0 26 18 43.5t42 17.5q23 0 39.5 -15.5t16.5 -41.5t-18 -42t-43 -16
q-23 0 -39 14.5t-16 39.5z" />
    <glyph glyph-name="less" unicode="&#x3c;" horiz-adv-x="638" 
d="M556 113q10 -4 16 -7t9 -8.5t4 -14t1 -22.5t-3 -22t-14 -8q-6 0 -14.5 2.5t-20.5 7.5l-466 182q-21 8 -28.5 17t-7.5 29v10h94zM126 279h-94v10q0 20 7.5 29t28.5 17l466 182q12 5 20.5 7.5t14.5 2.5q11 0 14 -8t3 -22t-1 -22.5t-4 -14t-9 -8.5t-16 -7z" />
    <glyph glyph-name="equal" unicode="=" horiz-adv-x="578" 
d="M83 360q-16 0 -20 11.5t-4 20.5q0 20 9.5 24.5t27.5 4.5h400q17 0 20 -12t3 -21q0 -12 -5.5 -20t-22.5 -8h-408zM83 209q-16 0 -20 11.5t-4 20.5q0 20 9.5 24.5t27.5 4.5h400q17 0 20 -12t3 -21q0 -12 -5.5 -20t-22.5 -8h-408z" />
    <glyph glyph-name="greater" unicode="&#x3e;" horiz-adv-x="638" 
d="M511 279h94v-10q0 -20 -7 -29t-28 -17l-466 -182q-12 -5 -20.5 -7.5t-14.5 -2.5q-11 0 -14 8t-3 22t0.5 22.5t3.5 14t9 8.5t17 7zM82 445q-11 4 -17 7t-9 8.5t-3.5 14t-0.5 22.5t3 22t14 8q6 0 14.5 -2.5t20.5 -7.5l466 -182q21 -8 28 -17t7 -29v-10h-94z" />
    <glyph glyph-name="question" unicode="?" horiz-adv-x="542" 
d="M177 46q0 26 19 42t43 16t41 -15.5t17 -41.5q0 -28 -18.5 -42.5t-42.5 -14.5q-25 0 -42 14.5t-17 41.5zM418 538q0 25 -9 47t-29 38t-52 25t-77 9q-52 0 -103 -11t-93 -29q-10 -4 -15 -1.5t-5 15.5v36q0 19 14 25q31 13 84.5 26t128.5 13q127 0 186.5 -50t59.5 -137
q0 -44 -17 -78.5t-42 -62.5t-55 -52t-55 -47t-42 -47t-17 -52v-23q0 -11 -6.5 -14.5t-17.5 -3.5h-34q-16 0 -21 7.5t-5 23.5v20q0 32 16.5 59t41 51.5t53.5 47.5t53.5 48t41 53.5t16.5 63.5z" />
    <glyph glyph-name="at" unicode="@" horiz-adv-x="908" 
d="M873 400q0 -56 -16.5 -104.5t-44 -84.5t-64.5 -57t-79 -21q-44 0 -69.5 20t-28.5 55q-29 -35 -73.5 -55t-94.5 -20q-31 0 -60 10t-52 30.5t-37 51.5t-14 74q0 48 18 94t52.5 82.5t84.5 58.5t113 22q50 0 83.5 -13t53 -34.5t26.5 -49.5t6 -58q-2 -34 -10 -66t-22 -71
q-4 -15 -4 -30q0 -25 12 -36.5t31 -11.5q24 0 47 18t40 47.5t27.5 67.5t10.5 79q0 67 -27 118t-72 85.5t-104 52t-123 17.5q-84 0 -151 -27.5t-113.5 -73.5t-71 -107t-24.5 -128q0 -72 26.5 -129.5t74 -98t112 -62t139.5 -21.5q28 0 59.5 3t62 8.5t59.5 13.5t53 19
q18 8 25.5 9t7.5 -12v-19q0 -8 -2 -13t-13 -11q-15 -9 -41.5 -17.5t-61 -15.5t-74 -11.5t-80.5 -4.5q-93 0 -171.5 26t-135 74t-88.5 115.5t-32 150.5q0 81 31 151.5t88.5 122.5t138.5 82t182 30q81 0 152 -22t124 -63.5t83.5 -102t30.5 -137.5zM412 185q35 0 69.5 16.5
t61.5 45.5t44 68.5t17 85.5q0 102 -96 102q-44 0 -80 -19t-61.5 -49.5t-39.5 -68t-14 -74.5q0 -54 27 -80.5t72 -26.5z" />
    <glyph glyph-name="A" unicode="A" horiz-adv-x="706" 
d="M516 199h-328l-67 -183q-4 -11 -9.5 -13.5t-16.5 -2.5h-46q-11 0 -15.5 4t0.5 17l259 685q4 11 7.5 13.5t11.5 2.5h80q8 0 12.5 -2.5t8.5 -13.5l259 -685q5 -13 0.5 -17t-15.5 -4h-46q-12 0 -17.5 2.5t-9.5 13.5zM214 269h277l-139 375z" />
    <glyph glyph-name="B" unicode="B" horiz-adv-x="691" 
d="M579 545q0 -41 -10 -69.5t-26.5 -47t-37 -28.5t-40.5 -13v-1q35 -5 65.5 -17.5t52.5 -35t34.5 -55.5t12.5 -79q0 -65 -24.5 -104t-65 -60t-93 -28t-108.5 -7h-208q-13 0 -17 3.5t-4 15.5v684q0 12 4 15.5t17 3.5h194q124 0 189 -39t65 -138zM197 64h149q33 0 67 4
t61.5 18.5t45 41.5t17.5 73q0 80 -52.5 115t-140.5 35h-147v-287zM197 418h150q72 0 108 30t36 94q0 36 -11.5 59t-32.5 35.5t-50.5 17t-64.5 4.5h-135v-240z" />
    <glyph glyph-name="C" unicode="C" horiz-adv-x="710" 
d="M157 352q0 -65 14.5 -118t48 -91t87 -59t131.5 -21q69 0 119 12.5t78 22.5q11 4 17 3.5t6 -12.5v-42q0 -7 -3 -12t-12 -10q-8 -4 -26.5 -10t-45.5 -12t-61.5 -10t-76.5 -4q-98 0 -168 26t-114.5 73.5t-65 114t-20.5 148.5q0 84 21.5 154t66.5 120.5t114 78.5t164 28
q29 0 59.5 -2.5t59 -7.5t52.5 -12t39 -15q8 -5 10 -9.5t2 -15.5v-38q0 -17 -19 -10q-8 3 -25 9t-42 12t-57 10.5t-68 4.5q-81 0 -135.5 -24.5t-88 -66t-47.5 -97t-14 -118.5z" />
    <glyph glyph-name="D" unicode="D" horiz-adv-x="783" 
d="M131 0q-13 0 -17 3.5t-4 15.5v684q0 12 4 15.5t17 3.5h152q223 0 328.5 -90.5t105.5 -271.5q0 -182 -105.5 -271t-325.5 -89h-155zM197 652v-582h87q89 0 153.5 16.5t106.5 51.5t62.5 90t20.5 132q0 78 -21 133.5t-63.5 91t-107.5 51.5t-153 16h-85z" />
    <glyph glyph-name="E" unicode="E" horiz-adv-x="621" 
d="M131 0q-13 0 -17 3.5t-4 15.5v684q0 12 4 15.5t17 3.5h400q13 0 16.5 -4t3.5 -16v-31q0 -11 -3.5 -15t-16.5 -4h-334v-246h281q13 0 16.5 -4t3.5 -15v-31q0 -12 -3.5 -16t-16.5 -4h-281v-266h355q12 0 16 -4t4 -15v-31q0 -12 -4 -16t-16 -4h-421v0z" />
    <glyph glyph-name="F" unicode="F" horiz-adv-x="593" 
d="M110 703q0 12 4 15.5t17 3.5h401q13 0 16.5 -4t3.5 -16v-31q0 -11 -3.5 -15t-16.5 -4h-335v-267h233q12 0 16 -4.5t4 -15.5v-31q0 -11 -4 -15t-16 -4h-233v-296q0 -12 -4.5 -15.5t-16.5 -3.5h-45q-13 0 -17 3.5t-4 15.5v684z" />
    <glyph glyph-name="G" unicode="G" horiz-adv-x="799" 
d="M468 346q0 15 15 15h220q16 0 16 -14v-288q0 -14 -4 -20t-17 -11q-12 -5 -35 -12t-54.5 -13t-71 -10.5t-82.5 -4.5q-85 0 -157 22t-124 67.5t-81.5 114.5t-29.5 162q0 87 26 157t76.5 119t123.5 75t167 26q46 0 86 -6t71.5 -14.5t53.5 -18t33 -17.5q8 -5 10 -10.5
t2 -10.5v-43q0 -11 -7 -13t-18 5q-9 5 -28.5 14t-48 18t-66 16t-82.5 7q-83 0 -141.5 -24t-95.5 -65.5t-54 -96.5t-17 -117q0 -140 77.5 -216.5t226.5 -76.5q52 0 98.5 8t78.5 18v199h-152q-15 0 -15 16v43z" />
    <glyph glyph-name="H" unicode="H" horiz-adv-x="774" 
d="M577 400v303q0 12 4 15.5t16 3.5h46q12 0 16.5 -3.5t4.5 -15.5v-684q0 -12 -4.5 -15.5t-16.5 -3.5h-46q-12 0 -16 3.5t-4 15.5v310h-381v-310q0 -12 -4 -15.5t-17 -3.5h-45q-13 0 -17 3.5t-4 15.5v684q0 12 4 15.5t17 3.5h45q13 0 17 -3.5t4 -15.5v-303h381z" />
    <glyph glyph-name="I" unicode="I" horiz-adv-x="307" 
d="M110 703q0 12 4 15.5t17 3.5h45q12 0 16.5 -3.5t4.5 -15.5v-684q0 -12 -4.5 -15.5t-16.5 -3.5h-45q-13 0 -17 3.5t-4 15.5v684z" />
    <glyph glyph-name="J" unicode="J" horiz-adv-x="529" 
d="M31 65q0 11 3.5 13.5t14.5 0.5l27.5 -5t35.5 -5.5t39 -4t38 -1.5q82 0 116 42.5t34 119.5v478q0 12 4.5 15.5t16.5 3.5h47q11 0 15.5 -3.5t4.5 -15.5v-481q0 -53 -12.5 -96t-39.5 -73t-70 -46t-104 -16q-23 0 -47.5 2t-46 4.5t-38 5.5t-23.5 5q-10 2 -12.5 7t-2.5 13v37z
" />
    <glyph glyph-name="K" unicode="K" horiz-adv-x="718" 
d="M109 703q0 12 4 15.5t17 3.5h45q12 0 16.5 -3.5t4.5 -15.5v-355l342 358q9 10 15 13t17 3h63q9 0 12 -6t-5 -14l-264 -274q50 -6 84.5 -35t59.5 -72.5t44 -99t39 -115.5q9 -25 21.5 -33t26.5 -8q11 0 19 1.5t17 4.5q10 3 14 1t4 -13v-31q0 -10 -3.5 -14t-15.5 -9
q-11 -5 -25.5 -7t-27.5 -2q-15 0 -30 2t-30 10t-28.5 24t-24.5 44q-10 24 -19.5 55t-21 63.5t-25.5 63.5t-33 55.5t-43.5 40t-56.5 16.5l-125 -129v-222q0 -12 -4.5 -15.5t-16.5 -3.5h-45q-13 0 -17 3.5t-4 15.5v684z" />
    <glyph glyph-name="L" unicode="L" horiz-adv-x="606" 
d="M556 70q13 0 16.5 -4t3.5 -15v-31q0 -12 -3.5 -16t-16.5 -4h-425q-13 0 -17 3.5t-4 15.5v684q0 12 4 15.5t17 3.5h45q12 0 16.5 -3.5t4.5 -15.5v-633h359z" />
    <glyph glyph-name="M" unicode="M" horiz-adv-x="1004" 
d="M502 70l270 635q5 11 9.5 14t12.5 3h82q19 0 19 -18v-685q0 -12 -5 -15.5t-16 -3.5h-39q-12 0 -16.5 3.5t-4.5 15.5v464q0 18 0.5 40t2 44t3.5 43t4 36q-5 -14 -8.5 -26t-8 -26t-11 -32.5t-17.5 -44.5l-217 -503q-3 -9 -7.5 -11.5t-16.5 -2.5h-71q-13 0 -17 2.5t-8 11.5
l-216 503q-11 26 -18 44.5t-11.5 32.5t-8 26t-7.5 26q2 -15 4 -36t3 -43t1.5 -44t0.5 -40v-464q0 -12 -4.5 -15.5t-15.5 -3.5h-39q-13 0 -17 3.5t-4 15.5v685q0 9 3.5 13.5t14.5 4.5h83q8 0 12.5 -3t9.5 -14z" />
    <glyph glyph-name="N" unicode="N" horiz-adv-x="792" 
d="M618 0q-11 0 -17.5 4t-11.5 11l-363 518q-15 22 -25.5 40t-15.5 34q2 -17 4.5 -39.5t2.5 -42.5v-506q0 -12 -4.5 -15.5t-15.5 -3.5h-42q-12 0 -16 3.5t-4 15.5v687q0 9 4 12.5t16 3.5h45q11 0 17.5 -3.5t11.5 -11.5l368 -529q9 -13 15 -21.5t10 -16.5t7 -16t7 -19
q-6 26 -8.5 48.5t-2.5 47.5v502q0 12 4 15.5t17 3.5h41q12 0 16 -3.5t4 -15.5v-688q0 -8 -4 -11.5t-15 -3.5h-45z" />
    <glyph glyph-name="O" unicode="O" 
d="M63 357q0 65 18 132t61.5 121t117.5 88.5t185 34.5q106 0 179 -31.5t118 -83.5t65 -118.5t20 -136.5q0 -65 -17.5 -131.5t-61 -121t-117 -89t-185.5 -34.5q-107 0 -180 31.5t-118 83.5t-65 118.5t-20 136.5zM443 661q-84 0 -140 -28t-89 -71.5t-46.5 -96.5t-13.5 -104
q0 -50 13 -103t46.5 -97.5t90 -73t143.5 -28.5q88 0 144 28.5t88.5 73t45 97t12.5 100.5t-13 101.5t-46 98.5t-90 74t-145 29z" />
    <glyph glyph-name="P" unicode="P" horiz-adv-x="658" 
d="M197 263v-244q0 -12 -4.5 -15.5t-16.5 -3.5h-45q-13 0 -17 3.5t-4 15.5v684q0 12 4 15.5t17 3.5h159q76 0 134.5 -12t98.5 -38.5t61 -69t21 -104.5q0 -60 -20.5 -104.5t-59.5 -73.5t-94 -43t-124 -14h-110zM306 333q208 0 208 162q0 87 -53.5 122t-162.5 35h-101v-319
h109z" />
    <glyph glyph-name="Q" unicode="Q" 
d="M63 357q0 65 18 132t61.5 121t117.5 88.5t185 34.5q106 0 179 -31.5t118 -83.5t65 -118.5t20 -136.5q0 -51 -11 -104.5t-37 -101t-68.5 -86t-106.5 -60.5q19 -8 36.5 -19t39.5 -28q48 -32 73.5 -42.5t44.5 -10.5q18 0 30 2.5t29 8.5q18 6 18 -11v-35q0 -14 -18 -21
q-29 -13 -78 -13q-32 0 -73.5 13.5t-94.5 57.5q-24 18 -43.5 30.5t-39 21t-41.5 14t-49 8.5q-105 1 -176.5 33.5t-115.5 84t-63.5 117.5t-19.5 135zM443 661q-84 0 -140 -28t-89 -71.5t-46.5 -96.5t-13.5 -104q0 -50 13 -103t46.5 -97.5t90 -73t143.5 -28.5q88 0 144 28.5
t88.5 73t45 97t12.5 100.5t-13 101.5t-46 98.5t-90 74t-145 29z" />
    <glyph glyph-name="R" unicode="R" horiz-adv-x="709" 
d="M196 292v-273q0 -12 -4.5 -15.5t-16.5 -3.5h-45q-13 0 -17 3.5t-4 15.5v684q0 12 4 15.5t17 3.5h156q150 0 229.5 -50t79.5 -163q0 -90 -47 -139.5t-126 -67.5q21 -10 38.5 -26t34 -39.5t34.5 -56t40 -74.5q13 -26 26 -32.5t34 -6.5q10 0 23 2t28 10q17 7 17 -8v-40
q0 -8 -4.5 -13.5t-16.5 -10.5q-16 -6 -33 -9t-32 -3q-19 0 -35.5 3t-32 12t-30 25.5t-27.5 43.5q-14 27 -30.5 64t-40 70t-56 56t-77.5 23h-86zM303 352q100 0 149.5 36.5t49.5 117.5q0 79 -52.5 112.5t-155.5 33.5h-98v-300h107z" />
    <glyph glyph-name="S" unicode="S" horiz-adv-x="619" 
d="M533 637q0 -7 -4 -10.5t-15 1.5q-29 11 -71 20.5t-113 9.5q-37 0 -68 -5t-53 -16.5t-34 -31t-12 -49.5q0 -34 17 -55t45 -35t64 -24t73.5 -21t73.5 -26.5t64 -40.5t45 -63t17 -94q0 -59 -20.5 -99t-57 -64t-86 -34t-106.5 -10q-48 0 -86.5 5t-67 12t-46 13t-23.5 9
q-9 4 -11 8.5t-2 12.5v45q0 18 17 10q14 -5 34.5 -12t47 -13.5t59.5 -11t72 -4.5q42 0 76.5 6t59 21t38.5 39.5t14 62.5q0 44 -17 72t-45 47t-63.5 30.5t-73 22t-73 23.5t-63.5 33t-45 51t-17 78q0 55 20 90.5t54 55.5t79.5 28t96.5 8q41 0 74.5 -4t58.5 -9.5t40.5 -10.5
t21.5 -7q9 -5 10 -8.5t1 -11.5v-44z" />
    <glyph glyph-name="T" unicode="T" horiz-adv-x="623" 
d="M355 19q0 -12 -4 -15.5t-17 -3.5h-45q-13 0 -17 3.5t-4 15.5v633h-219q-13 0 -17 4t-4 15v31q0 12 4 16t17 4h525q13 0 16.5 -4t3.5 -16v-31q0 -11 -3.5 -15t-16.5 -4h-219v-633v0z" />
    <glyph glyph-name="U" unicode="U" horiz-adv-x="787" 
d="M394 68q103 0 154 51.5t51 158.5v425q0 12 4 15.5t16 3.5h46q12 0 16.5 -3.5t4.5 -15.5v-434q0 -131 -70 -203.5t-222 -72.5t-222.5 72.5t-70.5 203.5v434q0 12 4.5 15.5t16.5 3.5h46q12 0 16.5 -3.5t4.5 -15.5v-425q0 -107 50.5 -158.5t154.5 -51.5z" />
    <glyph glyph-name="V" unicode="V" horiz-adv-x="682" 
d="M333 108l203 598q3 11 8 13.5t16 2.5h51q9 0 12.5 -4.5t-1.5 -18.5l-234 -684q-4 -10 -9.5 -12.5t-15.5 -2.5h-61q-10 0 -16 2.5t-9 12.5l-235 684q-5 14 -1 18.5t13 4.5h50q11 0 16.5 -2.5t8.5 -13.5z" />
    <glyph glyph-name="W" unicode="W" horiz-adv-x="1026" 
d="M538 722q9 0 14 -2.5t8 -13.5l163 -635l171 635q2 11 7.5 13.5t14.5 2.5h53q20 0 14 -21l-191 -683q-4 -12 -10 -15t-17 -3h-75q-13 0 -18 3t-8 15l-152 574l-152 -574q-3 -12 -8 -15t-19 -3h-74q-11 0 -17.5 3t-9.5 15l-191 683q-4 11 0.5 16t13.5 5h52q10 0 15 -2.5
t8 -13.5l171 -635l163 635q3 11 8 13.5t14 2.5h52v0z" />
    <glyph glyph-name="X" unicode="X" horiz-adv-x="670" 
d="M632 24q8 -11 6 -17.5t-16 -6.5h-53q-11 0 -17 3t-14 14l-204 289l-204 -289q-8 -11 -14.5 -14t-18.5 -3h-52q-12 0 -14.5 6.5t5.5 17.5l248 343l-241 328q-8 11 -8 19t14 8h53q11 0 17.5 -3t12.5 -12l202 -278l202 278q7 9 13 12t16 3h53q15 0 15.5 -8t-7.5 -19
l-241 -328z" />
    <glyph glyph-name="Y" unicode="Y" horiz-adv-x="660" 
d="M34 697q-15 25 9 25h56q12 0 16 -3t9 -13l205 -338l207 338q5 10 9 13t15 3h57q11 0 14 -6t-5 -19l-253 -411v-267q0 -12 -4.5 -15.5t-15.5 -3.5h-46q-12 0 -16.5 3.5t-4.5 15.5v268z" />
    <glyph glyph-name="Z" unicode="Z" horiz-adv-x="573" 
d="M76 652q-12 0 -15.5 4t-3.5 15v31q0 12 3.5 16t15.5 4h429q11 0 14 -4.5t3 -11.5v-36q0 -10 -3.5 -20t-8.5 -18l-363 -562h355q13 0 16 -4t3 -15v-31q0 -12 -3 -16t-16 -4h-440q-16 0 -16 17v34q0 17 10 30l364 571h-344v0z" />
    <glyph glyph-name="bracketleft" unicode="[" horiz-adv-x="317" 
d="M245 747q13 0 17.5 -4.5t4.5 -12.5v-23q0 -14 -4.5 -17.5t-15.5 -3.5h-75v-784h75q11 0 15.5 -4t4.5 -16v-24q0 -7 -4 -12t-18 -5h-125q-18 0 -25 7t-7 26v840q0 19 7 26t25 7h125z" />
    <glyph glyph-name="backslash" unicode="\" horiz-adv-x="466" 
d="M451 26q7 -15 4 -20.5t-15 -5.5h-43q-14 0 -18 3t-12 18l-321 671q-7 16 -5.5 23t17.5 7h46q9 0 14 -3.5t12 -18.5z" />
    <glyph glyph-name="bracketright" unicode="]" horiz-adv-x="317" 
d="M197 747q18 0 25 -7t7 -26v-840q0 -19 -7 -26t-25 -7h-117q-20 0 -25.5 5t-5.5 12v24q0 12 6 16t23 4h67v784h-67q-17 0 -23 3.5t-6 17.5v23q0 8 7 12.5t24 4.5h117z" />
    <glyph glyph-name="asciicircum" unicode="^" horiz-adv-x="592" 
d="M126 440q-6 -9 -10.5 -14.5t-10.5 -9t-14 -4.5t-22 -1q-21 0 -30 7t5 27l202 284q8 16 19.5 19t29.5 3v-82zM295 669v82q19 0 30 -3t20 -19l201 -284q14 -20 5 -27t-30 -7q-14 0 -22 1t-13.5 4.5t-10 9t-10.5 14.5z" />
    <glyph glyph-name="underscore" unicode="_" horiz-adv-x="927" 
d="M85 -80q-11 0 -14 11.5t-3 22.5q0 20 9.5 24.5t27.5 4.5h736q11 0 14 -12.5t3 -21.5q0 -15 -4 -22t-17 -7h-752z" />
    <glyph glyph-name="grave" unicode="`" horiz-adv-x="301" 
d="M270 636q-3 -6 -8.5 -7t-19.5 3l-193 52q-17 6 -10 23l16 37q4 9 9.5 10t16.5 -4l184 -76q11 -5 11.5 -9.5t-2.5 -12.5z" />
    <glyph glyph-name="a" unicode="a" horiz-adv-x="615" 
d="M507 109q0 -43 34 -43q14 0 22.5 1.5t16.5 3.5t12 0.5t4 -9.5v-39q0 -15 -14 -19q-14 -5 -27 -7t-38 -2q-15 0 -30.5 3t-28.5 11t-22 22.5t-12 37.5q-31 -35 -79 -55t-114 -20q-91 0 -136 37.5t-45 109.5q0 48 20.5 80.5t60.5 52t99.5 28t136.5 8.5h56v40q0 38 -11 61.5
t-31 37t-48.5 18t-63.5 4.5q-57 0 -96.5 -7t-62.5 -13q-9 -2 -14 0.5t-5 11.5v38q0 11 4 15.5t18 8.5q20 6 63.5 12.5t102.5 6.5q39 0 79.5 -5.5t73.5 -25t54 -57t21 -100.5v-247zM134 142q0 -77 110 -77q38 0 71 9.5t57 28t37.5 45.5t13.5 62v33h-56q-126 0 -179.5 -24
t-53.5 -77z" />
    <glyph glyph-name="b" unicode="b" horiz-adv-x="642" 
d="M87 744q0 12 4 15.5t17 3.5h43q11 0 15.5 -3.5t4.5 -15.5v-313q26 54 71 83.5t117 29.5q106 0 164 -66.5t58 -203.5q0 -55 -11.5 -107t-42 -92t-83 -64t-134.5 -24q-42 0 -76.5 4t-61.5 9.5t-45.5 11.5t-26.5 10q-9 4 -11 8.5t-2 12.5v701zM341 469q-74 0 -118.5 -50
t-52.5 -152v-187q34 -10 67 -14t67 -4q54 0 90 16.5t57.5 45t30.5 67t9 81.5q0 39 -7 74.5t-24 63t-46 43.5t-73 16z" />
    <glyph glyph-name="c" unicode="c" horiz-adv-x="557" 
d="M150 269q0 -103 47.5 -153t141.5 -50q46 0 81.5 9t56.5 16q12 4 18 2.5t6 -12.5v-39q0 -10 -3 -14.5t-11 -8.5q-16 -7 -56 -17t-100 -10q-71 0 -122 19t-84 54.5t-49 86.5t-16 115q0 65 16 116.5t49 87t84.5 54.5t122.5 19q58 0 97.5 -10t53.5 -16q11 -5 14.5 -9t3.5 -13
v-46q0 -7 -3 -10t-14 2q-17 6 -49.5 17t-89.5 11q-97 0 -146 -48.5t-49 -152.5z" />
    <glyph glyph-name="d" unicode="d" horiz-adv-x="646" 
d="M555 128q0 -16 4 -33l7 -77q3 -18 -12 -18h-52q-9 0 -13 3.5t-6 13.5l-9 72q-29 -52 -80 -77t-115 -25q-101 0 -159.5 63t-58.5 194q0 68 16.5 123.5t49.5 94.5t82 60.5t114 21.5q51 0 86 -11.5t63 -32.5v244q0 12 4 15.5t16 3.5h43q12 0 16 -3.5t4 -15.5v-616zM299 62
q73 0 117.5 48t55.5 150v168q-22 18 -58.5 29.5t-78.5 11.5q-52 0 -88 -19t-58 -50t-32 -71t-10 -83q0 -38 8 -71.5t26 -58.5t47 -39.5t71 -14.5z" />
    <glyph glyph-name="e" unicode="e" horiz-adv-x="612" 
d="M318 544q118 0 174 -47t56 -129q0 -46 -16.5 -78t-46.5 -52.5t-72.5 -30t-93.5 -9.5q-48 0 -92.5 7t-83.5 21q7 -90 58.5 -125.5t144.5 -35.5q48 0 86 6.5t67 17.5q20 7 27.5 10.5t14.5 3.5q9 0 9 -10v-45q0 -8 -4.5 -13t-18.5 -10q-21 -9 -68 -21t-116 -12
q-137 0 -210 65.5t-73 203.5q0 64 16.5 116.5t49 89.5t80.5 57t112 20zM318 472q-79 0 -123.5 -46.5t-51.5 -134.5q41 -13 85 -19t83 -6q80 0 118 26t38 78q0 53 -38.5 77.5t-110.5 24.5z" />
    <glyph glyph-name="f" unicode="f" horiz-adv-x="399" 
d="M52 462q-12 0 -15.5 2.5t-3.5 13.5v36q0 18 17 18h80v69q0 88 37.5 130t118.5 42q33 0 53 -4.5t29 -8.5t11 -7.5t2 -12.5v-40q0 -16 -18 -10q-11 5 -26.5 8t-37.5 3q-41 0 -63 -22t-22 -78v-69h141q11 0 14.5 -3t3.5 -11v-41q0 -15 -17 -15h-142v-443q0 -12 -4 -15.5
t-17 -3.5h-42q-12 0 -16.5 3.5t-4.5 15.5v443h-78z" />
    <glyph glyph-name="g" unicode="g" horiz-adv-x="643" 
d="M275 -178q44 0 80.5 9t62 30t39.5 54t14 81v94q-25 -49 -75.5 -76t-116.5 -27q-101 0 -160 63t-59 194q0 128 57 206t166 91q14 2 27.5 2.5t27.5 -0.5q46 -2 76.5 -13t56.5 -29v15q0 10 4.5 13t16.5 3h43q12 0 16 -3.5t4 -15.5v-522q0 -65 -20 -111.5t-56.5 -76
t-88.5 -43t-116 -13.5q-70 0 -114 9t-64 15q-14 6 -14 20v45q0 16 18 10q39 -11 81 -17.5t94 -6.5zM299 62q73 0 117 48t55 150v168q-22 18 -58.5 29.5t-78.5 11.5q-52 0 -87.5 -19t-57.5 -50t-32 -71t-10 -83q0 -38 8 -71.5t26 -58.5t47 -39.5t71 -14.5z" />
    <glyph glyph-name="h" unicode="h" horiz-adv-x="626" 
d="M88 744q0 12 4 15.5t17 3.5h43q11 0 15.5 -3.5t4.5 -15.5v-298q26 52 76.5 75t109.5 23q40 0 74 -11t58.5 -33.5t38 -57.5t13.5 -83v-340q0 -12 -4.5 -15.5t-16.5 -3.5h-43q-12 0 -16 3.5t-4 15.5v323q0 28 -6.5 51.5t-21.5 40.5t-38.5 26.5t-56.5 9.5q-76 0 -118.5 -53
t-44.5 -151v-247q0 -12 -4.5 -15.5t-15.5 -3.5h-43q-13 0 -17 3.5t-4 15.5v725v0z" />
    <glyph glyph-name="i" unicode="i" horiz-adv-x="260" 
d="M88 513q0 12 4 15.5t17 3.5h43q11 0 15.5 -3.5t4.5 -15.5v-494q0 -12 -4.5 -15.5t-15.5 -3.5h-43q-13 0 -17 3.5t-4 15.5v494zM75 697q0 27 16.5 43t40.5 16q23 0 38 -15t15 -40q0 -27 -17.5 -41.5t-41.5 -14.5q-21 0 -36 13.5t-15 38.5z" />
    <glyph glyph-name="j" unicode="j" horiz-adv-x="261" 
d="M-54 -183q0 15 17 10q11 -3 27.5 -6t30.5 -3q37 0 52 24.5t15 67.5v603q0 12 4 15.5t17 3.5h43q11 0 16 -3.5t5 -15.5v-619q0 -68 -34 -107.5t-108 -39.5q-29 0 -49 5t-25 7q-4 2 -7.5 5.5t-3.5 9.5v43zM75 697q0 27 17 43t41 16q22 0 37.5 -15t15.5 -40q0 -27 -18 -41.5
t-41 -14.5q-21 0 -36.5 13.5t-15.5 38.5z" />
    <glyph glyph-name="k" unicode="k" horiz-adv-x="560" 
d="M263 278l259 -255q10 -11 7 -17t-14 -6h-58q-12 0 -18 3.5t-12 9.5l-255 249v-243q0 -6 -1 -9q0 -2 -1 -3q-1 -4 -7 -6q-3 -1 -11 -1h-54q-1 0 -1.5 0.5t-1.5 0.5q-7 2 -7 18v725q0 9 1 12t4 4q2 2 5 2q3 1 11 1h49q2 0 2.5 -0.5t2.5 -0.5q1 -1 3 -1l3 -3q0 -2 2 -4
q1 -3 1 -10v-455l250 228q8 9 15.5 12t18.5 3h52q12 0 14.5 -7t-11.5 -21z" />
    <glyph glyph-name="l" unicode="l" horiz-adv-x="260" 
d="M172 19q0 -12 -4.5 -15.5t-15.5 -3.5h-43q-13 0 -17 3.5t-4 15.5v725q0 12 4 15.5t17 3.5h43q11 0 15.5 -3.5t4.5 -15.5v-725v0z" />
    <glyph glyph-name="m" unicode="m" horiz-adv-x="958" 
d="M790 355q0 51 -26.5 82.5t-86.5 31.5q-78 0 -116 -48.5t-38 -138.5v-263q0 -12 -4.5 -15.5t-16.5 -3.5h-43q-12 0 -16 3.5t-4 15.5v336q0 51 -26 82.5t-86 31.5q-79 0 -117 -48.5t-38 -138.5v-263q0 -12 -4.5 -15.5t-16.5 -3.5h-42q-13 0 -17 3.5t-4 15.5v494q0 11 4 15
t17 4h42q12 0 16.5 -4t4.5 -15v-58q25 47 71 68t106 21q58 0 100.5 -23.5t60.5 -74.5q26 51 75 74.5t115 23.5q38 0 70 -10.5t55 -32t36 -54.5t13 -78v-350q0 -12 -4.5 -15.5t-16.5 -3.5h-43q-12 0 -16 3.5t-4 15.5v336v0z" />
    <glyph glyph-name="n" unicode="n" horiz-adv-x="626" 
d="M335 470q-78 0 -120.5 -55.5t-42.5 -158.5v-237q0 -12 -4.5 -15.5t-15.5 -3.5h-43q-13 0 -17 3.5t-4 15.5v494q0 11 4 15t17 4h43q20 0 20 -19v-67q26 52 76.5 75t109.5 23q40 0 74 -11t58.5 -33.5t38 -57.5t13.5 -83v-340q0 -12 -4.5 -15.5t-16.5 -3.5h-43
q-12 0 -16 3.5t-4 15.5v323q0 28 -6.5 51.5t-21.5 40.5t-38.5 26.5t-56.5 9.5z" />
    <glyph glyph-name="o" unicode="o" horiz-adv-x="641" 
d="M60 266q0 58 14 109t45.5 88.5t80.5 59t120 21.5q70 0 119.5 -21.5t80.5 -59t45.5 -88.5t14.5 -109t-14.5 -109t-45.5 -88.5t-80.5 -59.5t-119.5 -22q-71 0 -120 22t-80.5 59.5t-45.5 88.5t-14 109zM320 469q-47 0 -79.5 -14.5t-53 -41t-30 -64t-9.5 -83.5t9.5 -83.5
t30 -64.5t53 -41.5t79.5 -14.5t80 14.5t53.5 41.5t30 64.5t9.5 83.5t-9.5 83.5t-30 64t-53.5 41t-80 14.5z" />
    <glyph glyph-name="p" unicode="p" horiz-adv-x="644" 
d="M109 -249q-13 0 -17 3.5t-4 15.5v743q0 11 4 15t17 4h43q20 0 20 -19v-84q29 63 81 88.5t115 25.5q105 0 159.5 -64.5t54.5 -204.5q0 -141 -65 -214t-186 -73q-51 0 -88 9.5t-71 25.5v-252q0 -12 -4.5 -15.5t-15.5 -3.5h-43zM349 469q-155 0 -177 -199v-171
q24 -17 64 -27.5t84 -10.5q49 0 82.5 16t54.5 44.5t30 67.5t9 85q0 39 -6 74.5t-22.5 62t-45 42.5t-73.5 16z" />
    <glyph glyph-name="q" unicode="q" horiz-adv-x="643" 
d="M472 95q-23 -51 -74 -79.5t-119 -28.5q-101 0 -159.5 63t-58.5 194q0 68 16.5 123.5t49.5 94.5t82 60.5t114 21.5q51 0 85.5 -11t63.5 -31v14q0 10 4 13t16 3h43q12 0 16 -3.5t4 -15.5v-743q0 -12 -4 -15.5t-16 -3.5h-43q-12 0 -16 3.5t-4 15.5v325zM299 62
q73 0 117.5 48t55.5 150v168q-22 18 -58.5 29.5t-78.5 11.5q-52 0 -88 -19t-58 -50t-32 -71t-10 -83q0 -38 8 -71.5t26 -58.5t47 -39.5t71 -14.5z" />
    <glyph glyph-name="r" unicode="r" horiz-adv-x="447" 
d="M88 513q0 12 4 15.5t17 3.5h43q11 0 15.5 -3.5t4.5 -15.5v-115q6 19 17.5 44t33 47.5t53.5 38.5t79 16q20 0 33 -2t22 -5q11 -4 13 -9t2 -11v-47q0 -13 -15 -9q-27 8 -55 8q-49 0 -83.5 -24t-56.5 -60t-32.5 -77t-10.5 -74v-215q0 -12 -4.5 -15.5t-15.5 -3.5h-43
q-13 0 -17 3.5t-4 15.5v494v0z" />
    <glyph glyph-name="s" unicode="s" horiz-adv-x="540" 
d="M463 463q0 -10 -5 -11.5t-14 0.5q-6 1 -21 4.5t-36 7.5t-46 6.5t-52 2.5q-75 0 -104 -22t-29 -54q0 -26 14 -41t37 -24t52.5 -14t60.5 -11t60.5 -15t52.5 -26t37 -44.5t14 -69.5q0 -86 -59 -122.5t-168 -36.5q-32 0 -62 2.5t-55.5 6t-45.5 8t-30 7.5q-8 2 -10 5t-2 10v48
q0 8 3.5 9t10.5 -1q29 -6 79 -15t109 -9q146 0 146 84q0 37 -24.5 55t-60.5 27.5t-79 16.5t-79 22.5t-60.5 44t-24.5 82.5q0 71 50.5 109.5t164.5 38.5q58 0 101 -7t59 -12q8 -2 12 -5.5t4 -13.5v-43z" />
    <glyph glyph-name="t" unicode="t" horiz-adv-x="409" 
d="M122 532l25 139q2 10 9.5 13t23.5 3q18 0 21.5 -3t3.5 -13v-139h141q11 0 15 -2.5t4 -10.5v-42q0 -15 -18 -15h-142v-279q0 -39 6.5 -62.5t18 -36t28 -16.5t36.5 -4q42 0 73 11q18 7 18 -10v-38q0 -13 -17 -20q-20 -8 -43.5 -10.5t-48.5 -2.5q-32 0 -60 6.5t-49 25
t-33.5 50.5t-12.5 83v303h-70q-12 0 -15.5 2.5t-3.5 13.5v36q0 18 16 18h74z" />
    <glyph glyph-name="u" unicode="u" horiz-adv-x="631" 
d="M168 175q0 -49 26.5 -81t91.5 -32q85 0 128 48.5t43 136.5v266q0 11 4 15t16 4h44q20 0 20 -19v-398q0 -11 3 -24l7 -72q2 -11 -1.5 -15t-12.5 -4h-50q-9 0 -12.5 3.5t-5.5 13.5l-8 54q-31 -45 -79.5 -63t-116.5 -18q-89 0 -135 40t-46 141v342q0 11 4 15t17 4h43
q20 0 20 -19v-338v0z" />
    <glyph glyph-name="v" unicode="v" horiz-adv-x="573" 
d="M445 513q4 12 8.5 15.5t17.5 3.5h48q20 0 13 -20l-189 -498q-5 -14 -21 -14h-70q-9 0 -13.5 3t-8.5 11l-189 498q-6 20 14 20h48q13 0 17 -3.5t8 -15.5l159 -433z" />
    <glyph glyph-name="w" unicode="w" horiz-adv-x="902" 
d="M262 70l137 443q4 12 7.5 15.5t14.5 3.5h60q11 0 14.5 -3.5t7.5 -15.5l137 -443l128 445q2 10 5.5 13.5t12.5 3.5h59q19 0 14 -17l-163 -501q-3 -8 -7.5 -11t-15.5 -3h-63q-14 0 -18 3t-7 12l-134 406l-135 -406q-3 -9 -7 -12t-18 -3h-62q-11 0 -16 3t-7 12l-164 499
q-2 11 2 14.5t13 3.5h59q9 0 12 -3.5t5 -12.5z" />
    <glyph glyph-name="x" unicode="x" horiz-adv-x="553" 
d="M512 21q16 -21 -8 -21h-55q-11 0 -17 2.5t-14 14.5l-142 198l-142 -198q-8 -12 -14 -14.5t-17 -2.5h-52q-11 0 -13.5 6t3.5 15l185 250l-179 237q-8 11 -5.5 17.5t13.5 6.5h55q9 0 15 -2.5t11 -10.5l140 -190l141 190q5 8 11 10.5t15 2.5h56q12 0 13 -7t-7 -17l-178 -237
z" />
    <glyph glyph-name="y" unicode="y" horiz-adv-x="605" 
d="M56 -179q0 13 17 8q12 -4 23.5 -6t29.5 -2q21 0 38 5t31.5 16.5t27 31t24.5 48.5l19 49l-229 540q-9 21 13 21h53q11 0 14.5 -3.5t8.5 -13.5l181 -438l171 438q4 11 8.5 14t15.5 3h49q11 0 15 -5.5t-2 -19.5l-245 -614q-18 -45 -38.5 -73.5t-42.5 -44.5t-46.5 -22
t-50.5 -6q-23 0 -41.5 3t-30.5 7q-13 4 -13 18v46z" />
    <glyph glyph-name="z" unicode="z" horiz-adv-x="537" 
d="M463 532q10 0 12.5 -4.5t2.5 -10.5v-27q0 -11 -5 -20t-22 -30l-303 -370h324q17 0 17 -16v-41q0 -8 -6 -10.5t-17 -2.5h-404q-9 0 -12 3.5t-3 11.5v28q0 21 11 33l313 386h-294q-16 0 -16 17v39q0 14 16 14h386z" />
    <glyph glyph-name="braceleft" unicode="{" horiz-adv-x="382" 
d="M49 309h92v-1q24 -5 39.5 -16.5t24 -27t11.5 -34t3 -39.5v-166q0 -30 10 -48t25 -27t31.5 -11.5t29.5 -2.5q11 0 14.5 -2.5t3.5 -11.5v-23q0 -8 -4 -11.5t-15 -3.5h-12q-40 0 -71 7t-52.5 23.5t-32.5 43.5t-11 68v154q0 36 -13.5 59t-58.5 34q-5 2 -9.5 3.5t-4.5 9.5v23z
M49 331q0 8 4.5 9.5t9.5 3.5q45 11 58.5 34.5t13.5 59.5v154q0 41 11 68t32.5 43.5t52.5 23.5t71 7h12q11 0 15 -3.5t4 -12.5v-22q0 -9 -3.5 -11.5t-14.5 -2.5q-13 0 -29.5 -2.5t-31.5 -11.5t-25 -27t-10 -48v-166q0 -21 -3 -39.5t-11.5 -34t-24 -27t-39.5 -16.5v-1h-92v22z
" />
    <glyph glyph-name="bar" unicode="|" horiz-adv-x="260" 
d="M172 -112q0 -10 -4.5 -15t-16.5 -6h-43q-12 0 -16 6t-4 14v833q0 11 4.5 16t16.5 6h43q11 0 15.5 -6t4.5 -15v-833v0z" />
    <glyph glyph-name="braceright" unicode="}" horiz-adv-x="382" 
d="M332 286q0 -8 -4.5 -9.5t-9.5 -3.5q-45 -11 -58 -34t-13 -59v-154q0 -41 -11 -68t-32.5 -43.5t-52.5 -23.5t-71 -7h-11q-12 0 -16 3.5t-4 11.5v23q0 9 4 11.5t15 2.5q13 0 29.5 2.5t31 11.5t24.5 27t10 48v166q0 21 3 39.5t11.5 34t24 27t39.5 16.5v1h91v-23zM332 309
h-91v1q-24 5 -39.5 16.5t-24 27t-11.5 34t-3 39.5v166q0 30 -10 48t-24.5 27t-31 11.5t-29.5 2.5q-11 0 -15 2.5t-4 11.5v22q0 9 4 12.5t16 3.5h11q40 0 71 -7t52.5 -23.5t32.5 -43.5t11 -68v-154q0 -36 13 -59.5t58 -34.5q5 -2 9.5 -3.5t4.5 -9.5v-22z" />
    <glyph glyph-name="asciitilde" unicode="~" horiz-adv-x="554" 
d="M363 302q63 0 66 52q1 10 14 10h42q7 0 9.5 -3t2.5 -14q0 -57 -34.5 -88.5t-103.5 -31.5q-25 0 -42.5 4t-29.5 11t-19 15t-12 16q-5 7 -9.5 13.5t-11 12t-17 8.5t-26.5 3q-32 0 -47.5 -14t-17.5 -38q-2 -7 -4 -9t-10 -2h-41q-8 0 -10.5 3t-2.5 15q0 55 34 87t100 32
q26 0 43.5 -5t29.5 -12.5t19.5 -16t12.5 -16.5q5 -7 10 -13t12 -10t17 -6.5t26 -2.5z" />
    <glyph glyph-name="uni00A0" unicode="&#xa0;" horiz-adv-x="287" 
 />
    <glyph glyph-name="exclamdown" unicode="&#xa1;" horiz-adv-x="276" 
d="M83 -141q0 27 2 53t5.5 55.5t7.5 65t7.5 81.5t5.5 105t2 136q0 6 4.5 10t19.5 4q16 0 20.5 -4t4.5 -10q0 -77 2 -136t5.5 -105t7.5 -81.5t7.5 -65t5.5 -55.5t2 -53q0 -33 -13 -48t-42 -15q-28 0 -41 15t-13 48zM76 474q0 26 18 43.5t42 17.5q23 0 39.5 -15.5t16.5 -41.5
t-18 -42t-43 -16q-23 0 -39 14.5t-16 39.5z" />
    <glyph glyph-name="cent" unicode="&#xa2;" horiz-adv-x="565" 
d="M488 426q-15 12 -31.5 22.5t-37 18t-45.5 12t-58 4.5q-49 0 -84.5 -16t-59 -45.5t-34.5 -70t-11 -89.5q0 -47 10.5 -85t34.5 -66t63 -43t96 -15q29 0 56.5 3t49.5 9q17 5 38.5 12t33.5 10q13 3 13 -9v-34q0 -11 -3 -15t-17 -10q-59 -25 -136 -31v-46q0 -10 -4.5 -15
t-16.5 -6h-43q-12 0 -16 6t-4 14v48q-68 6 -114 28t-74.5 58t-41 84t-12.5 104q0 118 61 193.5t181 85.5v58q0 11 4.5 16t16.5 6h43q12 0 16 -6t4 -15v-60q40 -4 73.5 -15t56.5 -29q14 -11 14 -26v-40q0 -9 -7 -10.5t-15 5.5z" />
    <glyph glyph-name="sterling" unicode="&#xa3;" horiz-adv-x="644" 
d="M250 282q8 -27 8 -54q0 -53 -23 -93.5t-63 -64.5h417q12 0 16 -4t4 -15v-31q0 -12 -4 -16t-16 -4h-514q-14 0 -17.5 3t-3.5 13v39q0 8 3.5 11.5t14.5 3.5h5q45 16 72 49.5t27 93.5q0 19 -4 36t-11 33h-102q-14 0 -14 13v37q0 12 13 12h68q-20 32 -36.5 68.5t-16.5 87.5
q0 114 67.5 172t182.5 60q77 0 128 -20.5t85 -45.5q5 -3 9.5 -9t4.5 -18v-40q0 -13 -8 -12t-12 5q-38 32 -89 53.5t-118 21.5q-35 -1 -64 -10.5t-50 -29t-32.5 -49.5t-11.5 -72q0 -24 5.5 -45t14.5 -40.5t19.5 -38.5t20.5 -38h186q13 0 13 -12v-37q0 -13 -14 -13h-160z" />
    <glyph glyph-name="currency" unicode="&#xa4;" horiz-adv-x="664" 
d="M340 156q-54 0 -96.5 13t-73.5 37l-52 -48q-16 -13 -32 -1l-30 31q-9 8 -7 15t8 13l58 53q-28 52 -28 118q0 82 42 139l-57 53q-8 8 -8.5 14.5t7.5 14.5l30 31q8 8 15.5 6t14.5 -7l60 -57q60 34 149 34q77 0 132 -26l62 57q8 7 15 8t15 -7l32 -31q13 -13 -2 -27l-55 -51
q26 -29 39 -67t13 -83q0 -80 -39 -137l51 -46q14 -14 1 -29l-31 -31q-8 -8 -15.5 -6.5t-13.5 7.5l-52 48q-29 -18 -67 -28t-85 -10zM522 394q0 34 -13 64t-36.5 52t-57 34.5t-75.5 12.5t-75.5 -12.5t-57.5 -34.5t-36.5 -52t-12.5 -65q0 -82 47.5 -130.5t134.5 -48.5
t134.5 49t47.5 131z" />
    <glyph glyph-name="yen" unicode="&#xa5;" horiz-adv-x="638" 
d="M362 182v-163q0 -12 -4.5 -15.5t-15.5 -3.5h-46q-12 0 -16.5 3.5t-4.5 15.5v163h-162q-14 0 -14 12v37q0 12 13 12h163v28h-162q-14 0 -14 12v37q0 12 13 12h135l-224 365q-15 25 9 25h56q12 0 16 -3t9 -13l205 -338l207 338q5 10 9 13t15 3h57q11 0 14 -6t-5 -19
l-225 -365h140q13 0 13 -12v-37q0 -12 -15 -12h-166v-28h168q13 0 13 -12v-37q0 -12 -15 -12h-166z" />
    <glyph glyph-name="brokenbar" unicode="&#xa6;" horiz-adv-x="272" 
d="M93 720q0 11 4.5 16t17.5 6h43q11 0 15 -6t4 -15v-329q0 -10 -4.5 -15t-16.5 -6h-43q-12 0 -16 6t-4 14v329zM177 -138q0 -10 -4.5 -15t-16.5 -6h-43q-12 0 -16 6t-4 14v319q0 11 4.5 16t17.5 6h43q11 0 15 -6t4 -15v-319z" />
    <glyph glyph-name="section" unicode="&#xa7;" horiz-adv-x="520" 
d="M445 661q0 -8 -5.5 -8.5t-10.5 1.5q-31 10 -74.5 19t-88.5 9q-52 0 -82 -17.5t-30 -55.5q0 -29 24 -44.5t60.5 -26.5t79 -21t79 -25.5t60.5 -41.5t24 -69q0 -54 -25 -88t-60 -52q29 -16 47.5 -39.5t18.5 -60.5q0 -41 -17.5 -70.5t-47.5 -48t-70.5 -27.5t-86.5 -9
q-66 0 -112.5 14t-75.5 30q-3 2 -6.5 4.5t-3.5 10.5v29q0 11 4.5 12t8.5 -1q13 -5 34.5 -12.5t46.5 -14.5t53 -12t55 -5t51.5 5t43 16t29.5 27.5t11 40.5q0 30 -24 46.5t-60 27t-77.5 19.5t-77.5 24.5t-60 41t-24 69.5q0 52 26.5 85t74.5 47q-36 16 -59.5 41t-23.5 68
q0 71 53 104.5t142 33.5q51 0 95.5 -10t67.5 -19q13 -5 13 -20v-27zM397 371q0 23 -15.5 37.5t-41.5 25.5q-23 8 -47 11.5t-44 3.5q-53 0 -83 -19.5t-30 -61.5q0 -23 14 -37.5t36.5 -24t51.5 -17t59 -14.5h3q13 0 30 4t32 15t25 29.5t10 47.5z" />
    <glyph glyph-name="dieresis" unicode="&#xa8;" horiz-adv-x="575" 
d="M44 660q0 25 17 41.5t40 16.5t39 -14.5t16 -40.5q0 -24 -17.5 -39.5t-40.5 -15.5t-38.5 14t-15.5 38zM224 660q0 25 17.5 41.5t40.5 16.5q22 0 38 -14.5t16 -40.5q0 -24 -18 -39.5t-41 -15.5t-38 14t-15 38z" />
    <glyph glyph-name="copyright" unicode="&#xa9;" horiz-adv-x="899" 
d="M450 -13q-103 0 -180 29t-128.5 80t-77 120t-25.5 149q0 79 27 147.5t79.5 118t129.5 78t176 28.5q100 0 176.5 -28.5t128.5 -78t78.5 -117.5t26.5 -147q0 -80 -25.5 -149.5t-77 -120.5t-128.5 -80t-180 -29zM793 370q0 71 -24 129.5t-69 100t-108 64t-141 22.5
t-141.5 -22.5t-108.5 -64t-69.5 -100t-24.5 -130.5q0 -74 23.5 -134.5t68 -104.5t108.5 -68t144 -24q79 0 142.5 24t108 68t68 105t23.5 135zM601 473q-17 11 -52.5 22t-73.5 11q-40 0 -69.5 -11.5t-49 -31t-29 -44.5t-9.5 -53q0 -27 9 -51t28.5 -41.5t50.5 -27.5t76 -10
q40 0 73.5 8.5t64.5 19.5q12 4 12 -8v-26q0 -5 -3.5 -11t-13.5 -11q-62 -28 -145 -28q-58 0 -100.5 14t-70.5 38t-41.5 57t-13.5 72q0 43 14.5 79.5t43 63.5t72 42.5t101.5 15.5q42 0 75.5 -8.5t56.5 -23.5q9 -6 10.5 -10.5t1.5 -10.5v-29q0 -8 -5 -9.5t-13 2.5z" />
    <glyph glyph-name="ordfeminine" unicode="&#xaa;" horiz-adv-x="502" 
d="M389 399q-22 0 -41 10t-28 36q-17 -20 -47 -33t-75 -13q-66 0 -100.5 28.5t-34.5 81.5q0 31 17.5 53t50.5 36.5t79.5 21t103.5 6.5v15q0 31 -20.5 47t-54.5 16q-40 0 -77.5 -8.5t-61.5 -19.5q-3 -2 -7.5 -1.5t-4.5 8.5v26q0 10 8 14q21 8 56.5 18.5t85.5 10.5
q33 0 59 -5.5t44 -20t28 -39t10 -62.5v-150q1 -11 8 -17.5t18 -6.5q6 0 11.5 2.5t14.5 6.5q12 7 12 -12v-21q0 -8 -3 -11t-11 -8q-9 -4 -16 -6.5t-24 -2.5zM128 508q0 -30 20.5 -43t53.5 -13q53 0 82.5 26.5t29.5 74.5v27q-91 0 -138.5 -17t-47.5 -55z" />
    <glyph glyph-name="guillemotleft" unicode="&#xab;" horiz-adv-x="850" 
d="M440 69q8 -5 14 -11t6 -14q0 -9 -6.5 -13t-15.5 -4h-43q-6 0 -13 2t-16 8l-287 185q-21 14 -28 24.5t-7 30.5t7 30.5t28 24.5l287 185q9 6 16 8t13 2h43q8 0 15 -4t7 -13q0 -8 -6 -14t-14 -11l-322 -208zM770 69q8 -5 14 -11t6 -14q0 -9 -6.5 -13t-15.5 -4h-43
q-6 0 -13 2t-16 8l-287 185q-21 14 -28 24.5t-7 30.5t7 30.5t28 24.5l287 185q9 6 16 8t13 2h43q8 0 15 -4t7 -13q0 -8 -6 -14t-14 -11l-322 -208z" />
    <glyph glyph-name="logicalnot" unicode="&#xac;" horiz-adv-x="613" 
d="M524 439q14 0 21 -7.5t7 -17.5v-230q0 -9 -7 -15.5t-16 -6.5h-40q-9 0 -16.5 6.5t-7.5 15.5v176h-382q-11 0 -20 5.5t-9 19.5v29q0 14 9 19.5t20 5.5h441z" />
    <glyph glyph-name="uni00AD" unicode="&#xad;" horiz-adv-x="485" 
d="M386 357q11 0 13.5 -4t2.5 -12v-42q0 -10 -3 -13t-14 -3h-285q-11 0 -14.5 3t-3.5 13v42q0 9 3.5 12.5t14.5 3.5h286z" />
    <glyph glyph-name="registered" unicode="&#xae;" horiz-adv-x="899" 
d="M450 -13q-103 0 -180 29t-128.5 80t-77 120t-25.5 149q0 79 27 147.5t79.5 118t129.5 78t176 28.5q100 0 176.5 -28.5t128.5 -78t78.5 -117.5t26.5 -147q0 -80 -25.5 -149.5t-77 -120.5t-128.5 -80t-180 -29zM793 370q0 71 -24 129.5t-69 100t-108 64t-141 22.5
t-141.5 -22.5t-108.5 -64t-69.5 -100t-24.5 -130.5q0 -74 23.5 -134.5t68 -104.5t108.5 -68t144 -24q79 0 142.5 24t108 68t68 105t23.5 135zM318 548q0 11 3.5 14.5t13.5 4.5h69q53 0 91.5 -4.5t64 -17.5t38 -35.5t12.5 -58.5q0 -45 -24.5 -72.5t-66.5 -38.5q21 -12 39 -36
t34 -68q4 -11 12 -14.5t16 -3.5q5 0 10.5 0.5t14.5 4.5q3 2 6 0t3 -10v-22q0 -14 -15 -19.5t-32 -5.5q-9 0 -19.5 1.5t-20.5 6t-18.5 14t-12.5 24.5q-6 16 -16 36.5t-24 38.5t-32.5 30.5t-41.5 14.5h-41v-141q0 -12 -4.5 -15.5t-16.5 -3.5h-21q-12 0 -16.5 3.5t-4.5 15.5
v357zM419 375q65 0 94.5 17.5t29.5 58.5t-28.5 56.5t-88.5 15.5h-45v-148h38z" />
    <glyph glyph-name="macron" unicode="&#xaf;" horiz-adv-x="346" 
d="M39 640q-12 0 -16.5 10t-4.5 33q0 15 6 19t14 4h252q14 0 17 -11.5t3 -28.5q0 -26 -14 -26h-257z" />
    <glyph glyph-name="degree" unicode="&#xb0;" horiz-adv-x="466" 
d="M233 431q-39 0 -71 12t-54.5 33.5t-34.5 50.5t-12 63t12.5 62.5t35 49.5t54.5 33t71 12t71 -12t54 -33t34 -49.5t12 -61.5q0 -35 -12.5 -64t-35 -50.5t-54 -33.5t-70.5 -12zM348 590q0 51 -30 81t-84 30t-84 -30t-30 -81t30 -82.5t84 -31.5q52 0 83 32t31 82z" />
    <glyph glyph-name="plusminus" unicode="&#xb1;" horiz-adv-x="552" 
d="M310 368h169q22 0 26.5 -11.5t4.5 -20.5q0 -15 -7 -22.5t-28 -7.5h-165v-153q0 -20 -11.5 -25t-22.5 -5q-20 0 -26.5 11.5t-6.5 31.5v140h-160q-22 0 -27.5 11.5t-5.5 22.5q0 20 11.5 24t32.5 4h149v144q0 18 12.5 23.5t23.5 5.5q16 0 23.5 -6.5t7.5 -26.5v-140zM64 -12
q-14 0 -14 12v50q0 11 13 11h412q13 0 13 -11v-50q0 -12 -14 -12h-410z" />
    <glyph glyph-name="uni00B2" unicode="&#xb2;" horiz-adv-x="353" 
d="M250 711q0 27 -18 45.5t-63 18.5q-32 0 -64 -6.5t-61 -18.5q-5 -2 -9 -0.5t-4 9.5v24q0 11 8 13q20 11 53.5 18.5t81.5 7.5q37 0 64.5 -8.5t46 -23.5t27.5 -34.5t9 -41.5q0 -34 -20 -65t-55 -62l-136 -123h198q16 0 16 -12v-20q0 -7 -3 -9.5t-14 -2.5h-267
q-8 0 -10.5 2.5t-2.5 10.5v16q0 10 6 17.5t17 17.5l154 139q20 18 33 40t13 48z" />
    <glyph glyph-name="uni00B3" unicode="&#xb3;" horiz-adv-x="356" 
d="M150 464q50 0 77 17.5t27 51.5q0 20 -8 33.5t-21 21.5t-30 11.5t-35 3.5h-18q-8 0 -10 2t-2 9v31q0 6 2.5 7.5t9.5 1.5h17q36 0 56.5 14.5t20.5 46.5q0 27 -16.5 43.5t-55.5 16.5q-31 0 -58.5 -7t-56.5 -17q-2 -1 -5.5 -0.5t-3.5 6.5v28q0 6 3 8.5t5 4.5q24 11 50.5 18
t68.5 7q67 0 102 -28t35 -76q0 -24 -7.5 -40.5t-18.5 -26.5t-24 -15.5t-25 -6.5q41 -4 70 -27.5t29 -71.5q0 -60 -46.5 -89t-120.5 -29q-46 0 -79.5 5.5t-48.5 11.5q-7 3 -7 12v32q0 8 6 8q4 0 8.5 -1.5t9.5 -3.5q14 -4 39.5 -8.5t60.5 -4.5z" />
    <glyph glyph-name="acute" unicode="&#xb4;" horiz-adv-x="306" 
d="M36 659q-6 16 5 21l176 82q8 5 14.5 4.5t11.5 -10.5l16 -34q5 -11 3.5 -15.5t-12.5 -8.5l-183 -63q-17 -6 -22 6z" />
    <glyph glyph-name="mu" unicode="&#xb5;" horiz-adv-x="643" 
d="M520 109q0 -43 34 -43q14 0 22.5 1.5t17.5 3.5q8 2 11.5 0.5t3.5 -9.5v-39q0 -7 -2.5 -12t-11.5 -7q-14 -5 -27 -7t-39 -2q-14 0 -29 3t-27.5 10.5t-22 21t-12.5 34.5q-63 -75 -194 -75q-29 0 -53 4t-44 12v-213q0 -5 -1 -7.5t-8 -2.5h-65q-10 0 -10 9v716q0 11 4 15
t17 4h43q20 0 20 -19v-336q0 -49 26.5 -81t91.5 -32q85 0 128 50t43 139v260q0 11 4 15t16 4h43q12 0 16.5 -4t4.5 -15v-398v0z" />
    <glyph glyph-name="paragraph" unicode="&#xb6;" horiz-adv-x="533" 
d="M222 358q-40 0 -74.5 12.5t-60 35t-40.5 54.5t-15 73t14 75.5t39 59.5t60 39t77 15h214q22 0 22 -22v-784q0 -8 -3 -12.5t-16 -4.5h-31q-12 0 -16 3t-4 13v746h-96v-745q0 -8 -2 -12.5t-15 -4.5h-34q-14 0 -16.5 4t-2.5 13v442z" />
    <glyph glyph-name="periodcentered" unicode="&#xb7;" horiz-adv-x="284" 
d="M79 261q0 27 17.5 44t41.5 17q23 0 39.5 -15t16.5 -41q0 -27 -18 -43t-43 -16q-23 0 -38.5 14.5t-15.5 39.5z" />
    <glyph glyph-name="cedilla" unicode="&#xb8;" horiz-adv-x="319" 
d="M111 9l53 -1l-23 -45q24 2 45 -0.5t37 -11.5t25.5 -25t9.5 -40q0 -47 -36.5 -68.5t-102.5 -21.5q-6 0 -16.5 0.5t-21.5 1t-20.5 1t-15.5 1.5q-8 2 -8 13v22q0 9 2 10.5t8 0.5q17 -2 37 -3t31 -1q42 0 60 11.5t18 31.5q0 23 -15.5 30.5t-38.5 7.5q-15 0 -32.5 -2t-25.5 -2
q-16 0 -10 12z" />
    <glyph glyph-name="uni00B9" unicode="&#xb9;" horiz-adv-x="193" 
d="M76 745q0 8 -2 10t-13 -1l-40 -11q-12 -3 -12 7v29q0 8 13 12l84 25q7 2 13 3t11 1q13 0 13 -16v-365q0 -12 -4 -15.5t-16 -3.5h-26q-12 0 -16.5 3.5t-4.5 15.5v306v0z" />
    <glyph glyph-name="ordmasculine" unicode="&#xba;" horiz-adv-x="462" 
d="M64 537q0 36 9 69t29.5 58.5t52 40.5t76.5 15t76.5 -15t51.5 -40.5t29.5 -58.5t9.5 -69t-9.5 -69.5t-29.5 -58.5t-51.5 -40t-76.5 -15t-76.5 15t-52 40t-29.5 58.5t-9 69.5zM231 666q-55 0 -79 -36.5t-24 -93.5q0 -54 24 -90.5t79 -36.5t78.5 36.5t23.5 90.5
q0 57 -23.5 93.5t-78.5 36.5z" />
    <glyph glyph-name="guillemotright" unicode="&#xbb;" horiz-adv-x="849" 
d="M401 277l-321 208q-8 5 -14 11t-6 14q0 9 6.5 13t15.5 4h42q6 0 13.5 -2t16.5 -8l287 -185q21 -14 28 -24.5t7 -30.5t-7 -30.5t-28 -24.5l-287 -185q-9 -6 -16.5 -8t-13.5 -2h-42q-9 0 -15.5 4t-6.5 13q0 8 6 14t14 11zM731 277l-321 208q-8 5 -14 11t-6 14q0 9 6.5 13
t15.5 4h42q6 0 13.5 -2t16.5 -8l287 -185q21 -14 28 -24.5t7 -30.5t-7 -30.5t-28 -24.5l-287 -185q-9 -6 -16.5 -8t-13.5 -2h-42q-9 0 -15.5 4t-6.5 13q0 8 6 14t14 11z" />
    <glyph glyph-name="onequarter" unicode="&#xbc;" horiz-adv-x="704" 
d="M573 733q8 11 13.5 14t14.5 1q8 0 21 -7.5t15 -19.5q4 -6 0.5 -14t-10.5 -16l-517 -675q-15 -20 -34 -14q-9 2 -18.5 9t-10.5 19q-3 6 0 14t8 13zM553 390q8 9 18 9h48q8 0 10.5 -4.5t-5.5 -13.5l-203 -252h114v70q0 4 1.5 6t7.5 2h49q6 0 7.5 -2t1.5 -6v-70h46
q8 0 10.5 -1.5t2.5 -7.5v-25q0 -9 -12 -9h-47v-76q0 -4 -1.5 -6t-8.5 -2h-49q-6 0 -7 2t-1 6v76h-181q-9 0 -11.5 1.5t-2.5 9.5v19q0 8 3 11zM125 745q0 8 -2 10t-13 -1l-40 -11q-12 -3 -12 7v29q0 8 13 12l84 25q7 2 13 3t11 1q13 0 13 -16v-365q0 -12 -4 -15.5t-16 -3.5
h-26q-12 0 -16.5 3.5t-4.5 15.5v306z" />
    <glyph glyph-name="onehalf" unicode="&#xbd;" horiz-adv-x="774" 
d="M125 745q0 8 -2 10t-13 -1l-40 -11q-12 -3 -12 7v29q0 8 13 12l84 25q7 2 13 3t11 1q13 0 13 -16v-365q0 -12 -4 -15.5t-16 -3.5h-26q-12 0 -16.5 3.5t-4.5 15.5v306zM659 291q0 27 -18 45.5t-63 18.5q-32 0 -64 -6.5t-61 -18.5q-5 -2 -9 -0.5t-4 9.5v24q0 11 8 13
q20 11 53.5 18.5t81.5 7.5q37 0 64.5 -8.5t46 -23.5t27.5 -34.5t9 -41.5q0 -34 -20 -65t-55 -62l-136 -123h198q16 0 16 -12v-20q0 -7 -3 -9.5t-14 -2.5h-267q-8 0 -10.5 2.5t-2.5 10.5v16q0 10 6 17.5t17 17.5l154 139q20 18 33 40t13 48zM573 733q8 11 13.5 14t14.5 1
q8 0 21 -7.5t15 -19.5q4 -6 0.5 -14t-10.5 -16l-517 -675q-15 -20 -34 -14q-9 2 -18.5 9t-10.5 19q-3 6 0 14t8 13z" />
    <glyph glyph-name="threequarters" unicode="&#xbe;" horiz-adv-x="798" 
d="M652 733q8 11 13.5 14t14.5 1q8 0 21 -7.5t15 -19.5q4 -6 0.5 -14t-10.5 -16l-517 -675q-15 -20 -34 -14q-9 2 -18.5 9t-10.5 19q-3 6 0 14t8 13zM654 388q8 9 18 9h48q8 0 10.5 -4.5t-5.5 -13.5l-203 -252h114v70q0 4 1.5 6t7.5 2h49q6 0 7.5 -2t1.5 -6v-70h46
q8 0 10.5 -1.5t2.5 -7.5v-25q0 -9 -12 -9h-47v-76q0 -4 -1.5 -6t-8.5 -2h-49q-6 0 -7 2t-1 6v76h-181q-9 0 -11.5 1.5t-2.5 9.5v19q0 8 3 11zM163 464q50 0 77 17.5t27 51.5q0 20 -8 33.5t-21 21.5t-30 11.5t-35 3.5h-18q-8 0 -10 2t-2 9v31q0 6 2.5 7.5t9.5 1.5h17
q36 0 56.5 14.5t20.5 46.5q0 27 -16.5 43.5t-55.5 16.5q-31 0 -58.5 -7t-56.5 -17q-2 -1 -5.5 -0.5t-3.5 6.5v28q0 6 3 8.5t5 4.5q24 11 50.5 18t68.5 7q67 0 102 -28t35 -76q0 -24 -7.5 -40.5t-18.5 -26.5t-24 -15.5t-25 -6.5q41 -4 70 -27.5t29 -71.5q0 -60 -46.5 -89
t-120.5 -29q-46 0 -79.5 5.5t-48.5 11.5q-7 3 -7 12v32q0 8 6 8q4 0 8.5 -1.5t9.5 -3.5q14 -4 39.5 -8.5t60.5 -4.5z" />
    <glyph glyph-name="questiondown" unicode="&#xbf;" horiz-adv-x="535" 
d="M237 479q0 26 19 42t42 16q24 0 42 -15.5t18 -41.5q0 -28 -19.5 -42.5t-43.5 -14.5t-41 14.5t-17 41.5zM122 -26q0 -26 9 -47.5t28.5 -37.5t51.5 -25t77 -9q52 0 103 10.5t94 29.5q19 8 19 -15v-35q0 -20 -14 -25q-30 -13 -84 -26t-129 -13q-127 0 -186.5 50t-59.5 137
q0 44 17 78.5t42 62.5t55 51.5t55 46.5t42 47t17 52v24q0 11 6.5 14t16.5 3h35q16 0 21.5 -7t5.5 -23v-21q0 -32 -16.5 -59t-41 -51t-53.5 -47t-53.5 -48t-41 -53.5t-16.5 -63.5z" />
    <glyph glyph-name="Agrave" unicode="&#xc0;" horiz-adv-x="706" 
d="M516 199h-328l-67 -183q-4 -11 -9.5 -13.5t-16.5 -2.5h-46q-11 0 -15.5 4t0.5 17l259 685q4 11 7.5 13.5t11.5 2.5h80q8 0 12.5 -2.5t8.5 -13.5l259 -685q5 -13 0.5 -17t-15.5 -4h-46q-12 0 -17.5 2.5t-9.5 13.5zM214 269h277l-139 375zM407 801q-3 -6 -8.5 -7t-19.5 3
l-193 52q-17 6 -10 23l16 37q4 9 9.5 10t16.5 -4l184 -76q11 -5 11.5 -9.5t-2.5 -12.5z" />
    <glyph glyph-name="Aacute" unicode="&#xc1;" horiz-adv-x="706" 
d="M516 199h-328l-67 -183q-4 -11 -9.5 -13.5t-16.5 -2.5h-46q-11 0 -15.5 4t0.5 17l259 685q4 11 7.5 13.5t11.5 2.5h80q8 0 12.5 -2.5t8.5 -13.5l259 -685q5 -13 0.5 -17t-15.5 -4h-46q-12 0 -17.5 2.5t-9.5 13.5zM214 269h277l-139 375zM297 820q-6 16 5 21l176 82
q8 5 14.5 4.5t11.5 -10.5l16 -34q5 -11 3.5 -15.5t-12.5 -8.5l-183 -63q-17 -6 -22 6z" />
    <glyph glyph-name="Acircumflex" unicode="&#xc2;" horiz-adv-x="706" 
d="M516 199h-328l-67 -183q-4 -11 -9.5 -13.5t-16.5 -2.5h-46q-11 0 -15.5 4t0.5 17l259 685q4 11 7.5 13.5t11.5 2.5h80q8 0 12.5 -2.5t8.5 -13.5l259 -685q5 -13 0.5 -17t-15.5 -4h-46q-12 0 -17.5 2.5t-9.5 13.5zM214 269h277l-139 375zM353 868l-78 -66
q-10 -8 -16 -10.5t-17 -2.5h-33q-13 0 -14 6t10 16l109 97q10 10 17 12t21 2q15 0 22 -2.5t18 -11.5l109 -97q11 -10 9 -16t-13 -6h-35q-9 0 -15 2.5t-15 10.5z" />
    <glyph glyph-name="Atilde" unicode="&#xc3;" horiz-adv-x="706" 
d="M516 199h-328l-67 -183q-4 -11 -9.5 -13.5t-16.5 -2.5h-46q-11 0 -15.5 4t0.5 17l259 685q4 11 7.5 13.5t11.5 2.5h80q8 0 12.5 -2.5t8.5 -13.5l259 -685q5 -13 0.5 -17t-15.5 -4h-46q-12 0 -17.5 2.5t-9.5 13.5zM214 269h277l-139 375zM404 853q14 0 24 8t11 23q1 4 3 6
t8 2h32q10 0 10 -10q0 -42 -23 -63.5t-62 -21.5q-33 0 -46.5 8t-20.5 17q-5 6 -11 12t-21 6q-14 0 -23.5 -8.5t-10.5 -22.5q-2 -5 -4 -7t-9 -2h-30q-11 0 -11 11q0 41 23.5 62.5t60.5 21.5q34 0 47 -9.5t19 -17.5q5 -7 12 -11t22 -4z" />
    <glyph glyph-name="Adieresis" unicode="&#xc4;" horiz-adv-x="706" 
d="M516 199h-328l-67 -183q-4 -11 -9.5 -13.5t-16.5 -2.5h-46q-11 0 -15.5 4t0.5 17l259 685q4 11 7.5 13.5t11.5 2.5h80q8 0 12.5 -2.5t8.5 -13.5l259 -685q5 -13 0.5 -17t-15.5 -4h-46q-12 0 -17.5 2.5t-9.5 13.5zM214 269h277l-139 375zM208 847q0 25 17 41.5t40 16.5
t39 -14.5t16 -40.5q0 -24 -17.5 -39.5t-40.5 -15.5t-38.5 14t-15.5 38zM388 847q0 25 17.5 41.5t40.5 16.5q22 0 38 -14.5t16 -40.5q0 -24 -18 -39.5t-41 -15.5t-38 14t-15 38z" />
    <glyph glyph-name="Aring" unicode="&#xc5;" horiz-adv-x="706" 
d="M516 199h-328l-67 -183q-4 -11 -9.5 -13.5t-16.5 -2.5h-46q-11 0 -15.5 4t0.5 17l259 685q4 11 7.5 13.5t11.5 2.5h80q8 0 12.5 -2.5t8.5 -13.5l259 -685q5 -13 0.5 -17t-15.5 -4h-46q-12 0 -17.5 2.5t-9.5 13.5zM214 269h277l-139 375zM351 787q-55 0 -88 23t-33 60
q0 38 32.5 60.5t88.5 22.5q55 0 89 -22.5t34 -60.5q0 -37 -34 -60t-89 -23zM351 827q23 0 40 11.5t17 31.5t-16.5 32t-40.5 12q-23 0 -39.5 -12t-16.5 -32t16.5 -31.5t39.5 -11.5z" />
    <glyph glyph-name="AE" unicode="&#xc6;" horiz-adv-x="968" 
d="M203 240l-98 -222q-4 -10 -9 -14t-16 -4h-50q-10 0 -16 3.5t-2 12.5l295 668q6 14 11 21.5t11 11.5t15.5 4.5t24.5 0.5h510q12 0 16 -4t4 -16v-31q0 -11 -4 -15t-16 -4h-337v-246h284q12 0 16 -4t4 -15v-31q0 -12 -4 -16t-16 -4h-284v-266h358q12 0 15.5 -4t3.5 -15v-31
q0 -12 -3.5 -16t-15.5 -4h-425q-12 0 -16 3.5t-4 15.5v221h-252zM455 659h-48q-8 0 -15.5 -4.5t-11.5 -14.5l-150 -338h225v357z" />
    <glyph glyph-name="Ccedilla" unicode="&#xc7;" horiz-adv-x="710" 
d="M157 352q0 -65 14.5 -118t48 -91t87 -59t131.5 -21q69 0 119 12.5t78 22.5q11 4 17 3.5t6 -12.5v-42q0 -7 -3 -12t-12 -10q-15 -7 -63 -20t-121 -15l-14 -29q24 2 45 -0.5t37 -11.5t25.5 -25t9.5 -40q0 -47 -36.5 -68.5t-102.5 -21.5q-6 0 -16.5 0.5t-21.5 1t-20.5 1
t-15.5 1.5q-8 2 -8 13v22q0 9 2 10.5t8 0.5q17 -2 37 -3t31 -1q42 0 60 11.5t18 31.5q0 23 -15.5 30.5t-38.5 7.5q-15 0 -32.5 -2t-25.5 -2q-16 0 -10 12l31 61q-91 3 -155.5 30.5t-106 74.5t-60.5 112t-19 144q0 84 21.5 154t66.5 120.5t114 78.5t164 28q29 0 59.5 -2.5
t59 -7.5t52.5 -12t39 -15q8 -5 10 -9.5t2 -15.5v-38q0 -17 -19 -10q-8 3 -25 9t-42 12t-57 10.5t-68 4.5q-81 0 -135.5 -24.5t-88 -66t-47.5 -97t-14 -118.5z" />
    <glyph glyph-name="Egrave" unicode="&#xc8;" horiz-adv-x="621" 
d="M131 0q-13 0 -17 3.5t-4 15.5v684q0 12 4 15.5t17 3.5h400q13 0 16.5 -4t3.5 -16v-31q0 -11 -3.5 -15t-16.5 -4h-334v-246h281q13 0 16.5 -4t3.5 -15v-31q0 -12 -3.5 -16t-16.5 -4h-281v-266h355q12 0 16 -4t4 -15v-31q0 -12 -4 -16t-16 -4h-421zM391 801q-3 -6 -8.5 -7
t-19.5 3l-193 52q-17 6 -10 23l16 37q4 9 9.5 10t16.5 -4l184 -76q11 -5 11.5 -9.5t-2.5 -12.5z" />
    <glyph glyph-name="Eacute" unicode="&#xc9;" horiz-adv-x="621" 
d="M131 0q-13 0 -17 3.5t-4 15.5v684q0 12 4 15.5t17 3.5h400q13 0 16.5 -4t3.5 -16v-31q0 -11 -3.5 -15t-16.5 -4h-334v-246h281q13 0 16.5 -4t3.5 -15v-31q0 -12 -3.5 -16t-16.5 -4h-281v-266h355q12 0 16 -4t4 -15v-31q0 -12 -4 -16t-16 -4h-421zM281 820q-6 16 5 21
l176 82q8 5 14.5 4.5t11.5 -10.5l16 -34q5 -11 3.5 -15.5t-12.5 -8.5l-183 -63q-17 -6 -22 6z" />
    <glyph glyph-name="Ecircumflex" unicode="&#xca;" horiz-adv-x="621" 
d="M131 0q-13 0 -17 3.5t-4 15.5v684q0 12 4 15.5t17 3.5h400q13 0 16.5 -4t3.5 -16v-31q0 -11 -3.5 -15t-16.5 -4h-334v-246h281q13 0 16.5 -4t3.5 -15v-31q0 -12 -3.5 -16t-16.5 -4h-281v-266h355q12 0 16 -4t4 -15v-31q0 -12 -4 -16t-16 -4h-421zM337 868l-78 -66
q-10 -8 -16 -10.5t-17 -2.5h-33q-13 0 -14 6t10 16l109 97q10 10 17 12t21 2q15 0 22 -2.5t18 -11.5l109 -97q11 -10 9 -16t-13 -6h-35q-9 0 -15 2.5t-15 10.5z" />
    <glyph glyph-name="Edieresis" unicode="&#xcb;" horiz-adv-x="621" 
d="M131 0q-13 0 -17 3.5t-4 15.5v684q0 12 4 15.5t17 3.5h400q13 0 16.5 -4t3.5 -16v-31q0 -11 -3.5 -15t-16.5 -4h-334v-246h281q13 0 16.5 -4t3.5 -15v-31q0 -12 -3.5 -16t-16.5 -4h-281v-266h355q12 0 16 -4t4 -15v-31q0 -12 -4 -16t-16 -4h-421zM192 847q0 25 17 41.5
t40 16.5t39 -14.5t16 -40.5q0 -24 -17.5 -39.5t-40.5 -15.5t-38.5 14t-15.5 38zM372 847q0 25 17.5 41.5t40.5 16.5q22 0 38 -14.5t16 -40.5q0 -24 -18 -39.5t-41 -15.5t-38 14t-15 38z" />
    <glyph glyph-name="Igrave" unicode="&#xcc;" horiz-adv-x="307" 
d="M110 703q0 12 4 15.5t17 3.5h45q12 0 16.5 -3.5t4.5 -15.5v-684q0 -12 -4.5 -15.5t-16.5 -3.5h-45q-13 0 -17 3.5t-4 15.5v684zM224 797q-3 -6 -8.5 -7t-19.5 3l-193 52q-17 6 -10 23l16 37q4 9 9.5 10t16.5 -4l184 -76q11 -5 11.5 -9.5t-2.5 -12.5z" />
    <glyph glyph-name="Iacute" unicode="&#xcd;" horiz-adv-x="307" 
d="M110 703q0 12 4 15.5t17 3.5h45q12 0 16.5 -3.5t4.5 -15.5v-684q0 -12 -4.5 -15.5t-16.5 -3.5h-45q-13 0 -17 3.5t-4 15.5v684zM98 820q-6 16 5 21l176 82q8 5 14.5 4.5t11.5 -10.5l16 -34q5 -11 3.5 -15.5t-12.5 -8.5l-183 -63q-17 -6 -22 6z" />
    <glyph glyph-name="Icircumflex" unicode="&#xce;" horiz-adv-x="306" 
d="M109 703q0 12 4.5 15.5t16.5 3.5h46q12 0 16.5 -3.5t4.5 -15.5v-684q0 -12 -4.5 -15.5t-16.5 -3.5h-46q-12 0 -16.5 3.5t-4.5 15.5v684zM154 868l-78 -66q-10 -8 -16 -10.5t-17 -2.5h-33q-13 0 -14 6t10 16l109 97q10 10 17 12t21 2q15 0 22 -2.5t18 -11.5l109 -97
q11 -10 9 -16t-13 -6h-35q-9 0 -15 2.5t-15 10.5z" />
    <glyph glyph-name="Idieresis" unicode="&#xcf;" horiz-adv-x="307" 
d="M110 703q0 12 4 15.5t17 3.5h45q12 0 16.5 -3.5t4.5 -15.5v-684q0 -12 -4.5 -15.5t-16.5 -3.5h-45q-13 0 -17 3.5t-4 15.5v684zM8 847q0 25 17 41.5t40 16.5t39 -14.5t16 -40.5q0 -24 -17.5 -39.5t-40.5 -15.5t-38.5 14t-15.5 38zM188 847q0 25 17.5 41.5t40.5 16.5
q22 0 38 -14.5t16 -40.5q0 -24 -18 -39.5t-41 -15.5t-38 14t-15 38z" />
    <glyph glyph-name="Eth" unicode="&#xd0;" horiz-adv-x="799" 
d="M147 0q-13 0 -17 3.5t-4 15.5v305h-100q-14 0 -14 12v50q0 11 13 11h101v306q0 12 4 15.5t17 3.5h152q223 0 328.5 -90.5t105.5 -271.5q0 -182 -105.5 -271t-325.5 -89h-155zM213 324v-254h87q89 0 153.5 16.5t106.5 51.5t62.5 90t20.5 132q0 78 -21 133.5t-63.5 91
t-107.5 51.5t-153 16h-85v-255h224q13 0 13 -11v-50q0 -12 -14 -12h-223z" />
    <glyph glyph-name="Ntilde" unicode="&#xd1;" horiz-adv-x="792" 
d="M618 0q-11 0 -17.5 4t-11.5 11l-363 518q-15 22 -25.5 40t-15.5 34q2 -17 4.5 -39.5t2.5 -42.5v-506q0 -12 -4.5 -15.5t-15.5 -3.5h-42q-12 0 -16 3.5t-4 15.5v687q0 9 4 12.5t16 3.5h45q11 0 17.5 -3.5t11.5 -11.5l368 -529q9 -13 15 -21.5t10 -16.5t7 -16t7 -19
q-6 26 -8.5 48.5t-2.5 47.5v502q0 12 4 15.5t17 3.5h41q12 0 16 -3.5t4 -15.5v-688q0 -8 -4 -11.5t-15 -3.5h-45zM447 853q14 0 24 8t11 23q1 4 3 6t8 2h32q10 0 10 -10q0 -42 -23 -63.5t-62 -21.5q-33 0 -46.5 8t-20.5 17q-5 6 -11 12t-21 6q-14 0 -23.5 -8.5t-10.5 -22.5
q-2 -5 -4 -7t-9 -2h-30q-11 0 -11 11q0 41 23.5 62.5t60.5 21.5q34 0 47 -9.5t19 -17.5q5 -7 12 -11t22 -4z" />
    <glyph glyph-name="Ograve" unicode="&#xd2;" 
d="M63 357q0 65 18 132t61.5 121t117.5 88.5t185 34.5q106 0 179 -31.5t118 -83.5t65 -118.5t20 -136.5q0 -65 -17.5 -131.5t-61 -121t-117 -89t-185.5 -34.5q-107 0 -180 31.5t-118 83.5t-65 118.5t-20 136.5zM443 661q-84 0 -140 -28t-89 -71.5t-46.5 -96.5t-13.5 -104
q0 -50 13 -103t46.5 -97.5t90 -73t143.5 -28.5q88 0 144 28.5t88.5 73t45 97t12.5 100.5t-13 101.5t-46 98.5t-90 74t-145 29zM498 801q-3 -6 -8.5 -7t-19.5 3l-193 52q-17 6 -10 23l16 37q4 9 9.5 10t16.5 -4l184 -76q11 -5 11.5 -9.5t-2.5 -12.5z" />
    <glyph glyph-name="Oacute" unicode="&#xd3;" 
d="M63 357q0 65 18 132t61.5 121t117.5 88.5t185 34.5q106 0 179 -31.5t118 -83.5t65 -118.5t20 -136.5q0 -65 -17.5 -131.5t-61 -121t-117 -89t-185.5 -34.5q-107 0 -180 31.5t-118 83.5t-65 118.5t-20 136.5zM443 661q-84 0 -140 -28t-89 -71.5t-46.5 -96.5t-13.5 -104
q0 -50 13 -103t46.5 -97.5t90 -73t143.5 -28.5q88 0 144 28.5t88.5 73t45 97t12.5 100.5t-13 101.5t-46 98.5t-90 74t-145 29zM388 820q-6 16 5 21l176 82q8 5 14.5 4.5t11.5 -10.5l16 -34q5 -11 3.5 -15.5t-12.5 -8.5l-183 -63q-17 -6 -22 6z" />
    <glyph glyph-name="Ocircumflex" unicode="&#xd4;" 
d="M63 357q0 65 18 132t61.5 121t117.5 88.5t185 34.5q106 0 179 -31.5t118 -83.5t65 -118.5t20 -136.5q0 -65 -17.5 -131.5t-61 -121t-117 -89t-185.5 -34.5q-107 0 -180 31.5t-118 83.5t-65 118.5t-20 136.5zM443 661q-84 0 -140 -28t-89 -71.5t-46.5 -96.5t-13.5 -104
q0 -50 13 -103t46.5 -97.5t90 -73t143.5 -28.5q88 0 144 28.5t88.5 73t45 97t12.5 100.5t-13 101.5t-46 98.5t-90 74t-145 29zM444 868l-78 -66q-10 -8 -16 -10.5t-17 -2.5h-33q-13 0 -14 6t10 16l109 97q10 10 17 12t21 2q15 0 22 -2.5t18 -11.5l109 -97q11 -10 9 -16
t-13 -6h-35q-9 0 -15 2.5t-15 10.5z" />
    <glyph glyph-name="Otilde" unicode="&#xd5;" 
d="M63 357q0 65 18 132t61.5 121t117.5 88.5t185 34.5q106 0 179 -31.5t118 -83.5t65 -118.5t20 -136.5q0 -65 -17.5 -131.5t-61 -121t-117 -89t-185.5 -34.5q-107 0 -180 31.5t-118 83.5t-65 118.5t-20 136.5zM443 661q-84 0 -140 -28t-89 -71.5t-46.5 -96.5t-13.5 -104
q0 -50 13 -103t46.5 -97.5t90 -73t143.5 -28.5q88 0 144 28.5t88.5 73t45 97t12.5 100.5t-13 101.5t-46 98.5t-90 74t-145 29zM495 853q14 0 24 8t11 23q1 4 3 6t8 2h32q10 0 10 -10q0 -42 -23 -63.5t-62 -21.5q-33 0 -46.5 8t-20.5 17q-5 6 -11 12t-21 6q-14 0 -23.5 -8.5
t-10.5 -22.5q-2 -5 -4 -7t-9 -2h-30q-11 0 -11 11q0 41 23.5 62.5t60.5 21.5q34 0 47 -9.5t19 -17.5q5 -7 12 -11t22 -4z" />
    <glyph glyph-name="Odieresis" unicode="&#xd6;" 
d="M63 357q0 65 18 132t61.5 121t117.5 88.5t185 34.5q106 0 179 -31.5t118 -83.5t65 -118.5t20 -136.5q0 -65 -17.5 -131.5t-61 -121t-117 -89t-185.5 -34.5q-107 0 -180 31.5t-118 83.5t-65 118.5t-20 136.5zM443 661q-84 0 -140 -28t-89 -71.5t-46.5 -96.5t-13.5 -104
q0 -50 13 -103t46.5 -97.5t90 -73t143.5 -28.5q88 0 144 28.5t88.5 73t45 97t12.5 100.5t-13 101.5t-46 98.5t-90 74t-145 29zM298 847q0 25 17 41.5t40 16.5t39 -14.5t16 -40.5q0 -24 -17.5 -39.5t-40.5 -15.5t-38.5 14t-15.5 38zM478 847q0 25 17.5 41.5t40.5 16.5
q22 0 38 -14.5t16 -40.5q0 -24 -18 -39.5t-41 -15.5t-38 14t-15 38z" />
    <glyph glyph-name="multiply" unicode="&#xd7;" horiz-adv-x="577" 
d="M292 319l172 155q17 15 28.5 18.5t27.5 -11.5q7 -7 10 -19t-16 -30l-178 -161l178 -162q19 -17 16 -29t-10 -19q-16 -15 -27.5 -12t-28.5 19l-172 153l-3 3l-175 -156q-17 -16 -29.5 -19t-27.5 12q-8 7 -10.5 19t16.5 29l178 162l-178 162q-19 17 -16.5 29t10.5 19
q15 15 27.5 11.5t29.5 -18.5l171 -154v1l3 -4l4 4v-2z" />
    <glyph glyph-name="Oslash" unicode="&#xd8;" 
d="M247 27q-50 24 -85 59.5t-57 79t-32 92.5t-10 99q0 65 18 132t61.5 121t117.5 88.5t185 34.5q34 0 64 -3.5t57 -9.5l7 14q5 11 8.5 14.5t11.5 1.5l60 -11q9 -2 9.5 -7t-4.5 -16l-12 -25q49 -24 83.5 -60t56 -78.5t31.5 -91t10 -98.5q0 -65 -17.5 -131.5t-61 -121
t-117 -89t-185.5 -34.5q-33 0 -63 3.5t-56 9.5l-11 -24q-5 -10 -8 -12.5t-11 -0.5l-60 13q-8 2 -9 5t5 16zM443 661q-84 0 -140 -28t-89 -71.5t-46.5 -96.5t-13.5 -104q0 -35 6 -71.5t21 -71.5t39 -65.5t60 -52.5l254 550q-42 11 -91 11zM737 358q0 33 -6 69.5t-20.5 71.5
t-38 66t-59.5 53l-254 -549q20 -5 41.5 -7.5t46.5 -2.5q88 0 144 28.5t88.5 73t45 97t12.5 100.5z" />
    <glyph glyph-name="Ugrave" unicode="&#xd9;" horiz-adv-x="787" 
d="M394 68q103 0 154 51.5t51 158.5v425q0 12 4 15.5t16 3.5h46q12 0 16.5 -3.5t4.5 -15.5v-434q0 -131 -70 -203.5t-222 -72.5t-222.5 72.5t-70.5 203.5v434q0 12 4.5 15.5t16.5 3.5h46q12 0 16.5 -3.5t4.5 -15.5v-425q0 -107 50.5 -158.5t154.5 -51.5zM452 801
q-3 -6 -8.5 -7t-19.5 3l-193 52q-17 6 -10 23l16 37q4 9 9.5 10t16.5 -4l184 -76q11 -5 11.5 -9.5t-2.5 -12.5z" />
    <glyph glyph-name="Uacute" unicode="&#xda;" horiz-adv-x="787" 
d="M394 68q103 0 154 51.5t51 158.5v425q0 12 4 15.5t16 3.5h46q12 0 16.5 -3.5t4.5 -15.5v-434q0 -131 -70 -203.5t-222 -72.5t-222.5 72.5t-70.5 203.5v434q0 12 4.5 15.5t16.5 3.5h46q12 0 16.5 -3.5t4.5 -15.5v-425q0 -107 50.5 -158.5t154.5 -51.5zM341 820q-6 16 5 21
l176 82q8 5 14.5 4.5t11.5 -10.5l16 -34q5 -11 3.5 -15.5t-12.5 -8.5l-183 -63q-17 -6 -22 6z" />
    <glyph glyph-name="Ucircumflex" unicode="&#xdb;" horiz-adv-x="787" 
d="M394 68q103 0 154 51.5t51 158.5v425q0 12 4 15.5t16 3.5h46q12 0 16.5 -3.5t4.5 -15.5v-434q0 -131 -70 -203.5t-222 -72.5t-222.5 72.5t-70.5 203.5v434q0 12 4.5 15.5t16.5 3.5h46q12 0 16.5 -3.5t4.5 -15.5v-425q0 -107 50.5 -158.5t154.5 -51.5zM397 868l-78 -66
q-10 -8 -16 -10.5t-17 -2.5h-33q-13 0 -14 6t10 16l109 97q10 10 17 12t21 2q15 0 22 -2.5t18 -11.5l109 -97q11 -10 9 -16t-13 -6h-35q-9 0 -15 2.5t-15 10.5z" />
    <glyph glyph-name="Udieresis" unicode="&#xdc;" horiz-adv-x="787" 
d="M394 68q103 0 154 51.5t51 158.5v425q0 12 4 15.5t16 3.5h46q12 0 16.5 -3.5t4.5 -15.5v-434q0 -131 -70 -203.5t-222 -72.5t-222.5 72.5t-70.5 203.5v434q0 12 4.5 15.5t16.5 3.5h46q12 0 16.5 -3.5t4.5 -15.5v-425q0 -107 50.5 -158.5t154.5 -51.5zM253 847
q0 25 17 41.5t40 16.5t39 -14.5t16 -40.5q0 -24 -17.5 -39.5t-40.5 -15.5t-38.5 14t-15.5 38zM433 847q0 25 17.5 41.5t40.5 16.5q22 0 38 -14.5t16 -40.5q0 -24 -18 -39.5t-41 -15.5t-38 14t-15 38z" />
    <glyph glyph-name="Yacute" unicode="&#xdd;" horiz-adv-x="660" 
d="M34 697q-15 25 9 25h56q12 0 16 -3t9 -13l205 -338l207 338q5 10 9 13t15 3h57q11 0 14 -6t-5 -19l-253 -411v-267q0 -12 -4.5 -15.5t-15.5 -3.5h-46q-12 0 -16.5 3.5t-4.5 15.5v268zM273 820q-6 16 5 21l176 82q8 5 14.5 4.5t11.5 -10.5l16 -34q5 -11 3.5 -15.5
t-12.5 -8.5l-183 -63q-17 -6 -22 6z" />
    <glyph glyph-name="Thorn" unicode="&#xde;" horiz-adv-x="675" 
d="M621 300q0 -62 -27 -107t-71 -74.5t-99 -44t-111 -14.5q-32 0 -62 3.5t-57 9.5v-211q0 -10 -4.5 -15t-16.5 -6h-43q-12 0 -16 6t-4 14v859q0 11 4.5 16t16.5 6h43q12 0 16 -6t4 -15v-190q28 4 54 5.5t52 1.5q72 0 131.5 -15.5t101.5 -45.5t65 -74.5t23 -102.5zM194 142
q24 -8 56.5 -12.5t60.5 -4.5q43 0 83 10.5t70 32.5t48 54.5t18 77.5q0 43 -18 74.5t-48 52.5t-70 31.5t-84 10.5q-27 0 -57 -1t-59 -7v-319z" />
    <glyph glyph-name="germandbls" unicode="&#xdf;" horiz-adv-x="681" 
d="M367 61q36 0 66.5 8t53 25t35 43t12.5 61q0 39 -15 67t-40.5 46.5t-58.5 27.5t-68 9h-64q-8 0 -10.5 3t-2.5 11v38q0 9 2.5 12.5t11.5 3.5h62q21 0 45 6.5t44.5 21t34.5 38t14 56.5q0 63 -43.5 95t-112.5 32q-74 0 -117.5 -35.5t-43.5 -100.5v-734q0 -15 -17 -15h-53
q-14 0 -14 15v734q0 43 14 80t43 64.5t75 43t111 15.5q121 0 183 -52t62 -139q0 -33 -9.5 -60.5t-25 -48t-36 -34t-42.5 -17.5q23 -5 51 -16.5t52.5 -33.5t41 -55.5t16.5 -81.5q0 -50 -17.5 -87.5t-50 -62t-78.5 -37t-103 -12.5q-58 0 -98.5 8t-55.5 14q-7 3 -9 5.5t-2 10.5
v34q0 11 2.5 13.5t7.5 2.5q4 0 17.5 -3.5t33 -7.5t44.5 -7.5t52 -3.5z" />
    <glyph glyph-name="agrave" unicode="&#xe0;" horiz-adv-x="615" 
d="M507 109q0 -43 34 -43q14 0 22.5 1.5t16.5 3.5t12 0.5t4 -9.5v-39q0 -15 -14 -19q-14 -5 -27 -7t-38 -2q-15 0 -30.5 3t-28.5 11t-22 22.5t-12 37.5q-31 -35 -79 -55t-114 -20q-91 0 -136 37.5t-45 109.5q0 48 20.5 80.5t60.5 52t99.5 28t136.5 8.5h56v40q0 38 -11 61.5
t-31 37t-48.5 18t-63.5 4.5q-57 0 -96.5 -7t-62.5 -13q-9 -2 -14 0.5t-5 11.5v38q0 11 4 15.5t18 8.5q20 6 63.5 12.5t102.5 6.5q39 0 79.5 -5.5t73.5 -25t54 -57t21 -100.5v-247zM134 142q0 -77 110 -77q38 0 71 9.5t57 28t37.5 45.5t13.5 62v33h-56q-126 0 -179.5 -24
t-53.5 -77zM366 622q-3 -6 -8.5 -7t-19.5 3l-193 52q-17 6 -10 23l16 37q4 9 9.5 10t16.5 -4l184 -76q11 -5 11.5 -9.5t-2.5 -12.5z" />
    <glyph glyph-name="aacute" unicode="&#xe1;" horiz-adv-x="615" 
d="M507 109q0 -43 34 -43q14 0 22.5 1.5t16.5 3.5t12 0.5t4 -9.5v-39q0 -15 -14 -19q-14 -5 -27 -7t-38 -2q-15 0 -30.5 3t-28.5 11t-22 22.5t-12 37.5q-31 -35 -79 -55t-114 -20q-91 0 -136 37.5t-45 109.5q0 48 20.5 80.5t60.5 52t99.5 28t136.5 8.5h56v40q0 38 -11 61.5
t-31 37t-48.5 18t-63.5 4.5q-57 0 -96.5 -7t-62.5 -13q-9 -2 -14 0.5t-5 11.5v38q0 11 4 15.5t18 8.5q20 6 63.5 12.5t102.5 6.5q39 0 79.5 -5.5t73.5 -25t54 -57t21 -100.5v-247zM134 142q0 -77 110 -77q38 0 71 9.5t57 28t37.5 45.5t13.5 62v33h-56q-126 0 -179.5 -24
t-53.5 -77zM235 645q-6 16 5 21l176 82q8 5 14.5 4.5t11.5 -10.5l16 -34q5 -11 3.5 -15.5t-12.5 -8.5l-183 -63q-17 -6 -22 6z" />
    <glyph glyph-name="acircumflex" unicode="&#xe2;" horiz-adv-x="615" 
d="M507 109q0 -43 34 -43q14 0 22.5 1.5t16.5 3.5t12 0.5t4 -9.5v-39q0 -15 -14 -19q-14 -5 -27 -7t-38 -2q-15 0 -30.5 3t-28.5 11t-22 22.5t-12 37.5q-31 -35 -79 -55t-114 -20q-91 0 -136 37.5t-45 109.5q0 48 20.5 80.5t60.5 52t99.5 28t136.5 8.5h56v40q0 38 -11 61.5
t-31 37t-48.5 18t-63.5 4.5q-57 0 -96.5 -7t-62.5 -13q-9 -2 -14 0.5t-5 11.5v38q0 11 4 15.5t18 8.5q20 6 63.5 12.5t102.5 6.5q39 0 79.5 -5.5t73.5 -25t54 -57t21 -100.5v-247zM134 142q0 -77 110 -77q38 0 71 9.5t57 28t37.5 45.5t13.5 62v33h-56q-126 0 -179.5 -24
t-53.5 -77zM291 689l-78 -66q-10 -8 -16 -10.5t-17 -2.5h-33q-13 0 -14 6t10 16l109 97q10 10 17 12t21 2q15 0 22 -2.5t18 -11.5l109 -97q11 -10 9 -16t-13 -6h-35q-9 0 -15 2.5t-15 10.5z" />
    <glyph glyph-name="atilde" unicode="&#xe3;" horiz-adv-x="615" 
d="M507 109q0 -43 34 -43q14 0 22.5 1.5t16.5 3.5t12 0.5t4 -9.5v-39q0 -15 -14 -19q-14 -5 -27 -7t-38 -2q-15 0 -30.5 3t-28.5 11t-22 22.5t-12 37.5q-31 -35 -79 -55t-114 -20q-91 0 -136 37.5t-45 109.5q0 48 20.5 80.5t60.5 52t99.5 28t136.5 8.5h56v40q0 38 -11 61.5
t-31 37t-48.5 18t-63.5 4.5q-57 0 -96.5 -7t-62.5 -13q-9 -2 -14 0.5t-5 11.5v38q0 11 4 15.5t18 8.5q20 6 63.5 12.5t102.5 6.5q39 0 79.5 -5.5t73.5 -25t54 -57t21 -100.5v-247zM134 142q0 -77 110 -77q38 0 71 9.5t57 28t37.5 45.5t13.5 62v33h-56q-126 0 -179.5 -24
t-53.5 -77zM342 675q14 0 24 8t11 23q1 4 3 6t8 2h32q10 0 10 -10q0 -42 -23 -63.5t-62 -21.5q-33 0 -46.5 8t-20.5 17q-5 6 -11 12t-21 6q-14 0 -23.5 -8.5t-10.5 -22.5q-2 -5 -4 -7t-9 -2h-30q-11 0 -11 11q0 41 23.5 62.5t60.5 21.5q34 0 47 -9.5t19 -17.5q5 -7 12 -11
t22 -4z" />
    <glyph glyph-name="adieresis" unicode="&#xe4;" horiz-adv-x="615" 
d="M507 109q0 -43 34 -43q14 0 22.5 1.5t16.5 3.5t12 0.5t4 -9.5v-39q0 -15 -14 -19q-14 -5 -27 -7t-38 -2q-15 0 -30.5 3t-28.5 11t-22 22.5t-12 37.5q-31 -35 -79 -55t-114 -20q-91 0 -136 37.5t-45 109.5q0 48 20.5 80.5t60.5 52t99.5 28t136.5 8.5h56v40q0 38 -11 61.5
t-31 37t-48.5 18t-63.5 4.5q-57 0 -96.5 -7t-62.5 -13q-9 -2 -14 0.5t-5 11.5v38q0 11 4 15.5t18 8.5q20 6 63.5 12.5t102.5 6.5q39 0 79.5 -5.5t73.5 -25t54 -57t21 -100.5v-247zM134 142q0 -77 110 -77q38 0 71 9.5t57 28t37.5 45.5t13.5 62v33h-56q-126 0 -179.5 -24
t-53.5 -77zM146 669q0 25 17 41.5t40 16.5t39 -14.5t16 -40.5q0 -24 -17.5 -39.5t-40.5 -15.5t-38.5 14t-15.5 38zM326 669q0 25 17.5 41.5t40.5 16.5q22 0 38 -14.5t16 -40.5q0 -24 -18 -39.5t-41 -15.5t-38 14t-15 38z" />
    <glyph glyph-name="aring" unicode="&#xe5;" horiz-adv-x="615" 
d="M507 109q0 -43 34 -43q14 0 22.5 1.5t16.5 3.5t12 0.5t4 -9.5v-39q0 -15 -14 -19q-14 -5 -27 -7t-38 -2q-15 0 -30.5 3t-28.5 11t-22 22.5t-12 37.5q-31 -35 -79 -55t-114 -20q-91 0 -136 37.5t-45 109.5q0 48 20.5 80.5t60.5 52t99.5 28t136.5 8.5h56v40q0 38 -11 61.5
t-31 37t-48.5 18t-63.5 4.5q-57 0 -96.5 -7t-62.5 -13q-9 -2 -14 0.5t-5 11.5v38q0 11 4 15.5t18 8.5q20 6 63.5 12.5t102.5 6.5q39 0 79.5 -5.5t73.5 -25t54 -57t21 -100.5v-247zM134 142q0 -77 110 -77q38 0 71 9.5t57 28t37.5 45.5t13.5 62v33h-56q-126 0 -179.5 -24
t-53.5 -77zM289 608q-55 0 -88 23t-33 60q0 38 32.5 60.5t88.5 22.5q55 0 89 -22.5t34 -60.5q0 -37 -34 -60t-89 -23zM289 648q23 0 40 11.5t17 31.5t-16.5 32t-40.5 12q-23 0 -39.5 -12t-16.5 -32t16.5 -31.5t39.5 -11.5z" />
    <glyph glyph-name="ae" unicode="&#xe6;" horiz-adv-x="995" 
d="M701 544q117 0 180 -49.5t63 -137.5q0 -77 -60 -122t-191 -45q-48 0 -93.5 6t-84.5 18q4 -37 17.5 -66.5t37.5 -50.5t60 -32.5t86 -11.5q61 0 106 12q17 5 38 12t34 10q8 2 10 -1t2 -8v-34q0 -11 -3 -15t-16 -10q-38 -16 -81 -24t-94 -8q-106 0 -168 34t-91 94
q-25 -55 -80.5 -88t-141.5 -33q-91 0 -136.5 37.5t-45.5 109.5q0 48 20.5 80.5t60.5 52t99.5 28t136.5 8.5h57v40q0 38 -11 61.5t-31 37t-48.5 18t-64.5 4.5q-57 0 -96.5 -7t-61.5 -13q-10 -2 -14.5 0.5t-4.5 11.5v38q0 11 3.5 15.5t18.5 8.5q20 6 63.5 12.5t102.5 6.5
q29 0 59.5 -3t58 -12t50.5 -26.5t38 -45.5q35 42 89 64.5t127 22.5zM701 483q-48 0 -83 -15t-58 -43t-35 -66.5t-13 -85.5q42 -12 85.5 -18t84.5 -6q179 0 179 113q0 57 -43 89t-117 32zM133 142q0 -38 27 -57.5t84 -19.5q38 0 71 9.5t57 28t37.5 45.5t13.5 62v33h-57
q-125 0 -179 -24t-54 -77z" />
    <glyph glyph-name="ccedilla" unicode="&#xe7;" horiz-adv-x="556" 
d="M309 -7q-65 3 -112 22.5t-77.5 55t-45 85t-14.5 111.5q0 65 16 116.5t49 87t84.5 54.5t122.5 19q58 0 97.5 -10t53.5 -16q11 -5 14.5 -9t3.5 -13v-46q0 -7 -3 -10t-14 2q-17 6 -49.5 17t-89.5 11q-97 0 -146 -48.5t-49 -152.5q0 -103 47.5 -153t141.5 -50q46 0 81.5 9
t56.5 16q12 4 18 2.5t6 -12.5v-39q0 -10 -3 -14.5t-11 -8.5q-14 -6 -45.5 -14.5t-78.5 -11.5l-14 -28q24 2 45 -0.5t37 -11.5t25.5 -25t9.5 -40q0 -47 -36.5 -68.5t-102.5 -21.5q-6 0 -16.5 0.5t-21.5 1t-20.5 1t-15.5 1.5q-8 2 -8 13v22q0 9 2 10.5t8 0.5q17 -2 37 -3
t31 -1q42 0 60 11.5t18 31.5q0 23 -15.5 30.5t-38.5 7.5q-15 0 -32.5 -2t-25.5 -2q-16 0 -10 12z" />
    <glyph glyph-name="egrave" unicode="&#xe8;" horiz-adv-x="614" 
d="M318 544q118 0 174 -47t56 -129q0 -46 -16.5 -78t-46.5 -52.5t-72.5 -30t-93.5 -9.5q-48 0 -92.5 7t-83.5 21q7 -90 58.5 -125.5t144.5 -35.5q48 0 86 6.5t67 17.5q20 7 27.5 10.5t14.5 3.5q9 0 9 -10v-45q0 -8 -4.5 -13t-18.5 -10q-21 -9 -68 -21t-116 -12
q-137 0 -210 65.5t-73 203.5q0 64 16.5 116.5t49 89.5t80.5 57t112 20zM318 472q-79 0 -123.5 -46.5t-51.5 -134.5q41 -13 85 -19t83 -6q80 0 118 26t38 78q0 53 -38.5 77.5t-110.5 24.5zM398 617q-3 -6 -8.5 -7t-19.5 3l-193 52q-17 6 -10 23l16 37q4 9 9.5 10t16.5 -4
l184 -76q11 -5 11.5 -9.5t-2.5 -12.5z" />
    <glyph glyph-name="eacute" unicode="&#xe9;" horiz-adv-x="614" 
d="M318 544q118 0 174 -47t56 -129q0 -46 -16.5 -78t-46.5 -52.5t-72.5 -30t-93.5 -9.5q-48 0 -92.5 7t-83.5 21q7 -90 58.5 -125.5t144.5 -35.5q48 0 86 6.5t67 17.5q20 7 27.5 10.5t14.5 3.5q9 0 9 -10v-45q0 -8 -4.5 -13t-18.5 -10q-21 -9 -68 -21t-116 -12
q-137 0 -210 65.5t-73 203.5q0 64 16.5 116.5t49 89.5t80.5 57t112 20zM318 472q-79 0 -123.5 -46.5t-51.5 -134.5q41 -13 85 -19t83 -6q80 0 118 26t38 78q0 53 -38.5 77.5t-110.5 24.5zM264 640q-6 16 5 21l176 82q8 5 14.5 4.5t11.5 -10.5l16 -34q5 -11 3.5 -15.5
t-12.5 -8.5l-183 -63q-17 -6 -22 6z" />
    <glyph glyph-name="ecircumflex" unicode="&#xea;" horiz-adv-x="614" 
d="M318 544q118 0 174 -47t56 -129q0 -46 -16.5 -78t-46.5 -52.5t-72.5 -30t-93.5 -9.5q-48 0 -92.5 7t-83.5 21q7 -90 58.5 -125.5t144.5 -35.5q48 0 86 6.5t67 17.5q20 7 27.5 10.5t14.5 3.5q9 0 9 -10v-45q0 -8 -4.5 -13t-18.5 -10q-21 -9 -68 -21t-116 -12
q-137 0 -210 65.5t-73 203.5q0 64 16.5 116.5t49 89.5t80.5 57t112 20zM318 472q-79 0 -123.5 -46.5t-51.5 -134.5q41 -13 85 -19t83 -6q80 0 118 26t38 78q0 53 -38.5 77.5t-110.5 24.5zM320 688l-78 -66q-10 -8 -16 -10.5t-17 -2.5h-33q-13 0 -14 6t10 16l109 97
q10 10 17 12t21 2q15 0 22 -2.5t18 -11.5l109 -97q11 -10 9 -16t-13 -6h-35q-9 0 -15 2.5t-15 10.5z" />
    <glyph glyph-name="edieresis" unicode="&#xeb;" horiz-adv-x="614" 
d="M318 544q118 0 174 -47t56 -129q0 -46 -16.5 -78t-46.5 -52.5t-72.5 -30t-93.5 -9.5q-48 0 -92.5 7t-83.5 21q7 -90 58.5 -125.5t144.5 -35.5q48 0 86 6.5t67 17.5q20 7 27.5 10.5t14.5 3.5q9 0 9 -10v-45q0 -8 -4.5 -13t-18.5 -10q-21 -9 -68 -21t-116 -12
q-137 0 -210 65.5t-73 203.5q0 64 16.5 116.5t49 89.5t80.5 57t112 20zM318 472q-79 0 -123.5 -46.5t-51.5 -134.5q41 -13 85 -19t83 -6q80 0 118 26t38 78q0 53 -38.5 77.5t-110.5 24.5zM175 668q0 25 17 41.5t40 16.5t39 -14.5t16 -40.5q0 -24 -17.5 -39.5t-40.5 -15.5
t-38.5 14t-15.5 38zM355 668q0 25 17.5 41.5t40.5 16.5q22 0 38 -14.5t16 -40.5q0 -24 -18 -39.5t-41 -15.5t-38 14t-15 38z" />
    <glyph glyph-name="igrave" unicode="&#xec;" horiz-adv-x="261" 
d="M173 19q0 -12 -4 -15.5t-16 -3.5h-43q-12 0 -16.5 3.5t-4.5 15.5v494q0 11 4.5 15t16.5 4h43q12 0 16 -4t4 -15v-494zM184 622q-3 -6 -8.5 -7t-19.5 3l-193 52q-17 6 -10 23l16 37q4 9 9.5 10t16.5 -4l184 -76q11 -5 11.5 -9.5t-2.5 -12.5z" />
    <glyph glyph-name="iacute" unicode="&#xed;" horiz-adv-x="261" 
d="M172 19q0 -12 -4.5 -15.5t-15.5 -3.5h-43q-13 0 -17 3.5t-4 15.5v494q0 11 4 15t17 4h43q20 0 20 -19v-494zM73 642q-6 16 5 21l176 82q8 5 14.5 4.5t11.5 -10.5l16 -34q5 -11 3.5 -15.5t-12.5 -8.5l-183 -63q-17 -6 -22 6z" />
    <glyph glyph-name="icircumflex" unicode="&#xee;" horiz-adv-x="263" 
d="M173 19q0 -12 -4.5 -15.5t-15.5 -3.5h-43q-13 0 -17 3.5t-4 15.5v494q0 11 4 15t17 4h43q20 0 20 -19v-494zM130 689l-78 -66q-10 -8 -16 -10.5t-17 -2.5h-33q-13 0 -14 6t10 16l109 97q10 10 17 12t21 2q15 0 22 -2.5t18 -11.5l109 -97q11 -10 9 -16t-13 -6h-35
q-9 0 -15 2.5t-15 10.5z" />
    <glyph glyph-name="idieresis" unicode="&#xef;" horiz-adv-x="263" 
d="M173 19q0 -12 -4 -15.5t-16 -3.5h-43q-12 0 -16.5 3.5t-4.5 15.5v494q0 11 4.5 15t16.5 4h43q12 0 16 -4t4 -15v-494zM-15 669q0 25 17 41.5t40 16.5t39 -14.5t16 -40.5q0 -24 -17.5 -39.5t-40.5 -15.5t-38.5 14t-15.5 38zM165 669q0 25 17.5 41.5t40.5 16.5
q22 0 38 -14.5t16 -40.5q0 -24 -18 -39.5t-41 -15.5t-38 14t-15 38z" />
    <glyph glyph-name="eth" unicode="&#xf0;" horiz-adv-x="661" 
d="M488 580q47 -57 79.5 -127.5t32.5 -156.5q0 -46 -12 -99.5t-44 -99.5t-88 -77t-144 -31q-68 0 -117.5 20t-82 52.5t-48 74t-15.5 83.5q0 46 17.5 88t51 74t82 51t109.5 19q42 0 75.5 -10t59 -27t44 -38.5t30.5 -43.5q-9 75 -36 127t-69 95l-137 -48q-19 -7 -29.5 0.5
t-15.5 20.5q-7 20 1 28t31 17l94 32q-26 22 -55 44t-61 46q-3 2 -6.5 5.5t-3.5 8.5q0 3 1.5 5l4.5 6l25 24q6 6 10.5 7t7.5 1q8 0 17 -5q26 -17 64.5 -45.5t78.5 -67.5l143 50q16 6 25.5 -2.5t14.5 -20.5q7 -15 2.5 -24t-24.5 -16zM313 58q46 0 80 14t56 37t32.5 53t10.5 62
q0 34 -13 63t-36.5 50t-56 33t-70.5 12q-39 0 -72 -13t-56.5 -35.5t-36.5 -52.5t-13 -64q0 -29 10.5 -57.5t32 -51t54.5 -36.5t78 -14z" />
    <glyph glyph-name="ntilde" unicode="&#xf1;" horiz-adv-x="626" 
d="M335 470q-78 0 -120.5 -55.5t-42.5 -158.5v-237q0 -12 -4.5 -15.5t-15.5 -3.5h-43q-13 0 -17 3.5t-4 15.5v494q0 11 4 15t17 4h43q20 0 20 -19v-67q26 52 76.5 75t109.5 23q40 0 74 -11t58.5 -33.5t38 -57.5t13.5 -83v-340q0 -12 -4.5 -15.5t-16.5 -3.5h-43
q-12 0 -16 3.5t-4 15.5v323q0 28 -6.5 51.5t-21.5 40.5t-38.5 26.5t-56.5 9.5zM370 675q14 0 24 8t11 23q1 4 3 6t8 2h32q10 0 10 -10q0 -42 -23 -63.5t-62 -21.5q-33 0 -46.5 8t-20.5 17q-5 6 -11 12t-21 6q-14 0 -23.5 -8.5t-10.5 -22.5q-2 -5 -4 -7t-9 -2h-30
q-11 0 -11 11q0 41 23.5 62.5t60.5 21.5q34 0 47 -9.5t19 -17.5q5 -7 12 -11t22 -4z" />
    <glyph glyph-name="ograve" unicode="&#xf2;" horiz-adv-x="641" 
d="M60 266q0 58 14 109t45.5 88.5t80.5 59t120 21.5q70 0 119.5 -21.5t80.5 -59t45.5 -88.5t14.5 -109t-14.5 -109t-45.5 -88.5t-80.5 -59.5t-119.5 -22q-71 0 -120 22t-80.5 59.5t-45.5 88.5t-14 109zM320 469q-47 0 -79.5 -14.5t-53 -41t-30 -64t-9.5 -83.5t9.5 -83.5
t30 -64.5t53 -41.5t79.5 -14.5t80 14.5t53.5 41.5t30 64.5t9.5 83.5t-9.5 83.5t-30 64t-53.5 41t-80 14.5zM374 621q-3 -6 -8.5 -7t-19.5 3l-193 52q-17 6 -10 23l16 37q4 9 9.5 10t16.5 -4l184 -76q11 -5 11.5 -9.5t-2.5 -12.5z" />
    <glyph glyph-name="oacute" unicode="&#xf3;" horiz-adv-x="641" 
d="M60 266q0 58 14 109t45.5 88.5t80.5 59t120 21.5q70 0 119.5 -21.5t80.5 -59t45.5 -88.5t14.5 -109t-14.5 -109t-45.5 -88.5t-80.5 -59.5t-119.5 -22q-71 0 -120 22t-80.5 59.5t-45.5 88.5t-14 109zM320 469q-47 0 -79.5 -14.5t-53 -41t-30 -64t-9.5 -83.5t9.5 -83.5
t30 -64.5t53 -41.5t79.5 -14.5t80 14.5t53.5 41.5t30 64.5t9.5 83.5t-9.5 83.5t-30 64t-53.5 41t-80 14.5zM265 641q-6 16 5 21l176 82q8 5 14.5 4.5t11.5 -10.5l16 -34q5 -11 3.5 -15.5t-12.5 -8.5l-183 -63q-17 -6 -22 6z" />
    <glyph glyph-name="ocircumflex" unicode="&#xf4;" horiz-adv-x="641" 
d="M60 266q0 58 14 109t45.5 88.5t80.5 59t120 21.5q70 0 119.5 -21.5t80.5 -59t45.5 -88.5t14.5 -109t-14.5 -109t-45.5 -88.5t-80.5 -59.5t-119.5 -22q-71 0 -120 22t-80.5 59.5t-45.5 88.5t-14 109zM320 469q-47 0 -79.5 -14.5t-53 -41t-30 -64t-9.5 -83.5t9.5 -83.5
t30 -64.5t53 -41.5t79.5 -14.5t80 14.5t53.5 41.5t30 64.5t9.5 83.5t-9.5 83.5t-30 64t-53.5 41t-80 14.5zM320 688l-78 -66q-10 -8 -16 -10.5t-17 -2.5h-33q-13 0 -14 6t10 16l109 97q10 10 17 12t21 2q15 0 22 -2.5t18 -11.5l109 -97q11 -10 9 -16t-13 -6h-35
q-9 0 -15 2.5t-15 10.5z" />
    <glyph glyph-name="otilde" unicode="&#xf5;" horiz-adv-x="641" 
d="M60 266q0 58 14 109t45.5 88.5t80.5 59t120 21.5q70 0 119.5 -21.5t80.5 -59t45.5 -88.5t14.5 -109t-14.5 -109t-45.5 -88.5t-80.5 -59.5t-119.5 -22q-71 0 -120 22t-80.5 59.5t-45.5 88.5t-14 109zM320 469q-47 0 -79.5 -14.5t-53 -41t-30 -64t-9.5 -83.5t9.5 -83.5
t30 -64.5t53 -41.5t79.5 -14.5t80 14.5t53.5 41.5t30 64.5t9.5 83.5t-9.5 83.5t-30 64t-53.5 41t-80 14.5zM372 674q14 0 24 8t11 23q1 4 3 6t8 2h32q10 0 10 -10q0 -42 -23 -63.5t-62 -21.5q-33 0 -46.5 8t-20.5 17q-5 6 -11 12t-21 6q-14 0 -23.5 -8.5t-10.5 -22.5
q-2 -5 -4 -7t-9 -2h-30q-11 0 -11 11q0 41 23.5 62.5t60.5 21.5q34 0 47 -9.5t19 -17.5q5 -7 12 -11t22 -4z" />
    <glyph glyph-name="odieresis" unicode="&#xf6;" horiz-adv-x="641" 
d="M60 266q0 58 14 109t45.5 88.5t80.5 59t120 21.5q70 0 119.5 -21.5t80.5 -59t45.5 -88.5t14.5 -109t-14.5 -109t-45.5 -88.5t-80.5 -59.5t-119.5 -22q-71 0 -120 22t-80.5 59.5t-45.5 88.5t-14 109zM320 469q-47 0 -79.5 -14.5t-53 -41t-30 -64t-9.5 -83.5t9.5 -83.5
t30 -64.5t53 -41.5t79.5 -14.5t80 14.5t53.5 41.5t30 64.5t9.5 83.5t-9.5 83.5t-30 64t-53.5 41t-80 14.5zM175 668q0 25 17 41.5t40 16.5t39 -14.5t16 -40.5q0 -24 -17.5 -39.5t-40.5 -15.5t-38.5 14t-15.5 38zM355 668q0 25 17.5 41.5t40.5 16.5q22 0 38 -14.5t16 -40.5
q0 -24 -18 -39.5t-41 -15.5t-38 14t-15 38z" />
    <glyph glyph-name="divide" unicode="&#xf7;" horiz-adv-x="602" 
d="M67 304q-14 0 -14 12v50q0 11 13 11h470q13 0 13 -11v-50q0 -12 -14 -12h-468zM245 529q0 27 18 44t42 17q22 0 39 -15t17 -41t-18.5 -42.5t-42.5 -16.5q-23 0 -39 14.5t-16 39.5zM245 119q0 27 18 44t42 17q22 0 39 -15t17 -41t-18.5 -42.5t-42.5 -16.5q-23 0 -39 14.5
t-16 39.5z" />
    <glyph glyph-name="oslash" unicode="&#xf8;" horiz-adv-x="641" 
d="M168 25q-57 37 -82.5 100t-25.5 141q0 58 14 109t45.5 88.5t80.5 59t120 21.5q23 0 43.5 -2.5t39.5 -7.5l38 82q5 10 8 13t10 1l55 -10q8 -2 8.5 -6.5t-3.5 -14.5l-45 -96q56 -36 81 -98.5t25 -138.5q0 -58 -14.5 -109t-45.5 -88.5t-80.5 -59.5t-119.5 -22
q-23 0 -42.5 2.5t-37.5 6.5l-33 -71q-5 -9 -7.5 -11.5t-10.5 -0.5l-54 12q-7 2 -8 4.5t4 14.5zM320 469q-47 0 -79.5 -14.5t-53 -41t-30 -64t-9.5 -83.5q0 -55 13 -97t42 -69l168 364q-12 2 -24.5 3.5t-26.5 1.5zM493 266q0 53 -12.5 94.5t-40.5 67.5l-168 -362q20 -4 48 -4
q47 0 80 14.5t53.5 41.5t30 64.5t9.5 83.5z" />
    <glyph glyph-name="ugrave" unicode="&#xf9;" horiz-adv-x="631" 
d="M168 175q0 -49 26.5 -81t91.5 -32q85 0 128 48.5t43 136.5v266q0 11 4 15t16 4h44q20 0 20 -19v-398q0 -11 3 -24l7 -72q2 -11 -1.5 -15t-12.5 -4h-50q-9 0 -12.5 3.5t-5.5 13.5l-8 54q-31 -45 -79.5 -63t-116.5 -18q-89 0 -135 40t-46 141v342q0 11 4 15t17 4h43
q20 0 20 -19v-338zM367 622q-3 -6 -8.5 -7t-19.5 3l-193 52q-17 6 -10 23l16 37q4 9 9.5 10t16.5 -4l184 -76q11 -5 11.5 -9.5t-2.5 -12.5z" />
    <glyph glyph-name="uacute" unicode="&#xfa;" horiz-adv-x="631" 
d="M168 175q0 -49 26.5 -81t91.5 -32q85 0 128 48.5t43 136.5v266q0 11 4 15t16 4h44q20 0 20 -19v-398q0 -11 3 -24l7 -72q2 -11 -1.5 -15t-12.5 -4h-50q-9 0 -12.5 3.5t-5.5 13.5l-8 54q-31 -45 -79.5 -63t-116.5 -18q-89 0 -135 40t-46 141v342q0 11 4 15t17 4h43
q20 0 20 -19v-338zM256 642q-6 16 5 21l176 82q8 5 14.5 4.5t11.5 -10.5l16 -34q5 -11 3.5 -15.5t-12.5 -8.5l-183 -63q-17 -6 -22 6z" />
    <glyph glyph-name="ucircumflex" unicode="&#xfb;" horiz-adv-x="631" 
d="M168 175q0 -49 26.5 -81t91.5 -32q85 0 128 48.5t43 136.5v266q0 11 4 15t16 4h44q20 0 20 -19v-398q0 -11 3 -24l7 -72q2 -11 -1.5 -15t-12.5 -4h-50q-9 0 -12.5 3.5t-5.5 13.5l-8 54q-31 -45 -79.5 -63t-116.5 -18q-89 0 -135 40t-46 141v342q0 11 4 15t17 4h43
q20 0 20 -19v-338zM312 689l-78 -66q-10 -8 -16 -10.5t-17 -2.5h-33q-13 0 -14 6t10 16l109 97q10 10 17 12t21 2q15 0 22 -2.5t18 -11.5l109 -97q11 -10 9 -16t-13 -6h-35q-9 0 -15 2.5t-15 10.5z" />
    <glyph glyph-name="udieresis" unicode="&#xfc;" horiz-adv-x="631" 
d="M168 175q0 -49 26.5 -81t91.5 -32q85 0 128 48.5t43 136.5v266q0 11 4 15t16 4h44q20 0 20 -19v-398q0 -11 3 -24l7 -72q2 -11 -1.5 -15t-12.5 -4h-50q-9 0 -12.5 3.5t-5.5 13.5l-8 54q-31 -45 -79.5 -63t-116.5 -18q-89 0 -135 40t-46 141v342q0 11 4 15t17 4h43
q20 0 20 -19v-338zM167 669q0 25 17 41.5t40 16.5t39 -14.5t16 -40.5q0 -24 -17.5 -39.5t-40.5 -15.5t-38.5 14t-15.5 38zM347 669q0 25 17.5 41.5t40.5 16.5q22 0 38 -14.5t16 -40.5q0 -24 -18 -39.5t-41 -15.5t-38 14t-15 38z" />
    <glyph glyph-name="yacute" unicode="&#xfd;" horiz-adv-x="605" 
d="M56 -179q0 13 17 8q12 -4 23.5 -6t29.5 -2q21 0 38 5t31.5 16.5t27 31t24.5 48.5l19 49l-229 540q-9 21 13 21h53q11 0 14.5 -3.5t8.5 -13.5l181 -438l171 438q4 11 8.5 14t15.5 3h49q11 0 15 -5.5t-2 -19.5l-245 -614q-18 -45 -38.5 -73.5t-42.5 -44.5t-46.5 -22
t-50.5 -6q-23 0 -41.5 3t-30.5 7q-13 4 -13 18v46zM249 640q-6 16 5 21l176 82q8 5 14.5 4.5t11.5 -10.5l16 -34q5 -11 3.5 -15.5t-12.5 -8.5l-183 -63q-17 -6 -22 6z" />
    <glyph glyph-name="thorn" unicode="&#xfe;" horiz-adv-x="645" 
d="M172 428q30 64 82 89.5t115 25.5q104 0 159 -64.5t55 -204.5q0 -141 -65.5 -214t-186.5 -73q-51 0 -88.5 10t-70.5 25v-160q0 -10 -4.5 -15t-16.5 -6h-43q-12 0 -16 6t-4 14v859q0 11 4.5 16t16.5 6h43q12 0 16 -6t4 -15v-293zM350 469q-156 0 -177 -199v-171
q24 -17 64 -27.5t84 -10.5q49 0 82.5 16t54 44.5t29.5 67.5t9 85q0 39 -6 74.5t-22.5 62t-45 42.5t-72.5 16z" />
    <glyph glyph-name="ydieresis" unicode="&#xff;" horiz-adv-x="605" 
d="M56 -179q0 13 17 8q12 -4 23.5 -6t29.5 -2q21 0 38 5t31.5 16.5t27 31t24.5 48.5l19 49l-229 540q-9 21 13 21h53q11 0 14.5 -3.5t8.5 -13.5l181 -438l171 438q4 11 8.5 14t15.5 3h49q11 0 15 -5.5t-2 -19.5l-245 -614q-18 -45 -38.5 -73.5t-42.5 -44.5t-46.5 -22
t-50.5 -6q-23 0 -41.5 3t-30.5 7q-13 4 -13 18v46zM160 668q0 25 17 41.5t40 16.5t39 -14.5t16 -40.5q0 -24 -17.5 -39.5t-40.5 -15.5t-38.5 14t-15.5 38zM340 668q0 25 17.5 41.5t40.5 16.5q22 0 38 -14.5t16 -40.5q0 -24 -18 -39.5t-41 -15.5t-38 14t-15 38z" />
    <glyph glyph-name="dotlessi" unicode="&#x131;" horiz-adv-x="260" 
d="M172 19q0 -12 -4.5 -15.5t-15.5 -3.5h-43q-13 0 -17 3.5t-4 15.5v494q0 11 4 15t17 4h43q20 0 20 -19v-494v0z" />
    <glyph glyph-name="OE" unicode="&#x152;" horiz-adv-x="1251" 
d="M63 357q0 65 18 132t61.5 121t117.5 88.5t185 34.5q105 0 176.5 -30.5t117.5 -81.5v82q0 12 4.5 15.5t16.5 3.5h401q13 0 16.5 -4t3.5 -16v-31q0 -11 -3.5 -15t-16.5 -4h-334v-246h281q13 0 16.5 -4t3.5 -15v-31q0 -12 -3.5 -16t-16.5 -4h-281v-266h355q12 0 16 -4t4 -15
v-31q0 -12 -4 -16t-16 -4h-422q-12 0 -16.5 3.5t-4.5 15.5v80q-45 -50 -116 -81t-177 -31q-107 0 -180 31.5t-118 83.5t-65 118.5t-20 136.5zM443 661q-84 0 -140 -28t-89 -71.5t-46.5 -96.5t-13.5 -104q0 -50 13 -103t46.5 -97.5t90 -73t143.5 -28.5q88 0 144 28.5t88.5 73
t45 97t12.5 100.5t-13 101.5t-46 98.5t-90 74t-145 29z" />
    <glyph glyph-name="oe" unicode="&#x153;" horiz-adv-x="1080" 
d="M60 266q0 58 14 109t45.5 88.5t80.5 59t120 21.5q88 0 142.5 -33t83.5 -88q33 57 92.5 89t146.5 32q117 0 180 -49.5t63 -137.5q0 -77 -60 -122t-191 -45q-48 0 -93.5 6t-84.5 18q4 -37 17.5 -66.5t37.5 -50.5t60 -32.5t86 -11.5q29 0 56.5 3t49.5 9q17 5 38.5 12
t33.5 10q8 2 10 -1t2 -8v-34q0 -11 -3 -15t-16 -10q-38 -16 -81 -24t-94 -8q-100 0 -161 31t-92 85q-29 -54 -83.5 -85t-139.5 -31q-71 0 -120 22t-80.5 59.5t-45.5 88.5t-14 109zM320 469q-47 0 -79.5 -14.5t-53 -41t-30 -64t-9.5 -83.5t9.5 -83.5t30 -64.5t53 -41.5
t79.5 -14.5t80 14.5t53.5 41.5t30 64.5t9.5 83.5t-9.5 83.5t-30 64t-53.5 41t-80 14.5zM785 483q-47 0 -82 -15t-58.5 -43t-35.5 -66.5t-13 -85.5q42 -12 86 -18t84 -6q179 0 179 113q0 57 -42.5 89t-117.5 32z" />
    <glyph glyph-name="Scaron" unicode="&#x160;" horiz-adv-x="619" 
d="M533 637q0 -7 -4 -10.5t-15 1.5q-29 11 -71 20.5t-113 9.5q-37 0 -68 -5t-53 -16.5t-34 -31t-12 -49.5q0 -34 17 -55t45 -35t64 -24t73.5 -21t73.5 -26.5t64 -40.5t45 -63t17 -94q0 -59 -20.5 -99t-57 -64t-86 -34t-106.5 -10q-48 0 -86.5 5t-67 12t-46 13t-23.5 9
q-9 4 -11 8.5t-2 12.5v45q0 18 17 10q14 -5 34.5 -12t47 -13.5t59.5 -11t72 -4.5q42 0 76.5 6t59 21t38.5 39.5t14 62.5q0 44 -17 72t-45 47t-63.5 30.5t-73 22t-73 23.5t-63.5 33t-45 51t-17 78q0 55 20 90.5t54 55.5t79.5 28t96.5 8q41 0 74.5 -4t58.5 -9.5t40.5 -10.5
t21.5 -7q9 -5 10 -8.5t1 -11.5v-44zM327 846l74 66q9 8 14 10.5t17 2.5h48q8 0 9 -5.5t-7 -11.5l-118 -102q-9 -9 -16 -11.5t-21 -2.5q-15 0 -22 2.5t-16 11.5l-119 102q-7 6 -6 11.5t9 5.5h47q12 0 17.5 -2.5t13.5 -10.5z" />
    <glyph glyph-name="scaron" unicode="&#x161;" horiz-adv-x="540" 
d="M463 463q0 -10 -5 -11.5t-14 0.5q-6 1 -21 4.5t-36 7.5t-46 6.5t-52 2.5q-75 0 -104 -22t-29 -54q0 -26 14 -41t37 -24t52.5 -14t60.5 -11t60.5 -15t52.5 -26t37 -44.5t14 -69.5q0 -86 -59 -122.5t-168 -36.5q-32 0 -62 2.5t-55.5 6t-45.5 8t-30 7.5q-8 2 -10 5t-2 10v48
q0 8 3.5 9t10.5 -1q29 -6 79 -15t109 -9q146 0 146 84q0 37 -24.5 55t-60.5 27.5t-79 16.5t-79 22.5t-60.5 44t-24.5 82.5q0 71 50.5 109.5t164.5 38.5q58 0 101 -7t59 -12q8 -2 12 -5.5t4 -13.5v-43zM285 668l74 66q9 8 14 10.5t17 2.5h48q8 0 9 -5.5t-7 -11.5l-118 -102
q-9 -9 -16 -11.5t-21 -2.5q-15 0 -22 2.5t-16 11.5l-119 102q-7 6 -6 11.5t9 5.5h47q12 0 17.5 -2.5t13.5 -10.5z" />
    <glyph glyph-name="Ydieresis" unicode="&#x178;" horiz-adv-x="660" 
d="M34 697q-15 25 9 25h56q12 0 16 -3t9 -13l205 -338l207 338q5 10 9 13t15 3h57q11 0 14 -6t-5 -19l-253 -411v-267q0 -12 -4.5 -15.5t-15.5 -3.5h-46q-12 0 -16.5 3.5t-4.5 15.5v268zM184 847q0 25 17 41.5t40 16.5t39 -14.5t16 -40.5q0 -24 -17.5 -39.5t-40.5 -15.5
t-38.5 14t-15.5 38zM364 847q0 25 17.5 41.5t40.5 16.5q22 0 38 -14.5t16 -40.5q0 -24 -18 -39.5t-41 -15.5t-38 14t-15 38z" />
    <glyph glyph-name="Zcaron" unicode="&#x17d;" horiz-adv-x="573" 
d="M76 652q-12 0 -15.5 4t-3.5 15v31q0 12 3.5 16t15.5 4h429q11 0 14 -4.5t3 -11.5v-36q0 -10 -3.5 -20t-8.5 -18l-363 -562h355q13 0 16 -4t3 -15v-31q0 -12 -3 -16t-16 -4h-440q-16 0 -16 17v34q0 17 10 30l364 571h-344zM298 846l74 66q9 8 14 10.5t17 2.5h48
q8 0 9 -5.5t-7 -11.5l-118 -102q-9 -9 -16 -11.5t-21 -2.5q-15 0 -22 2.5t-16 11.5l-119 102q-7 6 -6 11.5t9 5.5h47q12 0 17.5 -2.5t13.5 -10.5z" />
    <glyph glyph-name="zcaron" unicode="&#x17e;" horiz-adv-x="537" 
d="M463 532q10 0 12.5 -4.5t2.5 -10.5v-27q0 -11 -5 -20t-22 -30l-303 -370h324q17 0 17 -16v-41q0 -8 -6 -10.5t-17 -2.5h-404q-9 0 -12 3.5t-3 11.5v28q0 21 11 33l313 386h-294q-16 0 -16 17v39q0 14 16 14h386zM265 668l74 66q9 8 14 10.5t17 2.5h48q8 0 9 -5.5
t-7 -11.5l-118 -102q-9 -9 -16 -11.5t-21 -2.5q-15 0 -22 2.5t-16 11.5l-119 102q-7 6 -6 11.5t9 5.5h47q12 0 17.5 -2.5t13.5 -10.5z" />
    <glyph glyph-name="florin" unicode="&#x192;" horiz-adv-x="508" 
d="M175 503v82q0 102 45 150t139 48q48 0 76 -8t41 -13q8 -3 10.5 -7t2.5 -13v-37q0 -11 -4 -12t-12 2q-20 7 -43 13.5t-61 6.5q-56 0 -83 -30.5t-27 -105.5v-76h140q19 0 19 -13v-41q0 -16 -18 -16h-141v-417q0 -101 -45.5 -149t-139.5 -48q-49 0 -77 8t-41 13
q-8 3 -10.5 7t-2.5 13v37q0 10 4.5 11t12.5 -1q20 -7 42.5 -13.5t60.5 -6.5q56 0 84 30.5t28 105.5v410h-78q-12 0 -15.5 2.5t-3.5 13.5v36q0 10 3 14t12 4h82z" />
    <glyph glyph-name="uni0237" unicode="&#x237;" horiz-adv-x="261" 
d="M-54 -183q0 15 17 10q11 -3 27.5 -6t30.5 -3q37 0 52 24.5t15 67.5v606q0 12 4 15.5t17 3.5h43q11 0 16 -3.5t5 -15.5v-622q0 -68 -34 -107.5t-108 -39.5q-29 0 -49 5t-25 7q-4 2 -7.5 5.5t-3.5 9.5v43z" />
    <glyph glyph-name="circumflex" unicode="&#x2c6;" horiz-adv-x="398" 
d="M157 758l-78 -66q-10 -8 -16 -10.5t-17 -2.5h-33q-13 0 -14 6t10 16l109 97q10 10 17 12t21 2q15 0 22 -2.5t18 -11.5l109 -97q11 -10 9 -16t-13 -6h-35q-9 0 -15 2.5t-15 10.5z" />
    <glyph glyph-name="tilde" unicode="&#x2dc;" horiz-adv-x="384" 
d="M220 743q14 0 24 8t11 23q1 4 3 6t8 2h32q10 0 10 -10q0 -42 -23 -63.5t-62 -21.5q-33 0 -46.5 8t-20.5 17q-5 6 -11 12t-21 6q-14 0 -23.5 -8.5t-10.5 -22.5q-2 -5 -4 -7t-9 -2h-30q-11 0 -11 11q0 41 23.5 62.5t60.5 21.5q34 0 47 -9.5t19 -17.5q5 -7 12 -11t22 -4z
" />
    <glyph glyph-name="endash" unicode="&#x2013;" horiz-adv-x="604" 
d="M97 283q-14 0 -14 12v50q0 11 13 11h412q13 0 13 -11v-50q0 -12 -14 -12h-410z" />
    <glyph glyph-name="emdash" unicode="&#x2014;" horiz-adv-x="954" 
d="M97 283q-14 0 -14 12v50q0 11 13 11h762q13 0 13 -11v-50q0 -12 -14 -12h-760z" />
    <glyph glyph-name="quoteleft" unicode="&#x2018;" horiz-adv-x="275" 
d="M191 580q0 -28 -17 -45.5t-44 -17.5q-25 0 -42 17t-17 49q0 23 9 45.5t23.5 43.5t33.5 40.5t39 36.5q8 5 12 6t9 -5l9 -9q4 -5 3.5 -8.5t-8.5 -10.5q-20 -17 -37.5 -40t-23.5 -45q23 -2 37 -16.5t14 -40.5z" />
    <glyph glyph-name="quoteright" unicode="&#x2019;" horiz-adv-x="276" 
d="M92 710q0 28 17 45.5t44 17.5q25 0 42 -17t17 -49q0 -23 -9 -45.5t-23.5 -43.5t-33.5 -40.5t-39 -36.5q-8 -5 -12 -6t-9 5l-9 9q-4 5 -3.5 8.5t8.5 10.5q20 17 37.5 40t23.5 45q-23 2 -37 16.5t-14 40.5z" />
    <glyph glyph-name="quotesinglbase" unicode="&#x201a;" horiz-adv-x="278" 
d="M78 47q0 28 17 45.5t44 17.5q25 0 42 -17t17 -49q0 -23 -9 -45.5t-23.5 -43.5t-33.5 -40.5t-39 -36.5q-8 -5 -12 -6t-9 5l-9 9q-4 5 -3.5 8.5t8.5 10.5q20 17 37.5 40t23.5 45q-23 2 -37 16.5t-14 40.5z" />
    <glyph glyph-name="quotedblleft" unicode="&#x201c;" horiz-adv-x="448" 
d="M191 596q0 -28 -17 -45.5t-44 -17.5q-25 0 -42 17t-17 49q0 23 9 45.5t23.5 43.5t33.5 40.5t39 36.5q8 5 12 6t9 -5l9 -9q4 -5 3.5 -8.5t-8.5 -10.5q-20 -17 -37.5 -40t-23.5 -45q23 -2 37 -16.5t14 -40.5zM364 596q0 -28 -17 -45.5t-44 -17.5q-25 0 -42 17t-17 49
q0 23 9 45.5t23.5 43.5t33.5 40.5t39 36.5q8 5 12 6t9 -5l9 -9q4 -5 3.5 -8.5t-8.5 -10.5q-20 -17 -37.5 -40t-23.5 -45q23 -2 37 -16.5t14 -40.5z" />
    <glyph glyph-name="quotedblright" unicode="&#x201d;" horiz-adv-x="449" 
d="M92 710q0 28 17 45.5t44 17.5q25 0 42 -17t17 -49q0 -23 -9 -45.5t-23.5 -43.5t-33.5 -40.5t-39 -36.5q-8 -5 -12 -6t-9 5l-9 9q-4 5 -3.5 8.5t8.5 10.5q20 17 37.5 40t23.5 45q-23 2 -37 16.5t-14 40.5zM265 710q0 28 17 45.5t44 17.5q25 0 42 -17t17 -49
q0 -23 -9 -45.5t-23.5 -43.5t-33.5 -40.5t-39 -36.5q-8 -5 -12 -6t-9 5l-9 9q-4 5 -3.5 8.5t8.5 10.5q20 17 37.5 40t23.5 45q-23 2 -37 16.5t-14 40.5z" />
    <glyph glyph-name="quotedblbase" unicode="&#x201e;" horiz-adv-x="466" 
d="M78 47q0 28 17 45.5t44 17.5q25 0 42 -17t17 -49q0 -23 -9 -45.5t-23.5 -43.5t-33.5 -40.5t-39 -36.5q-8 -5 -12 -6t-9 5l-9 9q-4 5 -3.5 8.5t8.5 10.5q20 17 37.5 40t23.5 45q-23 2 -37 16.5t-14 40.5zM266 47q0 28 17 45.5t44 17.5q25 0 42 -17t17 -49q0 -23 -9 -45.5
t-23.5 -43.5t-33.5 -40.5t-39 -36.5q-8 -5 -12 -6t-9 5l-9 9q-4 5 -3.5 8.5t8.5 10.5q20 17 37.5 40t23.5 45q-23 2 -37 16.5t-14 40.5z" />
    <glyph glyph-name="dagger" unicode="&#x2020;" horiz-adv-x="621" 
d="M353 299q-11 -116 -13.5 -190t-2.5 -120q0 -32 0.5 -54t0.5 -39q0 -11 -10 -14t-16 -3q-8 0 -18.5 3t-10.5 14q0 19 1 44.5t1 64.5q0 47 -3 117t-13 177q14 33 18 72t4 84v31q-33 0 -58.5 -3.5t-48.5 -7.5t-46.5 -7.5t-51.5 -3.5q-23 0 -39 11t-16 32q0 33 50 33
q33 0 57 -3t46.5 -7t47.5 -7t59 -4v6q0 24 -3.5 43.5t-7.5 38.5t-7.5 39t-3.5 44q0 26 11 43t31 17t31.5 -18.5t11.5 -42.5t-4 -43.5t-8.5 -38.5t-8 -38.5t-3.5 -43.5v-6q32 1 55.5 4t44.5 7t44 7t54 3q29 0 45.5 -8t16.5 -27q0 -21 -17.5 -31t-46.5 -10q-26 0 -47.5 3.5
t-44 7.5t-47.5 7.5t-57 3.5q1 -54 3.5 -101t19.5 -86z" />
    <glyph glyph-name="daggerdbl" unicode="&#x2021;" horiz-adv-x="655" 
d="M286 299q14 32 18 70t4 81v36q-33 0 -58 -3.5t-48.5 -7.5t-47 -7.5t-51.5 -3.5q-23 0 -39 11t-16 32q0 33 50 33q33 0 57.5 -3t47 -7t47 -7t58.5 -4v6q0 24 -3.5 43.5t-7.5 38.5t-7.5 39t-3.5 44q0 26 11.5 43t30.5 17q20 0 31.5 -18.5t11.5 -42.5t-3.5 -43.5t-8 -38.5
t-8 -38.5t-3.5 -43.5v-6q32 1 55.5 4t44.5 7t43.5 7t53.5 3q29 0 45.5 -8t16.5 -27q0 -21 -17 -31t-46 -10q-26 0 -48 3.5t-44.5 7.5t-47 7.5t-56.5 3.5q1 -54 3 -101t19 -86h-84zM370 299q-17 -39 -19 -86t-3 -101q32 0 56.5 3.5t47 7.5t44.5 7.5t48 3.5q29 0 46 -10
t17 -31q0 -19 -16.5 -27t-45.5 -8q-31 0 -53.5 3t-43.5 6.5t-44.5 7t-55.5 4.5v-6q0 -24 3.5 -43.5t8 -38.5t8 -38.5t3.5 -43.5t-11.5 -42.5t-31.5 -18.5q-19 0 -30.5 17t-11.5 43q0 24 3.5 44t7.5 39t7.5 38.5t3.5 43.5v6q-34 -1 -58.5 -4.5t-47 -7t-47 -6.5t-57.5 -3
q-50 0 -50 33q0 21 16 32t39 11q28 0 51.5 -3.5t47 -7.5t48.5 -7.5t58 -3.5v36q0 43 -4 81t-18 70h84z" />
    <glyph glyph-name="bullet" unicode="&#x2022;" horiz-adv-x="337" 
d="M82 355q0 21 7.5 38.5t20.5 30t29 19.5t34 7q34 0 58 -23.5t24 -65.5q0 -21 -8 -38.5t-20.5 -30t-29 -19.5t-33.5 -7q-34 0 -58 23.5t-24 65.5z" />
    <glyph glyph-name="ellipsis" unicode="&#x2026;" horiz-adv-x="915" 
d="M74 44q0 27 18 44t42 17q23 0 39.5 -15t16.5 -41q0 -27 -18 -43t-43 -16q-23 0 -39 14.5t-16 39.5zM393 44q0 27 18 44t42 17q23 0 39.5 -15t16.5 -41q0 -27 -18 -43t-43 -16q-23 0 -39 14.5t-16 39.5zM712 44q0 27 18 44t42 17q23 0 39.5 -15t16.5 -41q0 -27 -18 -43
t-43 -16q-23 0 -39 14.5t-16 39.5z" />
    <glyph glyph-name="perthousand" unicode="&#x2030;" horiz-adv-x="1464" 
d="M35 529q0 42 10.5 79.5t33.5 66t60 45.5t90 17q52 0 89 -17t60.5 -45.5t34 -66t10.5 -79.5t-10.5 -80t-34 -66.5t-60.5 -45.5t-89 -17q-53 0 -90 17t-60 45.5t-33.5 66.5t-10.5 80zM229 683q-29 0 -50 -12t-35 -33t-21 -49t-7 -61t6.5 -61t20 -48.5t35 -32.5t51.5 -12
q32 0 53.5 12t35 32.5t19 48.5t5.5 61t-6.5 61t-20 49t-35 33t-51.5 12zM579 200q0 42 10.5 79.5t33.5 66t59.5 45.5t89.5 17t90 -17t60.5 -45.5t34 -66t10.5 -79.5t-10.5 -80t-34 -66.5t-60.5 -45.5t-90 -17t-89.5 17t-59.5 45.5t-33.5 66.5t-10.5 80zM772 354
q-29 0 -50 -12t-35 -33t-21 -49t-7 -61t6.5 -61t20 -48.5t35 -32.5t51.5 -12q32 0 54 12t35.5 32.5t19.5 48.5t6 61t-6.5 61t-20.5 49t-36 33t-52 12zM1042 200q0 42 10.5 79.5t33.5 66t60 45.5t90 17t90 -17t60 -45.5t33.5 -66t10.5 -79.5t-10.5 -80t-33.5 -66.5t-60 -45.5
t-90 -17t-90 17t-60 45.5t-33.5 66.5t-10.5 80zM1236 354q-29 0 -50 -12t-35 -33t-21 -49t-7 -61t6.5 -61t20 -48.5t35 -32.5t51.5 -12q32 0 53.5 12t35 32.5t19.5 48.5t6 61t-6.5 61t-20 49t-35.5 33t-52 12zM735 733q8 11 13.5 14t14.5 1q8 0 21 -7.5t15 -19.5
q4 -6 0.5 -14t-10.5 -16l-517 -675q-15 -20 -34 -14q-9 2 -18.5 9t-10.5 19q-3 6 0 14t8 13z" />
    <glyph glyph-name="guilsinglleft" unicode="&#x2039;" horiz-adv-x="520" 
d="M440 69q8 -5 14 -11t6 -14q0 -9 -6.5 -13t-15.5 -4h-43q-6 0 -13 2t-16 8l-287 185q-21 14 -28 24.5t-7 30.5t7 30.5t28 24.5l287 185q9 6 16 8t13 2h43q8 0 15 -4t7 -13q0 -8 -6 -14t-14 -11l-322 -208l322 -208v0z" />
    <glyph glyph-name="guilsinglright" unicode="&#x203a;" horiz-adv-x="520" 
d="M401 277l-321 208q-8 5 -14 11t-6 14q0 9 6.5 13t15.5 4h42q6 0 13.5 -2t16.5 -8l287 -185q21 -14 28 -24.5t7 -30.5t-7 -30.5t-28 -24.5l-287 -185q-9 -6 -16.5 -8t-13.5 -2h-42q-9 0 -15.5 4t-6.5 13q0 8 6 14t14 11z" />
    <glyph glyph-name="Euro" unicode="&#x20ac;" horiz-adv-x="797" 
d="M257 235q22 -80 86 -126t181 -46q69 0 119 12.5t78 22.5q11 4 17 3.5t6 -12.5v-42q0 -7 -3 -12t-12 -10q-8 -4 -26.5 -10t-45.5 -12t-61.5 -10t-76.5 -4q-80 0 -140.5 17t-104 49t-71 77.5t-40.5 102.5h-104q-14 0 -14 13v37q0 12 13 12h95q-1 9 -1.5 18t-0.5 19h-92
q-14 0 -14 12v37q0 12 13 12h94q5 75 29.5 137t69.5 106.5t111 69t155 24.5q29 0 59.5 -2.5t59 -7.5t52.5 -12t39 -15q8 -5 10 -9.5t2 -15.5v-38q0 -17 -19 -10q-8 3 -25 9t-42 12t-57 10.5t-68 4.5q-74 0 -126 -20.5t-85.5 -56t-51 -83.5t-21.5 -103h293q13 0 13 -12v-37
q0 -12 -14 -12h-293q0 -19 3 -37h241q8 0 10.5 -3t2.5 -9v-37q0 -13 -14 -13h-229z" />
    <glyph glyph-name="trademark" unicode="&#x2122;" horiz-adv-x="1045" 
d="M729 343v-1l144 369q2 6 5.5 8.5t14.5 2.5h47q12 0 12 -12v-402q0 -12 -4 -15.5t-17 -3.5h-22q-12 0 -16.5 3.5t-4.5 15.5v302l-120 -315q-3 -5 -5.5 -7t-13.5 -2h-57q-7 0 -10.5 1.5t-5.5 6.5l-133 323v-309q0 -12 -4.5 -15.5t-16.5 -3.5h-14q-13 0 -17 3.5t-4 15.5v401
q0 13 13 13h64q8 0 11.5 -4t5.5 -9zM49 672q-8 0 -11.5 2.5t-3.5 10.5v21q0 10 3.5 13t14.5 3h334q11 0 15 -3t4 -13v-21q0 -8 -3.5 -10.5t-11.5 -2.5h-136v-364q0 -12 -4 -15.5t-17 -3.5h-28q-12 0 -16.5 3.5t-4.5 15.5v364h-135z" />
    </font>
</defs>
</svg>
